<?xml version="1.0" encoding="UTF-8"?><svg id="Capa_2" xmlns="http://www.w3.org/2000/svg" viewBox="0 0 317.14 147.62"><defs><style>.cls-1{fill:#76b629;}.cls-2{fill:#7fdfef;}.cls-3{fill:#ffce00;}.cls-4{fill:#fefefd;}.cls-5{fill:#f1f7f1;}.cls-6{fill:#666664;}.cls-7{fill:#ff3b46;}.cls-8{fill:#0060a7;}.cls-9{fill:#a1d6b9;}.cls-10{fill:#d3d3d2;}.cls-11{fill:#9cd4e0;}.cls-12{font-family:Aqumtwo-Smallcaps, 'Aqum two';font-size:17.85px;}.cls-12,.cls-13{fill:#fff;}.cls-14{fill:#676765;}.cls-15{fill:#e01f1c;}.cls-16{fill:#fefefe;}.cls-17{fill:#75c4d3;}.cls-18{fill:#286175;}.cls-19{fill:#29768f;}.cls-20{fill:#6a6a69;}.cls-21{fill:#48b900;}.cls-22{fill:#24a3c7;}.cls-23{fill:#0069b5;}.cls-24{fill:#7cc6d8;}.cls-25{fill:#6a6a68;}.cls-26{fill:#fdfdfd;}</style></defs><path class="cls-6" d="M144.6,26.88c.24,6.57.16,13.14.19,19.71v4.09c.07.58-.33,1.12-.91,1.21-1.5.33-3.06.33-4.56,0-.66-.14-.86-.6-.86-1.25v-18.91c0-3.87,0-7.73-.09-11.6-.19-1.27.69-2.45,1.96-2.63.22-.03.45-.03.68,0,1.46,0,2.92-.13,4.37,0,1.35.03,2.58.77,3.23,1.94,1.29,2.26,2.49,4.56,3.73,6.85,2.76,5.11,5.55,10.21,7.98,15.49l.08.13v-3.86c0-2.95-.08-5.88-.11-8.83v-10.52c0-.6.2-1.02.77-1.16,1.54-.41,3.15-.44,4.7-.08.52.12.86.62.78,1.14,0,5.1.09,10.18.13,15.26v15.34c.18,1.29-.72,2.49-2.01,2.68-.16.02-.32.03-.48.02-1.13.09-2.27,0-3.42,0-1.48.04-2.86-.75-3.56-2.05-1.29-2.12-2.4-4.34-3.54-6.52-2.74-5.19-5.69-10.25-8.17-15.55-.3-.64-.56-1.3-.85-1.94,0,0-.09-.11-.16-.14s0,0,0,0c-.03.41.01.82.13,1.21Z"/><path class="cls-6" d="M252.57,40.91v6.73c.21,1.17-.57,2.29-1.74,2.51-4.82,1.86-10.08,2.31-15.15,1.27-5.66-1-10.19-5.24-11.56-10.82-1.31-4.43-1.17-9.15.38-13.5,1.82-5.56,6.64-9.61,12.43-10.44,4.06-.83,8.26-.52,12.15.91,3.21,1.21,3.43,1.76,3.42,4.86,0,.53-.05,1.05-.13,1.57-.17.95-.69,1.2-1.57.75-1.2-.69-2.46-1.28-3.76-1.77-2.56-.97-5.34-1.24-8.04-.77-3.91.66-7.05,3.59-7.98,7.45-.93,3.15-.85,6.52.24,9.63,1.25,4.08,5.05,6.83,9.31,6.74,1.51.07,3.02-.2,4.42-.78.35-.1.58-.45.53-.82v-6.79c0-.47-.13-.63-.61-.61h-5.33c-.99,0-1.24-.19-1.43-1.16-.19-1.04-.19-2.1,0-3.14.02-.57.49-1.02,1.06-1.01.02,0,.03,0,.05,0h11.54c.99,0,1.57.88,1.65,2.13.08,1.25,0,2.59,0,3.87v3.21l.11-.03Z"/><path class="cls-6" d="M256.93,43.38c0-2.9-.11-5.79-.13-8.69v-15.55c0-1.74.63-2.37,2.37-2.38h9.86c1.7-.02,3.4.22,5.03.71,4.7,1.47,6.71,5.05,6.37,9.72-.11,3.59-2.46,6.73-5.88,7.84l-.55.24c2.68,1.41,3.86,3.86,4.92,6.4,1.07,2.54,2.12,4.85,3.14,7.31.75,1.87.41,2.35-1.57,2.41h-3.79c-.85.04-1.62-.5-1.87-1.32-1.21-3.04-2.35-6.12-3.75-9.09-.26-.54-.55-1.06-.86-1.57-.87-1.43-2.45-2.28-4.12-2.2-.69,0-1.57-.31-2.04.14s-.13,1.3-.11,1.98c0,2.13.11,4.28,0,6.41-.47-.27-.28-.72-.31-1.1,0-.89,0-.94-.96-.96h-4.7c-.38.04-.75-.06-1.05-.3Z"/><path class="cls-6" d="M306.32,43.11h-12.04c-.45-.06-.87.25-.94.71,0,0,0,0,0,.01-.61,2.02-1.27,4.03-1.88,6.05-.13.61-.65,1.07-1.27,1.13-1.5.2-3.02.2-4.52,0-.94-.14-1.22-.55-1-1.47.55-2.2,1.38-4.3,2.1-6.43,2.81-8.36,5.66-16.7,8.44-25.09.22-1.08,1.19-1.84,2.29-1.8,1.81-.06,3.61-.06,5.41,0,1.03-.04,1.94.66,2.16,1.66,2.49,7.21,5.05,14.39,7.59,21.58.41,1.14.8,2.31,1.19,3.45-.26.22-.61.31-.94.25h-5.6c-.33.04-.66.03-.99-.05Z"/><path class="cls-6" d="M210.77,51.58h-8.11c-1.57,0-2.27-.66-2.29-2.26s0-3.64,0-5.47v-10.51c0-4.58,0-9.16-.14-13.74-.21-1.18.57-2.32,1.76-2.53.24-.04.49-.05.74,0h16.21c.96,0,1.18.17,1.35,1.13.2,1.13.2,2.29,0,3.42-.04.58-.54,1.02-1.12.98-.03,0-.05,0-.07,0-3.73,0-7.45,0-11.18.08-.53,0-.69.11-.67.67v7.02c0,.6.2.71.74.69h9.28c.59-.08,1.14.33,1.22.93,0,.02,0,.03,0,.05.2,1.01.22,2.04.08,3.06-.17,1.21-.41,1.38-1.57,1.4h-8.77c-.69,0-.91.14-.89.86v8.19c0,.49.09.66.63.66h11.34c.58-.1,1.13.29,1.23.87,0,.02,0,.05,0,.07.24,1.17.24,2.37,0,3.54-.16.86-.42,1.07-1.29,1.07h-8.48v-.16Z"/><path class="cls-15" d="M117.15,8.57c.34.04.68-.1.89-.36.67-.83,1.55-1.46,2.56-1.83,1.57-.49,2.49-1.96,3.81-2.87.49-.33.82-.93,1.57-.89.25,0,.16-.24.19-.39.08-.42.36-.89.74-.82s1.07.22,1.24.82c0,.19,0,.39.24.5,1.05.69,2.02,1.5,2.87,2.43.21.16.38.38.49.63.6,1.22.58,1.29-.61,1.91-.58.38-1.11.84-1.57,1.36-.84,1.11-1.91,2.03-3.14,2.7-.07.02-.13.06-.17.11-1.57,1.96-4,2.71-6.27,3.67-1.35.56-2.51,1.43-3.84,1.99-.2.14-.45.2-.69.17-.49-.02-.93.27-1.11.72-1.51,1.07-3.18,1.9-4.95,2.45-.25.08-.51.13-.77.16-.4-.07-.79-.21-1.14-.42-.5-.22-.86-.25-.99.41-.03.15-.13.27-.27.33-.81.15-1.6.4-2.35.75-2.79,1.13-5.82,1.57-8.53,2.93-1.71,0-3.14,1.19-4.95.78-.42-.04-.83.05-1.19.27-.87.3-1.79.47-2.71.5-.31,0-.45-.13-.42-.38.01-.88-.11-1.75-.36-2.59-.03-.27.04-.54.17-.77.35-.69.23-1.52-.3-2.09-.42-.55-.3-1.34.25-1.76.03-.02.06-.04.09-.06.51-.3,1.09-.44,1.68-.41.94.16,1.91-.02,2.73-.52.15-.09.33-.12.5-.09,1.1,0,2.18-.3,3.14-.86.68-.37,1.45-.54,2.23-.5h1.98c.4-.02.79-.16,1.11-.41.77-.39,1.56-.72,2.37-1,.78-.34,1.72-.41,2.31-1.18.09-.13.27-.11.41-.09.83.03,1.65-.14,2.4-.49.31-.13.6-.3.86-.52,1.05-.83,2.28-1.4,3.59-1.66.98-.09,1.93-.38,2.79-.85.61-.4,1.35-.56,2.07-.45q.91,0,.96-.82c-.05-.19-.05-.39.14-.52Z"/><path class="cls-21" d="M114.16,18.41c0-.67.5-.83,1.07-.85h.86c.83.24,1.77-.09,2.52.53.13.11.28,0,.38-.11.33-.5.77-.36,1.22-.24s1.03.24,1.57.39c.53.06.91.53.85,1.05-.01.13-.05.25-.11.36-.33.76-.47,1.59-.42,2.41.14.5-.04,1.04-.45,1.36-.12.08-.19.23-.17.38.03,2.47-.5,4.91-1.57,7.13-.31.77-.43,1.6-.36,2.43v.56c-.93.91-.52,2.2-.94,3.26-.56,1.11-1.01,2.26-1.36,3.45-.28,1.57-1.33,2.81-1.44,4.41-.01.1-.05.19-.11.27-.66.83-1.13,1.79-1.4,2.82-.09.53-.63.99-.83,1.57s-1.02,1.33-.91,2.24c0,.28,0,.64-.42.53-1.51-.27-3.05-.31-4.58-.14-1.42-.1-2.82-.35-4.19-.74.21-.52.52-1,.91-1.41.26-.19.41-.51.39-.83,0-.12.03-.23.09-.33,1-1.71,1.8-3.54,2.38-5.44.03-.09.03-.19,0-.28-.05-1.06.34-2.09,1.08-2.85.41-.73.75-1.51,1-2.31.61-1.44.41-3.14,1.57-4.41.41-.41.17-1.03.19-1.57-.07-.42.09-.84.42-1.1.25-.19.24-.45.24-.74v-2.43c.36-.66.25-1.57,1-2.01.22-.14.11-.5.14-.75.13-.42.37-.79.71-1.07.3-.34.44-.63-.09-.88-.16-.08-.25-.25-.22-.42-.07-1.17.07-2.34.44-3.45.1-.32.29-.61.55-.83Z"/><path class="cls-6" d="M180.03,43.82v-2.7c0-5.82-.09-11.63-.11-17.45,0-.55-.16-.69-.69-.67h-7.68c-.46.04-.88-.27-.97-.72-.35-1.42-.35-2.91,0-4.33.16-.61.58-.75,1.16-.75l18.2-.08h5.19c.61-.09,1.17.33,1.26.94,0,.03,0,.05,0,.08.22,1.22.22,2.48,0,3.7-.14.85-.47,1.08-1.35,1.08h-7.46c-.52,0-.64.13-.64.64,0,6.44.09,12.9.14,19.35v.88c-.21.18-.48.27-.75.24h-5.55c-.27.05-.55-.03-.75-.2Z"/><path class="cls-8" d="M113.36,22.82q.97.53.22,1.43c-.19.22-.53.34-.56.71-.65.84-1.09,1.83-1.3,2.87h0c-.8,1.24-1.25,2.68-2.16,3.86-.91,1.18-2.04,2.59-2.9,3.98-.86,1.4-2.05,2.67-2.07,4.47,0,.36-.31.39-.53.5-1.36.72-2.34,2.01-2.68,3.51-.11.39-.44.58-.66.85-.56.59-1.04,1.27-1.4,2.01-.73,1.51-1.66,2.92-2.76,4.19-.22.28-.42.31-.8.17-1.39-.61-2.88-.98-4.39-1.1h-.41c-.99-1.02-2.38-1.02-3.58-1.57-.13-.08-.27-.14-.41-.19.59-.45,1.12-.98,1.57-1.57.22-.32.57-.52.96-.55.44,0,.71-.42.91-.75,1.25-1.8,2.66-3.48,4.22-5.02.66-.92,1.48-1.72,2.41-2.37.3-.16.38-.47.44-.85.17-.91.66-1.73,1.4-2.31.38-.28.57-.74.5-1.21-.05-.42.08-.83.36-1.14.74-.93,1.32-1.98,1.98-2.96.62-.92,1.15-1.9,1.57-2.93.4-.75.85-1.47,1.35-2.16.44-.83.81-1.69,1.11-2.57.11-.25.42-.41.39-.74q.34-1.32,1.57-.78l.8.36c1.26.62,2.59,1.09,3.97,1.4.3.08.72.11.89.47Z"/><path class="cls-6" d="M127.25,44.16v-1.9c0-7.81-.05-15.62-.16-23.43-.08-.57.32-1.11.89-1.19,0,0,.01,0,.02,0,1.71-.38,3.49-.38,5.21,0,.59.08,1.01.62.93,1.21,0,.01,0,.03,0,.04v12.34c0,4.3,0,8.61.09,12.9-.23.19-.52.27-.82.24h-5.39c-.27.02-.55-.06-.77-.22Z"/><path class="cls-3" d="M117.15,8.57c-.06.31-.06.62,0,.93.09.47-.14.78-.58.67-.9-.12-1.82-.05-2.7.19,0-.38-.22-.49-.52-.3-1.21.61-2.61.72-3.9.31-.72-.15-1.46-.15-2.18,0-.55.13-.63-.09-.58-.55.12-.84.16-1.69.14-2.54,0-.49-.24-.97-.22-1.41,0-.97-.39-2.07.47-2.92.28-.28.16-.52,0-.78-.29-.39-.46-.86-.47-1.35,0-.39.09-.58.5-.6.26-.06.54-.06.8,0,.76.26,1.59.22,2.32-.11.83-.21,1.7-.13,2.48.22.24.11.52.11.77,0,.78-.25,1.61-.28,2.41-.11h.36c1.07,0,1.13,0,.93,1.05-.09.71-.09,1.44,0,2.15.05.99-.02,1.99-.2,2.96-.11.73-.06,1.48.17,2.18Z"/><path class="cls-1" d="M306.32,43.11h7.53c.8,2.1,1.57,4.2,2.21,6.37.27,1.02,0,1.43-1.02,1.57-1.67.16-3.36.16-5.03,0-.67-.03-1.23-.52-1.36-1.18-.74-2.27-1.54-4.52-2.32-6.76Z"/><path class="cls-3" d="M127.25,44.16h6.96v6.77c.05.54-.34,1.02-.88,1.08-1.71.36-3.48.36-5.19,0-.6-.05-1.04-.57-.99-1.16,0-.02,0-.04,0-.06.09-2.21.08-4.42.09-6.63Z"/><path class="cls-8" d="M180.03,43.82h6.98v6.77c.04.55-.37,1.04-.92,1.08-.01,0-.02,0-.04,0-1.7.32-3.44.32-5.14,0-.59-.06-1.03-.58-.98-1.18,0-.02,0-.03,0-.05.09-2.24.09-4.42.09-6.63Z"/><path class="cls-15" d="M256.93,43.38h6.27c.5,0,.69.14.67.66-.07.52-.07,1.05,0,1.57v4.53c.02.46-.3.85-.75.93-1.81.42-3.69.42-5.5,0-.43-.04-.76-.41-.75-.85.16-2.21-.06-4.53.06-6.84Z"/><path class="cls-6" d="M230.92,57.33v-1.96c0-.63.11-.88.67-.86s.66.41.63.88c-.08,1.48,0,2.97.24,4.44.05.79.05,1.59,0,2.38.04.25-.11.49-.34.58-.27.09-.55.11-.69-.19s-.33-.17-.52,0c-.72.47-1.61.62-2.45.42-1.32-.36-2.2-1.6-2.12-2.96-.04-1.39.89-2.61,2.23-2.96.79-.09,1.59,0,2.35.24Z"/><path class="cls-6" d="M117.15,58.21v-2.29c0-.39.17-.74.66-.71s.66.34.63.8c-.08,1.5,0,3.01.24,4.5.05.79.05,1.59,0,2.38.02.28-.16.53-.42.61-.22.12-.5.03-.61-.19,0,0,0-.02-.01-.03-.16-.28-.3-.17-.52,0-1.18.78-2.73.65-3.76-.31-.96-1.19-1.03-2.88-.16-4.14.43-.74,1.25-1.15,2.1-1.05.61.02,1.3-.3,1.87.42Z"/><path class="cls-6" d="M106.32,58.13v-2.04c0-.66.14-.83.63-.82.49.02.71.36.66.85-.08,1.48,0,2.97.24,4.44.06.82.06,1.64,0,2.46.02.25-.13.48-.38.55-.21.13-.48.06-.6-.14,0-.01-.02-.03-.02-.04-.17-.34-.33-.2-.55,0-1.24.86-2.93.64-3.9-.5-.92-1.33-.81-3.11.27-4.31.38-.47.96-.73,1.57-.71.71-.02,1.46-.25,2.1.27Z"/><path class="cls-6" d="M89.06,62.48c0,.42,0,.77.08,1.11.03.31-.19.59-.5.62-.02,0-.04,0-.07,0-.33,0-.45-.25-.47-.55-.22-2.4,0-4.81.63-7.13.11-.38.36-.56.71-.45,1.07.19,2.1.57,3.04,1.11.97.6,1.28,1.87.68,2.85-.12.2-.28.38-.46.52-.37.27-.5.76-.3,1.18.24.64.41,1.3.61,1.94.2.64,0,.74-.39.88-.39.14-.61-.13-.71-.52-.2-.74-.45-1.47-.64-2.23-.09-.39-.27-.53-.66-.47h-.28l-1.08-.11v.09c-.13.41-.16.82-.19,1.14Z"/><path class="cls-6" d="M94.62,61.88c-.17-2.56,1.57-4.17,3.84-3.61.85.27,1.55.87,1.94,1.66.38.61,0,1.22-.75,1.4-1.08.14-2.14.43-3.14.86-.63.31-.66.44-.11.88.93.69,2.11.94,3.25.71.47,0,1.14-.42,1.25.34s-.64.58-1.05.64c-1.72.39-3.51-.18-4.7-1.47-.33-.5-.74-.89-.53-1.41Z"/><path class="cls-6" d="M124.43,64.69c-1.38.09-2.72-.5-3.59-1.57-.24-.31-.74-.38-.74-.91-.2-1.25.17-2.53,1.02-3.48,1.25-1.08,3.14-.94,4.22.32,0,0,0,0,.01.01l.25.27c.78.88.55,1.57-.61,1.88-.94.13-1.85.38-2.73.74-.24.13-.64.14-.66.47s.3.49.55.64c.87.55,1.92.75,2.93.58l.58-.11c.38-.08.75-.11.83.41s-.31.58-.69.63c-.45.1-.92.14-1.38.13Z"/><path class="cls-6" d="M283.68,57.99c-.3.72,0,1.44.22,2.2.04.84.14,1.68.3,2.51.1.22,0,.48-.22.58-.01,0-.03.01-.04.02-.3.11-.58.08-.71-.19s-.47-.2-.72,0c-1.41.91-3.3.5-4.2-.92-.11-.18-.21-.36-.28-.56-.47-1.56.41-3.2,1.97-3.67.07-.02.15-.04.22-.06.63,0,1.25-.45,1.91,0,.24.16.27-.19.38-.33.18-.25.51-.33.78-.19.26.09.42.34.39.61Z"/><path class="cls-6" d="M248.96,63.89c-1.42.12-2.81-.47-3.72-1.57-.24-.31-.74-.38-.72-.93-.18-1.26.2-2.53,1.03-3.48,1.27-1.05,3.14-.89,4.22.36.12.12.24.24.34.38.64.77.41,1.57-.56,1.72-.89.15-1.76.37-2.6.67-.34.14-.89.19-.91.56s.47.66.85.85c.98.46,2.09.56,3.14.3.42-.09.82-.13.91.39s-.41.56-.77.63c-.4.06-.8.1-1.21.11Z"/><path class="cls-6" d="M151.59,64.29c-1.5-.12-2.7-1.28-2.87-2.78.01-1.52,1.18-2.79,2.7-2.92.55,0,1.13-.41,1.68,0,.14.11.17-.11.22-.2.14-.34.53-.49.86-.35.02,0,.03.01.05.02.45.16.41.52.33.85-.14.52-.1,1.08.13,1.57.39,1,0,2.12.45,3.14.06.22-.07.44-.29.5,0,0-.01,0-.02,0-.26.12-.56.02-.71-.22-.16-.34-.31-.28-.6-.11-.57.37-1.25.55-1.93.5Z"/><path class="cls-6" d="M193.06,63.31c-.41.31-.88.53-1.38.66-1.5.5-3.13-.31-3.63-1.82-.46-1.39.2-2.9,1.53-3.51.79-.42,1.71-.51,2.57-.27.27.11.28,0,.36-.19.15-.33.55-.47.88-.32.02.01.04.02.07.04.38.14.38.49.28.8-.13.52-.08,1.08.14,1.57.34.99,0,2.07.44,3.14.07.19-.03.41-.22.49-.21.14-.48.14-.69,0-.14-.18-.26-.37-.34-.58Z"/><path class="cls-6" d="M308.77,63.54c-1.48.16-2.94-.43-3.89-1.57-.24-.3-.69-.38-.69-.93-.17-1.21.18-2.44.96-3.39,1.15-1.08,2.93-1.08,4.08,0h0c.42.44,1.02.85.78,1.57s-.94.67-1.57.8c-.82.14-1.61.38-2.37.72-.67.31-.71.42-.11.91.96.7,2.17.94,3.32.66.17,0,.33-.08.5-.09s.63,0,.67.49-.19.5-.52.55c-.38.13-.78.23-1.18.28Z"/><path class="cls-6" d="M214.17,60.94c.31-.89.49-2.01,1.57-2.43.8-.44,1.75-.55,2.63-.3.31.13.31-.11.41-.25.2-.39.55-.36.88-.24.28.09.44.39.35.67,0,.02-.01.04-.02.05-.17.56-.13,1.16.13,1.69.38.97,0,2.04.41,3.01.07.2-.03.43-.23.5-.02,0-.03.01-.05.01-.24,0-.53.13-.66-.13s-.45-.28-.78-.09c-1.43.88-3.31.42-4.18-1.01-.28-.45-.43-.97-.44-1.5Z"/><path class="cls-6" d="M137.73,61.52c.01-1.28.87-2.39,2.1-2.73.71-.11,1.43-.55,2.18-.11.24.14.27-.11.33-.24.15-.31.53-.44.84-.29.01,0,.03.01.04.02.3.1.47.43.36.74,0,.02-.01.03-.02.05-.16.52-.13,1.08.11,1.57.38.99,0,2.07.44,3.14.08.22-.03.46-.25.55-.25.09-.55.11-.67-.11-.27-.53-.53-.25-.85-.08-1.41.88-3.27.46-4.15-.95-.29-.47-.45-1.01-.46-1.56Z"/><path class="cls-6" d="M170.36,63.98c-2.46,0-3.83-.91-4.37-2.84-.62-2,.21-4.16,2.01-5.24,1.15-.67,2.58-.58,3.64.22.22.17.39.34.22.67s-.42.34-.74.24l-.2-.08c-.8-.64-1.95-.57-2.67.16-1.09.83-1.58,2.24-1.24,3.58.22,1.08,1.12,1.89,2.21,1.99.91.33,1.93.12,2.63-.55.25-.32.71-.38,1.03-.13.05.04.09.08.13.13.3.42,0,.78-.3,1.08-.66.55-1.5.82-2.35.77Z"/><path class="cls-6" d="M133.68,55.67l1.19.2c.31,0,.49.2.41.55-.02.25-.24.44-.49.42-.05,0-.1-.02-.15-.04-.47-.14-.96-.2-1.44-.17-.3,0-.61.11-.69.44-.04.31.14.6.44.69.56.25,1.14.42,1.71.66,1.21.44,1.96,1.65,1.83,2.93-.25,1.71-1.84,2.9-3.55,2.66-.07-.01-.14-.02-.21-.04-.83-.21-1.57-.69-2.09-1.38-.22-.27-.36-.58,0-.83s.58-.17.8.16c.08.12.18.23.3.31.76.9,2.11,1.01,3.01.25.29-.24.51-.56.63-.92.22-.5.12-1.09-.27-1.49-.43-.48-.97-.84-1.57-1.05-.17,0-.38-.13-.55-.19-1.22-.42-1.57-.94-1.57-1.82s.91-1.32,2.26-1.33Z"/><path class="cls-6" d="M289.84,60.41c0-.1,0-.2,0-.3,0-.53,0-1.11-.49-1.43-.56-.26-1.23-.21-1.74.14-.3.12-.47.44-.39.75.06.9.06,1.8,0,2.7,0,.45-.14.77-.66.72-.52-.05-.61-.39-.58-.82s.09-1.02.09-1.57c.04-.49-.07-.98-.3-1.41-.19-.55-.25-1.13-.19-1.71.04-.26.24-.45.5-.47.25-.06.51.06.61.3.22.53.55.42.97.27.5-.2,1.04-.27,1.57-.19,1.03.04,1.84.9,1.82,1.93-.06.85.03,1.7.27,2.51.13.29,0,.64-.3.77-.02,0-.03.01-.05.02-.34.13-.72-.02-.88-.34-.28-.58-.37-1.23-.27-1.87Z"/><path class="cls-6" d="M182.65,61.55v1.38c0,.45-.13.74-.6.72s-.64-.34-.61-.8,0-1.16,0-1.74c0-.42-.11-.83-.3-1.21-.21-.59-.25-1.24-.11-1.85.08-.28.37-.45.65-.38.16.04.29.15.35.3.28.52.56.45.99.28.3-.1.61-.16.93-.19,1.09-.27,2.2.39,2.47,1.48.07.26.08.54.04.81-.05.65.02,1.31.22,1.93.14.41.14.86-.36,1.02s-.77-.19-.94-.58c-.19-.5-.27-1.04-.22-1.57v-.8c.09-.56-.25-1.09-.8-1.24-.63-.13-1.29.06-1.76.5v1.87l.05.06Z"/><path class="cls-6" d="M239.1,61.14v1.57c0,.42-.19.66-.61.63-.29.03-.56-.17-.59-.47,0-.06,0-.13.01-.19v-1.88c0-.42-.1-.84-.3-1.21-.21-.59-.25-1.23-.11-1.83.11-.53.8-.53,1.11,0s.39.34.74.24c.38-.15.78-.24,1.19-.27,1.08-.21,2.12.5,2.33,1.58.04.2.05.41.02.61-.03.72.05,1.45.25,2.15.17.31.05.7-.27.87-.03.02-.06.03-.09.04-.42.14-.71-.13-.89-.45-.27-.65-.36-1.37-.25-2.07,0-1.49-.78-2.02-2.13-1.38-.35.12-.56.48-.49.85v1.24l.08-.02Z"/><path class="cls-6" d="M267.62,60.95v1.46c0,.49-.13.72-.61.71s-.63-.28-.6-.72,0-1.18,0-1.76c0-.44-.1-.88-.31-1.27-.18-.58-.23-1.2-.14-1.8,0-.2.22-.38.45-.41.3-.05.59.12.69.41.17.41.39.38.72.22.43-.18.89-.26,1.35-.25,1.09-.14,2.09.63,2.23,1.72.02.18.02.37,0,.56-.05.67.02,1.35.22,1.99.13.39.13.83-.34.99s-.78-.19-.96-.58c-.22-.68-.27-1.4-.17-2.1,0-.6,0-1.13-.67-1.4-.62-.18-1.28-.05-1.79.34-.2.13-.17.33-.17.52v1.38h.11Z"/><path class="cls-6" d="M177.93,63.29c-.75.72-1.94.71-2.66-.04-.23-.24-.39-.53-.48-.85-.45-1.34-.57-2.77-.33-4.17,0-.45.36-.61.77-.58.41.03.38.39.34.71-.13,1.16-.04,2.34.27,3.47.11.36.2.8.67.86.42.02.83-.18,1.07-.53.45-.64.66-1.42.61-2.2,0-.42.09-.8.66-.72.33,0,.53.17.49.56-.19,1.35-.24,2.72-.14,4.08,0,.24-.09.39-.33.36s-.63,0-.71-.34-.05-.39-.24-.6Z"/><path class="cls-6" d="M261.9,59.18v-1.57c0-.49.09-1.02-.66-1.1-.25,0-.36-.31-.33-.58s.16-.5.38-.45c.86.17,1.68-.28,2.52-.19.17.01.34.05.5.11.25.09.25.33.2.55s-.28.36-.55.36c-1.24,0-1.08,0-1.05,1.16.03,1.16.13,2.57.13,3.86,0,.56.22.74.71.75h.66c.36,0,.47.31.44.64,0,.26-.19.48-.45.49-.05,0-.1,0-.14-.02-1.14-.1-2.26-.29-3.37-.55-.41-.11-.67-.31-.58-.77.06-.31.36-.51.66-.45.05.01.1.03.15.05.8.31.86,0,.8-.72-.04-.53-.04-1.06-.02-1.58Z"/><path class="cls-6" d="M201.26,61.85c.53-1.24,1.05-2.41,1.57-3.62.17-.5.45-.67.91-.52s.38.58.22.93l-1.32,2.84c-.37.52-.54,1.15-.5,1.79.01.15-.04.29-.14.39-.58.38-.71,1.02-1,1.57-.16.27-.3.45-.63.31-.27-.07-.42-.35-.35-.62,0-.02.01-.04.02-.06.46-1.03.34-2.23-.33-3.14-.34-.74-.63-1.57-.93-2.29-.14-.33-.11-.63.27-.78.29-.16.65-.05.81.24.03.05.04.1.06.15.28.75.56,1.57.86,2.24.1.23.27.43.49.56Z"/><path class="cls-6" d="M158.72,63.97c-.89.05-1.77-.29-2.38-.94-.25-.27-.45-.55-.13-.88s.58-.09.85.16c.93.93,1.57.89,2.48,0,.28-.24.31-.67.07-.95-.02-.02-.04-.05-.07-.07-.48-.59-1.12-1.02-1.85-1.24-.38-.08-.74-.28-1-.56-.38-.5-.29-1.22.22-1.6.12-.09.26-.16.41-.2.81-.18,1.64-.18,2.45,0,.27,0,.36.24.28.49s-.16.49-.55.42c-.52-.07-1.04-.1-1.57-.11-.14,0-.38,0-.41.2s.16.3.31.36.64.24.96.38c.9.33,1.62,1.03,1.96,1.93.24.5.1,1.1-.33,1.44-.61.53-.97,1.25-1.69,1.18Z"/><path class="cls-6" d="M254.14,56.97l1.22.14c.31,0,.44.17.39.47s-.16.52-.52.47c-.55-.12-1.1-.16-1.66-.13-.14,0-.33,0-.38.17s.11.3.25.38.38.14.55.22c.36.14.72.29,1.07.47,1.21.74,1.8,2.07,1.27,2.84-.7,1.27-2.29,1.73-3.56,1.03-.1-.05-.19-.11-.28-.18-.26-.18-.49-.41-.66-.67-.16-.19-.13-.46.06-.62.03-.02.05-.04.09-.06.15-.16.4-.16.55-.02.03.03.05.06.07.09.19.25.44.46.72.61.78.38,1.72.06,2.1-.71.01-.02.02-.05.03-.07.06-.24,0-.5-.17-.69-.4-.53-.94-.92-1.57-1.14-.3-.1-.59-.21-.88-.34-.45-.18-.72-.64-.66-1.11.03-.5.38-.93.86-1.05.36-.08.73-.11,1.1-.09Z"/><path class="cls-6" d="M314.01,56.64h1.1c.36,0,.53.13.45.52s-.25.5-.61.44c-.51-.12-1.04-.16-1.57-.13-.16,0-.31,0-.34.2s.09.28.22.33.58.24.88.36c.93.31,1.69,1,2.09,1.9.27.54.12,1.19-.34,1.57-.84,1.14-2.45,1.38-3.6.54-.14-.1-.27-.22-.39-.35-.25-.28-.53-.56-.16-.93s.6-.08.86.17c.93.91,1.41.89,2.35,0,.34-.22.44-.68.22-1.02-.04-.06-.08-.11-.14-.16-.42-.49-.96-.87-1.57-1.08-.27-.11-.55-.2-.82-.33-.56-.31-.76-1.02-.45-1.58.18-.32.5-.54.87-.58.34-.02.68-.02,1.02,0l-.08.13Z"/><path class="cls-6" d="M274.46,59.45l-.41.2c-.27.13-.53.17-.72-.11-.16-.22-.11-.52.1-.68.01,0,.03-.02.04-.03.78-.41.72-1,.63-1.76-.07-1.25.89-2.31,2.13-2.38.12,0,.24,0,.36,0,.22,0,.39.09.39.34s.08.52-.24.63c-.18.05-.37.09-.56.11-.71.1-1.21.76-1.11,1.47.02.13.05.25.11.37.13.39.39.19.6.19s.71-.16.8.34-.24.64-.63.71c-.39.06-.5.3-.49.72.03,1.09-.11,2.18-.41,3.23-.09.36-.19.72-.72.6s-.38-.47-.31-.82c.28-1.03.42-2.09.44-3.15Z"/><path class="cls-6" d="M211.68,59.79c0-1.08-.36-2.12-.39-3.14v-.88c0-.3.14-.45.39-.45s.31.22.34.45c.22,1.33.47,2.68.66,4.03.22,1.04-.04,2.12-.71,2.95-.7.76-1.81.96-2.73.49-.77-.44-1.13-1.36-.88-2.21.08-.39.25-.72.72-.64s.56.47.41.83-.09.91.41,1.13c.55.24,1.18,0,1.44-.53.28-.63.39-1.33.33-2.02Z"/><path class="cls-6" d="M293.2,60.44c0-.67.11-1.35.11-2.04,0-1.08.24-.94-.97-1.11-.31,0-.52-.11-.53-.44s.25-.5.58-.49c.07,0,.15,0,.22,0,.52.11.64-.09.47-.58s-.11-.56-.2-.85c-.1-.21,0-.46.21-.56.04-.02.09-.03.13-.04.31-.09.56,0,.66.36.14.46.24.93.31,1.41,0,.56.3.63.77.44s.58-.3.72.16-.08.78-.5.78c-.91,0-.85.55-.85,1.18v3.36c.02.28-.19.52-.47.53-.03,0-.05,0-.08,0-.36,0-.45-.22-.47-.52v-1.57l-.11-.03Z"/><path class="cls-14" d="M300.55,56.45c0-.41,0-.82.09-1.24,0-.27.23-.48.5-.47.01,0,.02,0,.03,0,.28-.03.53.16.58.44.01.12.01.24,0,.36-.01,1.97.15,3.93.5,5.86.03.29.03.59,0,.88,0,.27-.11.56-.44.56s-.64-.16-.67-.55c-.09-1.94-.6-3.87-.6-5.85Z"/><path class="cls-6" d="M145.8,57.61v-1.32c.05-.32.35-.53.67-.48.24.04.44.23.48.48.02,2.1.22,4.2.58,6.27v.52c0,.17,0,.69-.44.71-.34.03-.65-.22-.69-.56,0-.02,0-.03,0-.05-.3-1.84-.5-3.7-.6-5.57Z"/><path class="cls-6" d="M223.34,58.27c.46-.43.99-.79,1.57-1.07.31-.13.61-.14.74.19s.13.61-.28.78c-.33.16-.63.36-.91.6-.61.42-.98,1.1-1.02,1.83,0,.74-.25,1.47-.2,2.24,0,.31-.11.53-.45.53s-.58-.13-.58-.5c-.05-.87-.05-1.75,0-2.62.09-.62.09-1.26,0-1.88,0-.38-.28-.85.36-.99s.58.36.67.72c-.02.03.03.06.11.16Z"/><path class="cls-14" d="M235.85,58.65c0,.42-.17,1.03-.3,1.66-.14.56-.14,1.15,0,1.71.13.29,0,.64-.3.76-.04.02-.08.03-.12.04-.34.1-.7-.08-.82-.42-.16-.41-.2-.86-.09-1.29.21-.92.31-1.86.28-2.81,0-.52,0-1.07.63-1.11s.69.55.77,1.03c0,.14-.02.28-.05.42Z"/><path class="cls-6" d="M298.78,58.27c-.06.53-.16,1.05-.3,1.57-.14.57-.14,1.16,0,1.72.14.32,0,.69-.33.83-.04.02-.07.03-.11.04-.44.11-.67-.19-.83-.53-.16-.59-.16-1.21,0-1.8.16-.76.23-1.53.2-2.31,0-.49,0-.99.63-1s.67.52.72.97c.02.17.02.34.02.52Z"/><path class="cls-20" d="M235.87,55.67c0,.45,0,.91-.56.93-.4-.02-.71-.35-.69-.75,0-.01,0-.02,0-.03,0-.49.41-.71.83-.75.42-.05.38.38.42.61Z"/><path class="cls-25" d="M298.78,55.25c0,.44,0,.94-.55.96s-.64-.38-.66-.75.39-.69.8-.77.36.33.41.56Z"/><path class="cls-10" d="M144.6,26.88c-.13-.51-.17-1.04-.13-1.57.15.13.26.3.28.5-.27.34-.03.74-.16,1.07Z"/><path class="cls-16" d="M263.78,27.01v-4.3c0-.24-.11-.56.33-.58,1.75-.15,3.5-.1,5.24.13,2.12.14,3.77,1.88,3.81,4,.43,2.27-.93,4.49-3.14,5.16-1.92.42-3.9.56-5.86.41-.41,0-.28-.31-.28-.53v-4.3l-.09.02Z"/><path class="cls-16" d="M299.86,23.26l4.7,13.97c.11.33,0,.47-.33.47h-8.62c-.36,0-.52,0-.38-.49,1.57-4.56,2.95-9.14,4.44-13.7.05-.09.11-.18.19-.25Z"/><path class="cls-4" d="M113.36,22.82c-1.19-.5-2.46-.71-3.67-1.1-.47-.12-.88-.4-1.16-.8,1.02-.36,2.07-.69,3.14-1.07.66-.24,1.02-.94,1.74-1.13.27-.08.53-.24.8-.34-.53,1.42-.82,2.92-.85,4.44Z"/><path class="cls-5" d="M111.71,27.82c-.09-1.14.4-2.24,1.3-2.93,0,.45.27,1.1-.56,1.21-.14,0-.11.19-.13.31-.06.52-.27,1.01-.61,1.41Z"/><path class="cls-16" d="M231.24,60.36c.02.64-.38,1.22-.99,1.43-.53.37-1.24.37-1.77,0-.99-.74-1.19-2.15-.45-3.14.05-.07.11-.14.17-.2.49-.49,1.28-.49,1.77,0,.29.38.63.72,1.02,1,.34.17.14.63.25.91Z"/><path class="cls-16" d="M117.47,61.49c0,.42-.52.77-1.07,1.05-.52.34-1.19.34-1.71,0-.99-.8-1.14-2.26-.33-3.24.03-.04.06-.08.1-.11.31-.32.78-.43,1.21-.28.99.51,1.67,1.48,1.8,2.59Z"/><path class="cls-16" d="M106.63,61.11c.09.8-.45,1.16-1.05,1.47-.57.36-1.31.32-1.83-.11-.95-.85-1.03-2.31-.18-3.26.01-.01.02-.03.03-.04.43-.41,1.08-.46,1.57-.13.45.36.71.91,1.25,1.21.25.14.17.49.2.85Z"/><path class="cls-26" d="M90.48,60.22c-1.14,0-1.3-.22-1.08-1.33v-.22c.16-.44,0-1.11.55-1.27.93.04,1.78.52,2.31,1.29.15.44-.05.91-.45,1.13-.39.27-.85.41-1.32.41Z"/><path class="cls-26" d="M95.63,61.49c-.11-.99.5-1.93,1.46-2.23.85-.25,1.57,0,2.18.99-.59.24-1.2.44-1.82.6l-1.82.64Z"/><path class="cls-26" d="M121.14,61.38c-.11-.93.4-1.83,1.25-2.21.74-.32,1.6-.11,2.1.52.24.27.38.47-.11.6-1.12.26-2.2.63-3.25,1.1Z"/><path class="cls-16" d="M280.54,62.54c-1-.13-1.77-.95-1.83-1.96.09-.96.87-1.71,1.83-1.77,1.09.02,2,.86,2.1,1.94-.14,1.05-1.05,1.82-2.1,1.79Z"/><path class="cls-26" d="M245.55,60.63c-.1-.96.44-1.86,1.32-2.24.73-.28,1.55-.06,2.05.53.28.3.34.47-.16.61-1.11.26-2.18.62-3.21,1.1Z"/><path class="cls-16" d="M153.53,61.53c-.12,1.02-.98,1.8-2.01,1.82-1-.16-1.75-.98-1.82-1.99.05-1.06.94-1.87,2-1.83s1.87.94,1.83,2h0Z"/><path class="cls-16" d="M192.73,61.33c-.14,1.03-1.03,1.79-2.07,1.77-.99-.17-1.74-1.01-1.79-2.02.14-.92.87-1.63,1.79-1.76,1.1-.04,2.03.81,2.07,1.91,0,.03,0,.06,0,.1Z"/><path class="cls-26" d="M308.77,58.99c-1.11.41-2.29.63-3.37,1.14-.34.16-.33-.11-.31-.34.13-.87.73-1.59,1.57-1.87.85-.2,1.52.14,2.12,1.07Z"/><path class="cls-16" d="M219.05,61.11c-.09,1.03-.94,1.82-1.98,1.83-1.02-.12-1.8-.96-1.83-1.99.13-1.05,1.08-1.79,2.13-1.67.93.11,1.64.89,1.68,1.82Z"/><path class="cls-16" d="M142.56,61.58c-.08,1.03-.94,1.82-1.98,1.82-1.03-.11-1.82-.96-1.85-1.99.12-.91.82-1.63,1.72-1.79,1.1.02,2.01.87,2.1,1.96Z"/><rect class="cls-23" x=".79" y=".9" width="30.29" height="64.29"/><rect class="cls-7" x="31.1" y=".9" width="43.65" height="64.29"/><path class="cls-13" d="M18.68,13.57v1c.15-.32.15-.69,0-1"/><path class="cls-13" d="M20.74,8.13s0-.14.13-.14c.14-.01.28.07.33.2,0,.13-.08.44.34.49,0,.04,0,.08,0,.13h0c.02.07.02.15,0,.22h.08c.58,0,.89,0,1.07-.19.06-.06.1-.12.14-.19.13-.23.17-.5.09-.75h0v-.08c-.21-.29-.52-.51-.86-.61h0c.39.06.72.29.93.63.12-.09.19-.23.2-.38h0c-.03-.12-.03-.24,0-.36M23.18,6.98h-.11s-.27,0-.19-.09,0-.09,0-.13c-.04-.03-.09-.03-.13,0,0,.16-.24,0-.17,0s0-.09,0-.13c-.04-.03-.09-.03-.13,0-.08.16-.25,0-.19-.08.03-.04.03-.09,0-.13-.04-.03-.09-.03-.13,0-.05.08-.1.16-.16.24.35.06.68.23.94.47l.09.11h0s0-.08-.11-.09c-.27-.25-.62-.42-.99-.47-.19,0-.13.22-.11.34-.25-.06-.51.1-.56.35,0,0,0,0,0,0-.02.08-.02.16,0,.24h0l-.08-.08c0-.05,0-.1,0-.16-.25,0-.49.14-.45.36.01.13.1.25.22.3M21.83,7.72c0-.08.08.24.34.16-.19.2-.44,0-.34-.16M21.83,7.56c.11,0,.2-.25.34-.16.08.04.15.09.22.16.08.05.16.1.22.17,0,.09-.08.3-.22.11s-.22-.39-.42-.28-.27.19-.31.08.11,0,.17-.08M21.13,7.56c0,.09-.19.09-.2.2s.09-.31.2-.2"/><path class="cls-13" d="M27.64,18.41c-.19-.2-.64-.11-.64-.11.14-.33-.01-.72-.35-.86-.03-.01-.06-.02-.09-.03-.16-.07-.34-.07-.5,0h0c-.07.06-.11.15-.11.24,0,.19.17.35.36.34.07.02.14.02.2,0,.07-.05.12-.12.14-.2.06.04.11.09.14.16.19.61-.52.83-.52.83-.87.3-1.83.16-2.59-.36l.28-.14c.08-.02.16-.02.24,0h0c0,.17.14.31.31.31.17,0,.31-.14.31-.31.01-.05.01-.1,0-.14h0c-.19-.27-.82-.09-.82-.09.12-.27.12-.58,0-.85-.11-.19-.09-.25-.09-.25v-.2h-.88v.22l-.3.27c-.07.2.03.41.22.48.02,0,.05.02.07.02.28,0,.28-.22.28-.22l-.27-.22.14-.13c.21-.02.4.09.49.28.14.25.11.55-.08.77h-.11c-.16-.08-.31-.17-.45-.27h-.13c-.11-.02-.23-.02-.34,0,.17.17.35.32.53.47-.31.24-.49,0-.49,0-.1-.15-.14-.34-.09-.52h0l-.42.17c.14.25.38.61.38.61-.36.13-.44-.33-.45-.58l-.2.08s0,.06,0,.09c.04.21.13.4.27.56-.15-.04-.31,0-.42.09-.11.1-.17.25-.14.39,0,.09.08.16.17.16.09,0,.18-.06.19-.16,0,0,0-.01,0-.02,0-.1-.08-.17-.17-.17h0c.08-.19.27,0,.27,0,.28.24-.16.5-.16.5-.31.19-.6-.19-.6-.19.23-.35.36-.76.36-1.18l-.33.11c.1.28.02.59-.2.78-.11,0-.13-.34-.13-.34-.03-.11-.06-.21-.11-.31h-.3c.08.26.13.52.16.78l-.22.08c-.27,0-.13-.11-.13-.11l.09-.19h-.34c-.38.19-.27.39-.27.39l.42.27c-.2.09-.43.12-.64.08-.01-.11-.09-.19-.19-.22h0c-.09-.02-.18,0-.24.08v.08h-.22c-.17,0-.25-.45-.31-.83h-.19c0,.41.14.77.14.77-.14-.06-.28-.13-.41-.22-.21-.16-.47-.21-.72-.16-.23.02-.41.23-.38.46s.23.41.46.38c.24,0,.44-.18.45-.42l.3.17c.27.17.58.27.89.28.05.18.23.28.4.24.08-.02.15-.07.19-.14.43.03.85-.11,1.18-.39.09-.13.11,0,.11,0,.31.42.93.16.93.16h.14c.07.11.2.14.31.08.25-.11.11-.27.11-.27v-.08c.28,0,.34-.11.34-.11l-.16-.24v-.13l.14-.19.2-.09-.27-.08-.17-.13c.27-.02.53-.06.78-.14.51.36,1.11.59,1.72.67.02.08.02.17,0,.25h0c-.09,0-.16.05-.17.14,0,0,0,.01,0,.02,0,.09.08.16.17.16h0c.33-.08.36-.55.36-.55.58.04,1.15-.17,1.57-.58.09-.08.14,0,.16,0h0c.05.06.12.1.2.09.09,0,.17-.04.22-.11.01-.05.01-.09,0-.14h0c.01-.05.01-.11,0-.16"/><path class="cls-13" d="M16.31,19.5c.05-.03.09-.08.11-.14,0-.14-.06-.27-.17-.36h-.71c-.12.08-.19.22-.19.36.02.06.06.11.11.14,0,0-.24.11-.24.27s0,.11.19.27c.07.09.14.19.19.3,0,0,0,.17.27.17s.27-.17.27-.17c.05-.11.12-.21.2-.3.2-.16.17-.27.17-.27l-.24-.27"/><polygon class="cls-13" points="18.07 18.51 18.2 18.49 18.12 18.35 18.07 18.51"/><polygon class="cls-13" points="13.92 18.51 14.04 18.52 13.99 18.37 13.92 18.51"/><path class="cls-13" d="M13.43,18.18h0v.19h.09M13.52,18.29h-.08"/><path class="cls-13" d="M15.22,18.32s-.06-.02-.09,0v.16c-.01.05-.01.11,0,.16.03.02.06.02.09,0M15.31,18.63v-.16c.01-.05.01-.11,0-.16-.03-.01-.06-.01-.09,0"/><path class="cls-13" d="M16.77,18.32h-.09s-.02.1,0,.14c-.01.05-.01.11,0,.16.03.01.06.01.09,0,.03.02.06.02.09,0v-.16c.01-.05.01-.11,0-.16-.04-.01-.07-.01-.11,0"/><polygon class="cls-13" points="12.52 18.32 12.64 18.34 12.6 18.18 12.52 18.32"/><path class="cls-13" d="M10.15,17.41v.19h.11"/><path class="cls-13" d="M10.64,17.63s-.07.09-.08.14c-.02.05-.02.11,0,.16h0s.08.02.11,0c.01-.05.01-.09,0-.14.01-.05.01-.11,0-.16,0-.03,0-.05,0-.08-.03-.02-.08-.02-.11,0"/><path class="cls-13" d="M11.31,17.77h0v.17h.13s0-.05,0-.08h-.08"/><path class="cls-13" d="M20.63,17.79h-.09v.17h.08"/><polygon class="cls-13" points="21.66 17.72 21.77 17.69 21.66 17.57 21.66 17.72"/><path class="cls-13" d="M21.96,17.07h-.14c-1.91.68-3.92,1-5.94.97-2.02.03-4.04-.3-5.94-.97h-.11c-.06-.02-.12-.02-.17,0l-.74.55h0c.16.01.31.05.45.11,2.07.8,4.27,1.19,6.49,1.14,2.22.05,4.42-.34,6.49-1.14.15-.06.31-.1.47-.11h0l-.74-.55c-.06-.02-.12-.02-.17,0M15.15,18.13h.16l-.17.09h0l.02-.09ZM10.31,17.6h-.2v.11h0l-.27-.09h0l.09-.27h.31M10.84,17.65c-.02.06-.07.11-.13.14-.07.02-.15.02-.22,0-.05-.01-.1-.04-.14-.08-.02-.04-.02-.09,0-.13,0-.04,0-.08,0-.13.02-.04.04-.08.08-.11h.27c.08.01.15.06.19.13.02.07.02.14,0,.2M11.39,17.91s0,.06,0,.09h-.16s0-.08,0-.13h0v.11h0l-.27-.08h0l.08-.27h.3-.13s0,.08,0,.13M12.06,18.08l-.22.33h0v-.28h.27v.27h.08s.06.02.09,0h0l-.22-.31ZM12.61,18.19h-.39l.19.22h.09l.22-.34h0v.47h0l-.11-.34ZM13.46,18.3h-.14s-.06-.09-.08-.14h0v.16h-.27v-.28h.34c0,.05-.05.09-.11.09v.2h0l.25-.03ZM14.02,18.3h-.38l.09-.08.19-.36h0l.13.38v.08h0l-.03-.02ZM14.57,17.9l-.33.39h.2v.14h-.45l.31-.39h.14v-.13h.42l-.3-.02ZM15.17,18.3c-.06.03-.14.03-.2,0h-.16s-.08-.06-.09-.11c0-.04,0-.07,0-.11v-.13s.06-.08.11-.09h.14c.08,0,.15.04.2.09.02.06.02.12,0,.17,0,.07-.04.13-.09.17M15.83,17.93h0v.41h0l-.13.08v.22h-.16v-.22h.17l.27.3v-.3M15.91,18.34h.19-.19ZM16.67,18.29c-.06.05-.13.08-.2.08-.06.02-.12.02-.17,0-.04-.01-.07-.04-.09-.08,0-.04,0-.08,0-.13-.02-.04-.02-.09,0-.13.01-.05.05-.08.09-.09.05-.01.1-.01.14,0,.07-.03.15-.03.22,0,.02.06.02.13,0,.19.02.06.02.12,0,.17M17.08,18.3h0v-.28h.27v.28h.09s0-.06,0-.09h0v.16l-.36-.06ZM17.85,18.23h-.31.08l.11-.39h0l.19.34h0l-.06.05ZM18.73,17.74h-.16v.16h.08v.17h-.08v.34h-.27v-.28h.42v.13-.52ZM19.32,17.63v.24s0,.05,0,.08h-.09s-.07.01-.11,0h0v-.19h.27v.19h0v-.25s-.07-.02-.09,0h.19M19.7,18.02h0v-.28h0l.42-.09v.11h-.17v.16h0v.16h-.11v.11h.41v.16l-.55-.31ZM20.64,17.79l-.11-.09h0v.13h0l-.25.08h0v-.28h.39s.03.1,0,.14l.11.08h.09s0,0,0,0h0l-.24-.05ZM20.88,17.79h0l.14-.47h-.17s0,.05,0,.08h0v-.13l.41-.13h0l-.14.47h.19v-.08h0v.13l-.42.13ZM21.65,17.54h-.3v-.52h0l.3.3h0v.22Z"/><path class="cls-13" d="M13.35,10.2l-.27.16h.55l-.28-.16"/><path class="cls-13" d="M16.93,10.34l-.22-.09h0l-.3-.09h-1.13l-.3.09h0l-.24.09h2.23"/><path class="cls-13" d="M18.38,10.2h0l-.24.16h.53l-.22-.16"/><path class="cls-13" d="M13.05,14.57v-1.13c-.17.36-.17.77,0,1.13"/><path class="cls-13" d="M15.8,10.57h-2.92v.08l.13.14h2.7l.09-.22Z"/><path class="cls-13" d="M15.69,10.87h-2.56l.13.24h2.29l.14-.24Z"/><path class="cls-13" d="M15.55,11.48v-.24h-2.23c.04.07.06.15.08.24h2.15Z"/><path class="cls-13" d="M15.45,11.62h-2.01c0,.08,0,.16,0,.24h1.9l.11-.24Z"/><path class="cls-13" d="M13.43,12.6h1.07l-.33-.22h-.69v.22"/><path class="cls-13" d="M13.49,12h0v.2h.49l-.33-.22-.16.02Z"/><path class="cls-13" d="M15.81,12.67l1.3,1.76v.85h.24v-2.31h.16v2.31h.24v-2.31h.16v2.31l.24-.08v-2.23h.16v2.07c.09-.04.16-.1.22-.17h0v-1.57c-.07-.11-.12-.23-.17-.34h0c-.04-.07-.07-.14-.09-.22h-1.35l-.3.2-.58-.2-.22-.08,2.2-.67h-1.69v-.14h1.93v-.24h-2.05v-.14h2.15c.02-.08.05-.16.08-.24h-2.34v-.14h2.41c.03-.08.07-.16.13-.24h-2.67v-.14h2.74l.16-.2h-2.98v2.16h-.05ZM16.97,12.97h.14v1.41l-.14-.44v-.97Z"/><path class="cls-13" d="M16.35,15.56c.07-.05.15-.1.24-.13v-1.4l-.24-.17v1.69Z"/><path class="cls-13" d="M15.94,16.01s.07-.09.09-.14h0c.03-.06.07-.12.13-.17v-1.99l-.24-.17.02,2.48Z"/><path class="cls-13" d="M15.55,15.64c.08.06.14.14.19.22h0v-2.35l-.19.2v1.93Z"/><path class="cls-13" d="M15.15,15.42c.08.02.16.06.24.11v-1.74l-.24.17v1.46Z"/><path class="cls-13" d="M16.74,15.39c.08-.01.16-.01.24,0v-1.02l-.24-.17v1.19Z"/><path class="cls-13" d="M14.78,15.28h.24v-1.3l-.24.17v1.13Z"/><path class="cls-13" d="M13.44,15.01v-2.04h.16v2.13l.24.09v-2.23h.14v2.31h.24v-2.31h.16v2.31h.24v-.96l-.14.11,1.33-1.79h0l-.49-.67h-1.69l2.2.67-.8.28-.3-.2h-1.33c-.03.07-.06.15-.09.22,0,.06,0,.12,0,.17v1.69c.07.08.15.15.24.2M14.7,12.97h.16v.74l-.16.44v-1.18Z"/><path class="cls-13" d="M17.11,12.6h1.08v-.22h-.71l-.38.22Z"/><path class="cls-13" d="M18.16,12h-.16l-.33.22h.49c0-.05,0-.1,0-.16h0"/><path class="cls-13" d="M12.06,7.75c.36.16.77.22,1.16.16.12-.01.23-.06.33-.13h0c.19-.16.29-.4.27-.64h0v.17c0,.12-.03.24-.08.34h0s-.01.07,0,.11c.14.08.3.08.44,0h0s-.09.13-.3.13h.09c.18.21.45.31.72.28h-.17c-.16,0-.31-.03-.45-.09.23.23.53.37.85.39h-.42c.2.75.63.67.63.72-.12.04-.19.18-.15.3,0,.02.01.03.02.05.29-.1.59-.16.89-.16.31,0,.62.06.91.17.04-.06.04-.14,0-.2,0-.19-.67-.33-1.25-.17h-.08.08c.34-.13.72-.13,1.07,0h0c.24.09.45-.19.38-.33.16.02.31-.1.33-.26,0,0,0-.01,0-.02-.03.01-.06.01-.09,0h-.13c.26-.12.44-.37.47-.66-.06.07-.14.11-.24.11h-.09s.07,0,.11,0c.13-.09.23-.22.28-.36-.19-.2-.33-.44-.41-.71-.04-.12-.15-.21-.28-.24h-.13c.16-.13.34,0,.44,0,0-.28.13-.36.14-.36h0c-.15.5.06,1.04.52,1.3.55.26,1.2.2,1.69-.16h0c-.09.01-.19.01-.28,0-.06.02-.13.02-.19,0h0c.06,0,.13,0,.19,0,.48-.12.77-.61.65-1.09,0,0,0,0,0-.01h0c0,.05,0,.1,0,.16-.03.06-.07.11-.13.14h0c.23-.37.15-.85-.2-1.11-.49-.28-1.08-.28-1.57,0-.15-.14-.32-.25-.52-.31-.1.27-.28.5-.52.66-.07.05-.14.09-.22.11h0c.34-.16.57-.5.58-.88h0c0-.28-.1-.54-.28-.75-.47-.31-1.06-.36-1.57-.11-.12.11-.19.26-.22.42.06-.15.19-.27.34-.31.2,0,.56,0,.63.19-.29-.21-.69-.15-.9.14-.07.1-.11.21-.12.33h0v-.25c.02-.17.07-.34.14-.5-.68-.16-1.37.25-1.53.94-.03.11-.04.22-.04.33.02.17.1.32.22.44h0s-.11,0-.17-.13c-.08-.1-.13-.22-.17-.34-.32-.12-.66-.17-1-.13-.29.05-.55.19-.75.41-.07.08-.12.16-.17.25-.11.19-.15.41-.13.63.02.38.23.73.56.93M19.54,5.48c.18.07.32.21.39.39.06.14.06.31,0,.45h0c0-.15-.02-.29-.08-.42-.04-.11-.12-.19-.22-.24.05.08.1.16.14.25.02.06.02.13,0,.19,0,.2-.07.39-.2.53h0c.1-.21.1-.45,0-.66h0c-.08-.17-.24-.28-.42-.3.1.07.18.17.24.28.15.21.15.48,0,.69h0s0-.07,0-.11c0-.09,0-.18,0-.27-.11-.45-.5-.63-.8-.34.21-.33.63-.48,1-.36M16.47,8.85v-.22c0-.06.2-.22.28-.3s0,.24-.24.52M16.52,8.43c-.09-.16.14-.34.2-.5s-.08.45-.2.5M17.29,4.82c0,.24-.13.3-.14.3h0c.08-.18.05-.39-.08-.55-.08-.07-.17-.13-.27-.17.24.04.44.22.5.45M16.64,7.14c.22.08-.11.49-.13.56s.22-.19.28-.14-.22.52-.31.53c-.47-.58.14-.77.16-.96M16.33,8.14c.09.3.09.61,0,.91v-.22c.01-.3-.02-.6-.09-.89-.12-.38-.27-.75-.45-1.1.3.38.52.83.63,1.3M14.42,6.72c.4.49.95.82,1.57.96.25,0,.38.82.17,1.19-.22,0-.25-.16-.3-.31s.24.17.24,0-.6-.19-.45-.41.34.36.42.2-.96-.41-.94-.67.8.36.93.34-1.19-.61-1.57-1.22v-.09h0M12.41,7.53c.28,0,.52-.2.44-.44s-.08-.13-.19-.14c-.14,0-.27.08-.33.2,0-.2.17-.35.37-.35.01,0,.02,0,.03,0,.15.02.27.12.33.25.08.36-.27.5-.66.47M12.41,5.87c.29-.11.62-.04.85.17.37.3.43.84.13,1.21-.02.02-.03.04-.05.06.13-.3.17-.75-.31-.86-.34-.04-.68.08-.91.33.16-.4.59-.61,1-.49-.09-.28-.49-.39-.93-.16-.09.05-.17.11-.25.17.09-.2.26-.36.47-.44"/><path class="cls-13" d="M14.5,19.26c-.25-.06-.52,0-.72.16-.13.09-.26.16-.41.22,0,0,.08-.36.14-.77h-.19c0,.38-.14.82-.3.83h-.24v-.08c-.06-.07-.15-.1-.24-.08h0c-.1.03-.17.12-.19.22-.22.04-.44,0-.64-.08,0,0,.38-.13.42-.27s.11-.2-.27-.39c0,0-.27-.16-.34,0s0,.08.09.19.14.13-.13.11c0,0-.17,0-.22-.08.02-.27.07-.53.16-.78h-.3c-.05.1-.08.21-.11.31,0,0,0,.28-.13.34-.22-.19-.3-.51-.2-.78l-.33-.11c0,.42.14.83.38,1.18,0,0-.3.38-.61.19,0,0-.44-.27-.16-.5,0,0,.19-.16.27,0-.1,0-.17.08-.17.17h0c0,.1.08.17.17.17,0,0,.01,0,.02,0,.09,0,.16-.07.17-.16.02-.15-.03-.3-.14-.39-.11-.1-.26-.13-.41-.09.13-.17.21-.36.25-.56,0-.03,0-.06,0-.09l-.22-.08c0,.25-.09.71-.45.58l.39-.61-.44-.17h0c.05.2,0,.41-.14.56,0,0-.17.17-.49,0,.19-.15.36-.3.53-.47-.11-.02-.22-.02-.33,0h-.14c-.14.1-.3.19-.45.27h-.11c-.19-.21-.22-.52-.08-.77.08-.19.28-.3.49-.27,0,0,.09,0,.14.11s-.31,0-.27.22,0,.22.28.22c.21-.03.35-.22.32-.43,0-.03-.01-.05-.02-.07,0,0,0-.27-.3-.27s.14-.16,0-.22-.09-.08-.31,0,0,.09-.3,0c-.08-.05-.18-.05-.27,0v.2c0,.2,0,0-.09.25-.04.1-.07.21-.08.31-.08-.05-.17-.09-.27-.11-.13-.13-.13-.74-.27-1.02s0-.38,0-.71c.65-.11,1.2-.57,1.41-1.19.07-.38.04-.78-.08-1.14h0c.04.08.08.15.11.24.33.03.67,0,.99-.11h.2c.49-.26.89-.66,1.14-1.14-.18-.03-.34-.12-.47-.25.22.06.45.1.67.13.34,0,.6-.19.99-.14,0,0,0,.17.31.28,0,.19.02.38.08.56v.08s-.3.22-.22.39v.14h0s-.09,0-.17.16-.19.36,0,.39h0c-.08.39,0,.8.22,1.13h0c.37.49.96.75,1.57.71h0c.13,0,1.13,0,1.57.66,0,0,.11.14.19.14.08-.01.16-.06.19-.14.36-.64,1.38-.66,1.49-.66h0c.61.05,1.2-.22,1.57-.71h0c.13-.17.22-.38.24-.6.24-.13.22-.61.22-.69.11.19.28.33.49.39,0,.24,0,.61.22.66s.14-.11.13-.19c.22.61,0,.99.2,1.02s.22-.36.25-.36c.05.09.08.19.09.3v.41s.16-.78.38-.69c0,.36,0,.56.16.63s0,.33-.09.33c-.42.09-.82-.22-1.19-.13h0c-.36-.18-.77-.22-1.16-.11-.2-.17-.27,0-.33,0-.36-.19-.55.14-.64.16s-.24-.17-.41.22c-.08.16-.47.24-.5.25-.08.02-.16-.02-.2-.09v-.11h0c-.06-.02-.12-.02-.17,0-.11,0-.2.09-.2.2,0,0,0,.01,0,.02-.02.04-.02.09,0,.13h.09c.08,0,.15.05.16.12,0,0,0,.01,0,.02h0c0,.17-.27.34-.27.34h-.36c-.05-.05-.12-.09-.19-.11-.08,0-.14.06-.17.13-.03-.07-.1-.12-.17-.13-.07.02-.13.06-.19.11,0,0-.2.19-.36,0s-.28-.17-.27-.34h0c0-.08.06-.14.14-.14,0,0,.01,0,.02,0h.09s.02-.09,0-.13c0-.11-.08-.21-.19-.22,0,0-.01,0-.02,0-.05-.02-.11-.02-.16,0h0v.11c-.04.07-.12.11-.2.09,0,0-.42-.09-.5-.25-.17-.39-.31-.2-.41-.22s-.28-.34-.64-.16c0,0-.13-.22-.33,0-.3-.09-.62-.09-.93,0,0,0-.2-.09-.25-.11-.1-.05-.19-.1-.28-.16-.19-.02-.39-.02-.58,0-.08-.01-.15-.04-.22-.08-.24-.12-.45-.28-.63-.49l-.09-.13c-.07-.08-.12-.18-.16-.28-.03-.28,0-.56.08-.83,0-.08,0-.17,0-.25-.28.07-.58.07-.86,0,.06.27.06.56,0,.83.12.07.2.19.22.33v.39c.17.16.36.31.56.42,0,0,.83.6.94.63s.17,0,.27,0h0c.05.05.11.09.17.13l-.75.42s-.34.17-.17.17h.27l-.27.11c.36.13.74.24,1.11.33.25-.24.54-.44.86-.58,0,0,.42,0,.56-.28s.24.17.61,0c0,0,.09,0,.2.11s-.16,0-.11.2-.31,0-.42.16c-.47.08-.91.26-1.3.53h.34c.2-.15.45-.23.71-.22.25.03.46.2.53.44h.69s.38-.17.24-.36,0-.09-.2,0-.09,0-.13,0c0-.04,0-.07,0-.11,0,0,0-.09,0,0,.07.01.15.01.22,0,.11,0,.2-.09.2-.2,0-.12-.08-.23-.2-.24,0,0,0,0,0,0h0s-.03.08-.08.08c0,0-.01,0-.02,0-.13,0-.09-.28.09-.3.12.02.22.08.3.17.14.22.34.41.58.53,0,0,0,.16.13.2s0,.14.19.13l.08.16h.97v-.16c.19,0,.16-.13.19-.13s.11-.2.13-.2c.24-.13.44-.31.58-.53.08-.09.18-.15.3-.17.19,0,.22.27.09.3s0,0,0-.08,0,0,0,0h0c-.12,0-.21.11-.2.23,0,0,0,0,0,0,0,.11.09.2.2.2.07.01.15.01.22,0,.13,0,0,0,0,0,0,.04,0,.07,0,.11,0,.13-.11,0-.11,0h-.22s.17.33.24.36h.69c.07-.24.28-.41.53-.44.25-.01.5.07.71.22h.34c-.39-.27-.83-.45-1.3-.53-.11-.16-.42-.14-.42-.16s-.14-.19-.11-.2.17-.13.2-.11c.38.2.56,0,.61,0s.56.28.56.28c.32.14.61.34.86.58l1.02-.3h0v-.08h0c-.09-.14-.22-.28-.25-.33h0s.25-.36.41-.11,0,.11-.17.11c.09.15.16.31.22.47h.16c-.11-.19-.25-.3-.2-.34s.17,0,.25,0c0-.1,0-.21,0-.31.08.02.17.02.25,0,.27,0,.36-.38.3-.5s.19-.14.2-.11.5.36.45,0c0,.19.13.41.36.39s0-.31.11-.31.13.39.38.31c.09-.02.15-.1.14-.19,0-.3-.91-1.9-.99-2.6h0s-.09-.17,0-.28h0c-.18-.04-.31-.21-.3-.39,0-.27.11-.41.14-.41s0,0,0,0c0,0-.11.45,0,.6h.16c.02-.06.07-.11.13-.14h0c-.08.14-.08.3,0,.44.06.02.12.02.17,0,.25-.08.38-.55.44-.69s-.28.97,0,1.18.22-.17.28-.31c.11.28-.38.86,0,1s.28-.47.28-.41c0,.78-.36,1.16-.08,1.29s.3-.53.3-.45c0,.83-.44,1.07-.25,1.21s.36-.42.36-.3c0,.74-.41.94-.24,1.18s.58-.49.6-.34-.42,1.03-.17,1.1.3-.25.31-.31c.49-1.59.71-3.26.64-4.92-.02-1.01-.17-2.01-.44-2.98-.16-.55-.49-1.68-1.25-1.83-.3-.04-.58.16-.62.46,0,.02,0,.05,0,.07,0,.25.19.38.11.61-.1.16-.18.34-.24.52,0,.17.11.25,0,.44s-.36.16-.69.08c-.21.06-.43.06-.64,0h0c.34,0,.66-.13.72-.27.09-.23.03-.5-.14-.67-.3.15-.64.2-.97.17-.56,0-.71,0-.78.39-.01-.05-.01-.11,0-.16,0-.17.2-.28.44-.31.02-.07.02-.15,0-.22-.09-.02-.19-.02-.28,0-.27,0-.63.19-.72.44,0,.05,0,.09,0,.14,0,.04,0,.07,0,.11v.09c0,.09.3.27.74.28h0c-.07.03-.15.03-.22,0-.22,0-.43-.07-.6-.2h0c-.14.13-.33.21-.52.22-.19,0-.38-.07-.5-.22-.28-.34,0-.94,0-1.18,0-.6-.88-.33-1.19-.17-.36.2-.67.47-.93.78-.14.16-.26.34-.36.53.22.1.45.16.69.19h.09c.2,0,.4-.05.56-.16.06-.02.13-.02.19,0,.08,0,.16.03.22.09,0,0,.58.44.75.55.05.03.08.08.09.14,0,.07-.03.13-.08.17-.19.23-.36.49-.49.77v.19c0,.08-.11.56.2.67,0,0,.36.08.33-.47,0,0,0,.36.33.34.33-.02.22-.13.2-.36h0c-.04-.26-.04-.52,0-.78h0s0,.09,0,.14c-.04.89.34,1.75,1.02,2.32-.33-.18-.61-.44-.8-.77-.3.16-.44.51-.33.83.06.15.15.27.28.36h-.17s-.06-.1-.08-.16c-.13-.11-.26-.22-.38-.34h0c0-.17,0-.69-.56-.69h-.16c-.09-.25-.13-.52-.09-.78.11-.47.33-.91.64-1.27.01-.02.01-.05,0-.08h0c-.19-.13-.72-.53-.77-.58h0s-.09-.02-.13,0c-.04,0-.07,0-.11,0-.19.14-.41.21-.64.2h-.11c-.26-.02-.52-.09-.75-.22-.64-.29-1.38-.29-2.02,0-.24.13-.5.2-.77.22h.34c-.23,0-.45-.07-.63-.2h0s-.07,0-.11,0c-.05-.01-.1-.01-.14,0h0s-.58.45-.77.58h0c.07-.02.1-.09.08-.16,0,0,0-.01,0-.02.33.36.56.8.66,1.27,0,.09,0,.19,0,.28-.03-.12-.07-.23-.13-.34,0-.07,0-.14,0-.2h0c-.08-.11-.19-.19-.31-.25-.1-.03-.19-.07-.28-.13-.16-.09-.29-.21-.39-.36,0-.21-.06-.42-.17-.6,0,0,.25.13.28.49.24-.29.4-.64.45-1.02.2-.25.74-.16.94-.13.06,0,.12,0,.17,0,0,0,.08.13.16.16.09.02.19.02.28,0,.03.04.06.08.08.13h.08c.25-.04.49-.1.72-.2h0c-.12-.12-.29-.18-.45-.19-.19,0-.3-.2-.49-.24-.09-.02-.19-.02-.28,0-.37,0-.75-.04-1.11-.13-.38,0-.38.22-.52.42-.05.08-.11.15-.17.22-.11.09-.22.09-.34.19h0c-.03-.16-.09-.31-.17-.45h0c-.19-.33-.52-.57-.89-.64l-.16-.09c-.08,0,0-.11,0-.13s.34,0,.5-.11.24-.45,0-.47c-.19-.03-.38-.08-.56-.16-.09,0-.14-.19-.28-.24-.1-.02-.2-.02-.3,0h-.2c.1-.12.25-.19.41-.19-.16,0-.11-.28-.25-.34-.09-.02-.18-.02-.27,0,0,0,0-.33-.2-.41s-.16,0-.16.09.19.14.22.41h-.09c0-.11-.08-.28-.2-.34s-.16,0-.16.09.17.13.22.34l-.13.11c-.24,0-.3-.24-.36-.24s-.17,0-.13.14c.09.11.22.19.36.22l-.08.08c-.28,0-.34-.24-.41-.25s-.17,0-.13.14.36.22.42.24,0,.14,0,.19c-.22,0-.61.09-.53.34s.33-.16.56,0c.12.15.28.25.47.28.07.09.11.19.14.3.08.2.19.38.33.55.14.19.28.39.42.56.02.06.02.12,0,.17-.26.26-.54.49-.83.71-.2.17-2.09,1.57-2.32,2.13-.03.16-.03.33,0,.49-.12.07-.26.07-.38,0-.13-.14.13-.28,0-.47-.06-.04-.14-.04-.2,0-.14,0-.17.31-.11.47s.09.11,0,.14-.11,0-.11-.14c-.03.05-.03.11,0,.16,0,.14.2.14.25.17s-.09,0-.16,0,0,.2,0,.2c0,0,.24-.08.31-.09s0,.11-.14.14c.19.2.36-.16.56-.13s.66.55.55.96c0,.03,0,.06,0,.09-.14.16-.34.27-.5.42s.3,1.36.25,1.98c0,.24.2.19.34.58-.14-.01-.28.04-.38.14h0s-.01.1,0,.14c0,.17.14.31.31.31.17,0,.31-.14.31-.31h0c.08-.02.17-.02.25,0l.27.14c-.75.49-1.68.61-2.52.33,0,0-.71-.22-.5-.83.03-.06.07-.12.13-.16.02.08.07.16.14.2.07.02.14.02.2,0,.19,0,.35-.15.36-.34,0-.09-.04-.18-.11-.24h0c-.16-.07-.34-.07-.5,0-.35.09-.56.45-.47.8,0,.03.02.06.03.09,0,0-.45-.09-.63.11-.02.05-.02.11,0,.16h0s-.01.09,0,.14c.05.07.13.11.22.11.08,0,.16-.03.2-.09h.16c.42.41.99.62,1.57.58,0,0,0,.47.34.55h0c.09,0,.16-.07.17-.16,0-.09-.07-.16-.16-.16,0,0-.01,0-.02,0h0c-.02-.08-.02-.17,0-.25.62-.09,1.21-.32,1.72-.67.26.08.52.12.78.14,0,0,0,.11-.17.13s-.27,0-.27.08,0,.09.2.09,0,.09.14.19.11,0,0,.13-.2.11-.16.24,0,.16.34.11c0,0,.09,0,0,.08s-.14.16.11.27c.11.06.25.03.31-.08,0,0,0-.08.14,0s.61.27.93-.16c0,0,0-.08.11,0,.33.28.75.42,1.18.39.1.15.3.2.45.1.07-.04.12-.11.14-.19.32-.02.63-.11.89-.28l.3-.17c.02.24.22.42.45.42.24,0,.45-.18.45-.42,0,0,0,0,0,0,0-.22-.16-.4-.38-.42M11.63,16.03h-.3s-.01.06,0,.09h.08s-.09.09-.14.09-.17-.11-.2-.17h0c-.11-.03-.23-.03-.34,0,0-.22.64-.08.66,0,.07-.01.14-.01.2,0h0M20.99,16.56h0c-.13-.04-.26-.1-.38-.17-.07-.04-.16-.04-.24,0h0c-.09,0-.14.14-.2.19s0,0,0,0h.27c.1,0,.19.04.27.09.11.07.23.11.36.11-.04.04-.06.08-.08.13M23.54,9.52c0-.17.3-.39.3-.49s-.13-.24-.14-.39c-.03-.2.11-.38.31-.41.03,0,.07,0,.1,0,.14.05.27.14.36.27l.11.13c.3.42.52.88.64,1.38.48,1.95.52,3.99.11,5.96-.04.23-.1.46-.17.69.45-3.97.2-4.95.13-4.94s-.14.49-.36.34.52-1,.22-1.49c-.08-.08-.13.11-.25.08s.17-.86,0-.94-.3-.09-.3-.38.08-.24,0-.34,0,0-.16,0,0-.31-.08-.42-.14.09-.22,0,0-.19,0-.24-.34.16-.3.36.16.19.14.31-.14.24-.17.28c-.19.44.14.52.09.67s-.16.11-.25.08-.16-.44-.11-.6M22.95,10.29h.2s.11-.08.17-.08,0,0,0,0c-.1.08-.22.14-.34.17-.18.06-.38,0-.5-.16h.52M19.2,8.74h0c-.24-.1-.51-.1-.75,0-.12.07-.23.16-.33.27.18-.27.47-.45.8-.49.31,0,.34.14.33.17M20.36,10.07c-.06.14-.18.26-.33.31-.22.03-.45-.05-.61-.2.16.05.33.08.5.09.17-.02.32-.09.44-.22h0M20.83,14.52c.25.08.53.05.75-.09h0s0,.2-.31.27c-.33.01-.65-.14-.85-.41.11.09.23.17.36.24M19.43,13.62h0v.09h0v.13c.03.1.03.2,0,.3h-.28v-.13h.09c-.02-.16-.02-.32,0-.49h0M18.63,12.83h0c.05-.01.11-.01.16,0h.17c.05.06.09.14.11.22h0c.03.08.07.16.11.24,0,0,0,.17-.09.16h0c-.19-.07-.3-.27-.25-.47h0s0,.08-.11.08c0-.08.05-.16.13-.2M13.02,13.35c.26-.36.39-.8.36-1.24-.02-.51-.21-1-.55-1.38-.03-.05-.03-.11,0-.16,0-.05.03-.09.08-.11l.45-.28h.09c.17.13.38.21.6.2h.17c.15-.03.3-.08.44-.16l.25-.09h0c.59-.25,1.26-.25,1.85,0h0l.25.11c.14.07.29.13.44.16h.17c.22,0,.43-.07.6-.2h.19l.45.28s.01.07,0,.11c.03.05.03.11,0,.16-.34.38-.53.86-.55,1.36-.02.45.11.89.36,1.25.28.49.28,1.08,0,1.57-.33.45-.87.69-1.43.63-.09,0-.89,0-1.18.5h0l-.17.28h0l-.17-.28h0c-.28-.49-1.08-.5-1.18-.5-.55.06-1.1-.18-1.43-.63-.3-.48-.3-1.09,0-1.57M12.88,12.5c.07.09.11.21.11.33v.78h-.58s.08-.11.11-.19c-.01-.05-.01-.11,0-.16h.14s-.11-.24,0-.36,0-.56,0-.61M12.66,11.72c-.08,0-.09-.33-.52-.25-.17.09-.38.09-.55,0,.61-.33,1.11,0,1.07.27M9.1,8.36c-.09-.2.25-.49.34-.52s.34,0,.56.08h.36c.24,0,.17.19.13.22s-.3-.09-.47-.13c-.12,0-.24,0-.36,0-.11,0-.19-.08-.28,0-.09.04-.14.14-.13.24,0,.08-.11.13-.16,0M9.32,8.25c.27.09.3-.24.36-.16s-.16.36-.36.16M9.82,8.96c.37,0,.73.05,1.08.17h0c.18.13.31.31.38.52-.23-.15-.49-.26-.75-.34-.28-.09-.61-.14-.74-.36M7.72,17.63h0l-.02.09s0,.14.09.19,0,0,0,0h-.11c-.08,0-.09-.17-.11-.24,0-.09-.05-.18-.14-.22.17-.11.44.16.47.17h0l.13.09h-.14"/><path class="cls-13" d="M36.92,61.75c-.38.18-.8.28-1.22.28-.99,0-1.44-.66-1.44-1.66-.09-.77.46-1.48,1.23-1.57.11-.01.22-.01.33,0,.38-.02.76.08,1.08.28l-.28.45c-.25-.13-.52-.2-.8-.19-.58,0-.86.42-.86,1.05s.28,1.14.85,1.14c.19,0,.39-.04.56-.11v-.58h-.44v-.45h1.08l-.09,1.35Z"/><path class="cls-13" d="M39.58,60.84c.07.62-.37,1.18-.99,1.25-.62.07-1.18-.37-1.25-.99-.01-.09-.01-.18,0-.27-.06-.59.36-1.11.95-1.17.05,0,.11,0,.16,0,.6-.03,1.1.43,1.13,1.03,0,.05,0,.1,0,.15M38.93,60.84c0-.55-.17-.74-.47-.74s-.45.19-.45.74.14.75.45.75.47-.2.47-.75"/><path class="cls-13" d="M40.63,59.94c.16-.17.39-.27.63-.27.56,0,.97.38.97,1.18.07.58-.35,1.12-.93,1.18-.04,0-.08,0-.12,0-.27.01-.52-.1-.69-.31l-.11.27h-.34v-3.14h.6v1.08ZM40.63,61.36c.1.14.25.22.42.24.28,0,.49-.2.49-.75s-.17-.74-.47-.74c-.16,0-.32.07-.44.19v1.07Z"/><path class="cls-13" d="M42.92,61.99v-1.83h-.27v-.39h.89v2.27l-.63-.05ZM42.92,58.85h.64v.55h-.64v-.55Z"/><path class="cls-13" d="M44.68,61.02c-.02.29.2.55.49.57.04,0,.08,0,.12,0,.25-.02.49-.09.71-.2l.11.44c-.28.14-.58.21-.89.22-.59.06-1.12-.38-1.18-.98,0-.07,0-.14,0-.21-.08-.57.31-1.09.88-1.17.08-.01.16-.01.23,0,.54-.03.99.38,1.02.92,0,.05,0,.11,0,.16v.27h-1.49ZM45.12,60.11c-.31,0-.44.28-.44.55h.88c0-.3-.09-.55-.44-.55"/><path class="cls-13" d="M48,60.22c-.1-.02-.2-.02-.3,0-.16,0-.31.05-.44.14v1.66h-.63v-2.31h.44v.3h0c.11-.21.33-.34.56-.34h.28v.52"/><path class="cls-13" d="M49.87,61.99v-1.35c0-.34-.14-.52-.44-.52-.15.01-.29.06-.41.14v1.72h-.64v-2.27h.44l.09.25c.2-.2.47-.31.75-.3.61,0,.85.33.85.91v1.41h-.64Z"/><path class="cls-13" d="M53.18,60.84c.07.62-.37,1.18-.99,1.25-.62.07-1.18-.37-1.25-.99-.01-.09-.01-.18,0-.27-.07-.62.37-1.18.99-1.25.62-.07,1.18.37,1.25.99.01.09.01.18,0,.27M52.52,60.84c0-.55-.17-.74-.47-.74s-.45.19-.45.74.16.75.45.75.47-.2.47-.75"/><path class="cls-13" d="M56.31,59.89c-.02-.14-.02-.28,0-.42v-.69h.64v3.14h-.64v-.25c-.15.19-.38.3-.63.3-.55,0-.97-.38-.97-1.19-.08-.57.32-1.09.88-1.17.04,0,.09,0,.14,0,.22-.02.44.06.6.22M56.33,60.15c-.13-.08-.27-.12-.42-.11-.3,0-.5.19-.5.72s.19.75.49.75c.17,0,.33-.08.44-.2v-1.16Z"/><path class="cls-13" d="M57.98,61.02c0,.36.2.56.61.56.24-.02.48-.09.69-.2l.13.44c-.28.14-.58.21-.89.22-.59.06-1.12-.38-1.18-.98,0-.07,0-.14,0-.21-.08-.57.31-1.09.88-1.17.08-.01.16-.01.23,0,.53-.03.98.37,1.01.9,0,.06,0,.12,0,.18v.27h-1.47ZM58.42,60.11c-.31,0-.44.28-.44.55h.86c0-.3-.09-.55-.42-.55"/><path class="cls-13" d="M62.35,62.04c-.93,0-1.41-.6-1.41-1.57s.49-1.57,1.41-1.57c.39-.02.77.08,1.11.27l-.24.49c-.24-.15-.53-.23-.82-.22-.53,0-.82.39-.82,1.08s.28,1.11.82,1.11c.31,0,.61-.11.86-.28l.2.49c-.34.22-.73.33-1.13.33"/><path class="cls-13" d="M63.92,61.99v-3.14h.64v.85c.01.11.01.23,0,.34.16-.2.41-.31.67-.3.69,0,.88.33.88.91v1.41h-.71v-1.35s.01-.09,0-.14c0-.27-.16-.38-.39-.38-.15,0-.3.06-.42.14v1.72l-.67-.08Z"/><path class="cls-13" d="M66.77,61.99v-1.83h-.28v-.39h.91v2.27l-.63-.05ZM66.77,58.85h.64v.55h-.64v-.55Z"/><path class="cls-13" d="M67.98,61.39v-2.62h.63v2.57c0,.2.13.22.38.22v.44h-.34c-.49,0-.66-.25-.66-.64"/><path class="cls-13" d="M69.96,61.02c-.02.29.2.55.49.57.04,0,.08,0,.12,0,.25-.02.49-.09.71-.2l.11.44c-.28.14-.58.21-.89.22-.59.06-1.12-.38-1.18-.98,0-.07,0-.14,0-.21-.08-.57.31-1.09.88-1.17.08-.01.16-.01.23,0,.53-.03.98.37,1.01.9,0,.06,0,.12,0,.18v.27h-1.47ZM70.4,60.11c-.31,0-.44.28-.44.55h.88c0-.3-.11-.55-.44-.55"/><path class="cls-13" d="M38.11,11.4v-3.37h0c0,.42-.14.74-.2.97l-.6,2.4h-1.19l-.67-2.4c0-.24-.13-.55-.2-.97h0v3.37h-.88l.16-3.98h1.41s.45,2.01.71,3.29h0c.28-1.29.82-3.29.82-3.29h1.36l.16,3.98h-.86Z"/><path class="cls-13" d="M39.96,11.4v-2.4h-.34v-.49h1.16v2.9l-.82-.02ZM39.96,7.33h.82v.71h-.82v-.71Z"/><path class="cls-13" d="M43.38,11.4v-1.72c0-.42-.17-.64-.55-.64-.19,0-.37.08-.52.19v2.18h-.82v-2.9h.55l.13.34c.25-.26.6-.4.96-.39.77,0,1.07.42,1.07,1.16v1.79h-.82Z"/><path class="cls-13" d="M45.1,11.4v-2.4h-.34v-.49h1.14v2.9l-.8-.02ZM45.1,7.33h.8v.71h-.8v-.71Z"/><path class="cls-13" d="M47.33,9.27c0,.45,1.32.31,1.32,1.25,0,.53-.41.94-1.19.94-.32,0-.63-.08-.91-.22l.17-.53c.21.13.46.2.71.2.27,0,.45-.14.45-.33,0-.52-1.3-.34-1.3-1.33,0-.42.34-.8,1.16-.8.29,0,.58.04.85.14l-.11.56c-.23-.1-.47-.16-.72-.16-.28,0-.42.11-.42.27Z"/><path class="cls-13" d="M50.4,11.47c-.55,0-.89-.25-.89-.97v-1.49h-.45v-.55h.45v-.5l.8-.24v.74h.8v.55h-.8v1.43c0,.2.09.33.31.33.16,0,.32-.04.47-.11l.11.56c-.24.15-.52.24-.8.25Z"/><path class="cls-13" d="M52.27,10.17c0,.45.27.71.77.71.31-.01.62-.09.89-.24l.16.55c-.36.18-.75.28-1.14.28-.75.11-1.46-.41-1.57-1.16-.02-.13-.02-.27,0-.41-.14-.71.32-1.41,1.03-1.55.13-.03.26-.03.39-.02.67-.03,1.25.49,1.28,1.17,0,.07,0,.13,0,.2v.34l-1.8.13ZM52.83,9.02c-.41,0-.56.34-.56.69h1.1c0-.38-.11-.71-.53-.71v.02Z"/><path class="cls-13" d="M56.47,9.16c-.12-.02-.25-.02-.38,0-.2,0-.39.07-.55.19v2.1h-.8v-2.95h.56l.09.39h0c.14-.27.42-.44.72-.44.11-.01.23-.01.34,0v.71Z"/><path class="cls-13" d="M57.21,11.4v-2.4h-.36v-.49h1.16v2.9l-.8-.02ZM57.21,7.33h.82v.71h-.82v-.71Z"/><path class="cls-13" d="M61.46,9.95c.13.72-.35,1.42-1.07,1.55-.12.02-.24.03-.36.02-.91,0-1.41-.52-1.41-1.57-.12-.73.37-1.43,1.11-1.55.1-.02.2-.02.3-.02.76-.03,1.41.56,1.44,1.32,0,.08,0,.17-.01.25ZM60.63,9.95c0-.69-.22-.94-.6-.94s-.58.25-.58.94.19.96.58.96.6-.33.6-.96Z"/><path class="cls-13" d="M65.36,8.74c-.03-.18-.03-.36,0-.53v-.88h.8v4.08h-.66l-.09-.31c-.19.24-.49.38-.8.38-.67,0-1.24-.47-1.24-1.57-.13-.72.35-1.42,1.08-1.55.07-.01.15-.02.22-.02.28.03.53.18.69.41ZM65.36,9.18c-.17-.1-.36-.15-.55-.14-.39,0-.63.24-.63.91s.24.96.61.96c.21,0,.42-.1.56-.25v-1.47Z"/><path class="cls-13" d="M67.51,10.17c0,.45.28.71.78.71.31-.01.62-.09.89-.24l.14.55c-.35.18-.74.28-1.13.28-.76.07-1.43-.49-1.5-1.25,0-.11,0-.21,0-.32-.14-.71.32-1.41,1.04-1.55.12-.02.25-.03.38-.02.67-.03,1.25.49,1.28,1.17,0,.07,0,.13,0,.2v.34l-1.88.13ZM68.09,9.02c-.41,0-.58.34-.58.69h1.11c0-.38-.13-.71-.53-.71v.02Z"/><path class="cls-13" d="M34.5,16.97v-3.98h2.56v.72h-1.76v.99h1.35v.69h-1.35v1.02h1.76v.64l-2.56-.08Z"/><path class="cls-13" d="M39.38,14.31c-.05-.17-.08-.35-.08-.53v-.88h.82v4.08h-.66l-.09-.33c-.19.25-.48.4-.8.39-.69,0-1.24-.49-1.24-1.57-.13-.72.35-1.42,1.08-1.55.07-.01.15-.02.22-.02.3,0,.58.16.75.41ZM39.3,14.73c-.17-.09-.36-.14-.55-.14-.38,0-.61.25-.61.93s.22.96.61.96c.21,0,.41-.09.55-.25v-1.49Z"/><path class="cls-13" d="M42.94,16.97l-.11-.36c-.24.27-.59.43-.96.42-.75,0-1.1-.41-1.1-1.21v-1.76h.82v1.76c0,.45.16.61.52.61.2,0,.39-.06.55-.17v-2.2h.82v2.9h-.53Z"/><path class="cls-13" d="M46.56,16.85c-.32.17-.68.26-1.05.27-.73.07-1.39-.46-1.46-1.19-.01-.12,0-.25.02-.37-.12-.73.37-1.43,1.11-1.55.11-.02.22-.02.34-.01.36-.02.72.06,1.03.24l-.2.52c-.24-.12-.5-.18-.77-.17-.41,0-.67.27-.67.93s.25.91.69.91c.29,0,.57-.08.82-.22l.16.67Z"/><path class="cls-13" d="M48.96,16.97l-.13-.34c-.21.27-.54.42-.88.41-.51.04-.96-.33-1-.84,0-.03,0-.07,0-.1,0-.53.41-.85,1.13-.85h.64v-.16c0-.36-.22-.49-.53-.49-.31,0-.62.07-.91.2l-.2-.55c.38-.16.78-.24,1.19-.24.86,0,1.24.38,1.24,1.11v1.83h-.55ZM48.73,15.7h-.5c-.33,0-.49.16-.49.38s.14.42.45.42c.19,0,.38-.07.53-.19v-.61Z"/><path class="cls-13" d="M52.61,16.85c-.32.17-.67.26-1.03.27-.73.07-1.39-.46-1.46-1.19-.01-.12,0-.25.02-.37-.12-.73.37-1.43,1.11-1.55.11-.02.21-.02.32-.02.36-.02.72.06,1.03.24l-.2.52c-.23-.12-.49-.18-.75-.17-.42,0-.69.27-.69.93s.25.91.69.91c.29,0,.57-.08.82-.22l.16.67Z"/><path class="cls-13" d="M53.4,16.97v-2.34l-.36-.08v-.49h1.16v2.9h-.8ZM53.4,12.89h.82v.71h-.82v-.71Z"/><path class="cls-13" d="M57.65,15.51c.13.72-.35,1.42-1.07,1.55-.12.02-.24.03-.36.02-.91,0-1.41-.53-1.41-1.57-.08-.74.46-1.4,1.2-1.48.07,0,.14,0,.21,0,.76-.03,1.4.57,1.43,1.33,0,.05,0,.11,0,.16ZM55.48,13.71v-.45l1.57-.41.11.56-1.68.3ZM56.82,15.59c0-.69-.22-.94-.6-.94s-.58.25-.58.94.19.94.58.94.6-.33.6-1.02v.08Z"/><path class="cls-13" d="M60.13,16.97v-1.69c0-.44-.17-.64-.55-.64-.19.01-.37.07-.53.17v2.2h-.8v-2.93h.55l.13.33c.25-.25.6-.39.96-.38.77,0,1.07.42,1.07,1.16v1.79h-.82Z"/><polygon class="cls-19" points="1.1 90.09 4.65 147.62 312.49 147.62 316.04 85.75 1.1 90.09"/><text class="cls-12" transform="translate(17.4 120.39)"><tspan x="0" y="0">SISTEMA DE GESTION ITEGRAL</tspan></text><rect class="cls-9" x=".57" y="70.55" width="316" height="3"/><polygon class="cls-18" points="247.09 83.88 269.93 82.51 294.24 79.78 270.25 85.68 247.09 83.88"/><path class="cls-22" d="M247.09,83.88s8.98,13.62,9.23,13.28,13.96-11.48,13.96-11.48l-23.19-1.8Z"/><polygon class="cls-17" points="286.5 95.16 294.24 79.78 270.25 85.68 286.5 95.16"/><polygon class="cls-2" points="256.23 97.16 270.25 85.68 286.5 95.16 256.23 97.16"/><polygon class="cls-24" points="260.55 84.92 269.17 69.85 268.57 85.55 260.55 84.92"/><polyline class="cls-11" points="271.67 85.31 281 83.04 269.21 69.8"/><polygon class="cls-19" points="268.57 85.55 270.25 85.68 271.67 85.34 269.21 69.8 268.57 85.55"/><polygon class="cls-9" points="230 99.9 295.1 93.39 294.24 105.6 230 99.9"/><path class="cls-13" d="M92.19,128.92c0-.26.09-.48.27-.66.19-.18.41-.27.66-.27h2.91c1.28,0,2.37.45,3.27,1.36.91.9,1.36,1.99,1.36,3.27s-.46,2.37-1.36,3.27c-.9.91-1.99,1.36-3.27,1.36h-2.91c-.26,0-.48-.09-.66-.28-.18-.18-.27-.39-.27-.65v-7.42ZM94.05,135.41h1.99c.77,0,1.42-.27,1.96-.82.55-.54.82-1.19.82-1.96s-.27-1.42-.82-1.96c-.54-.55-1.19-.82-1.96-.82h-1.99v5.56Z"/><path class="cls-13" d="M110.44,135.91c.11.23.13.47.05.72-.08.24-.23.42-.46.53-.13.07-.27.11-.41.11-.39,0-.67-.17-.83-.52l-.68-1.34h-4.41l-.68,1.34c-.11.23-.29.38-.53.46-.25.08-.49.06-.72-.05-.23-.11-.38-.29-.46-.53-.08-.25-.06-.49.05-.72l3.71-7.42c.16-.31.44-.46.83-.46s.66.15.82.46l3.71,7.42ZM107.18,133.55l-1.27-2.57-1.28,2.57h2.56Z"/><path class="cls-13" d="M110.48,129.84c-.26,0-.48-.09-.66-.26-.18-.19-.27-.41-.27-.66s.09-.48.27-.66c.19-.18.41-.27.66-.27h6.36c.26,0,.48.09.66.27.18.19.26.41.26.66s-.09.48-.26.66c-.19.18-.41.26-.66.26h-2.25v6.49c0,.26-.09.47-.27.65-.19.19-.41.28-.66.28s-.47-.09-.65-.28c-.19-.18-.28-.39-.28-.65v-6.49h-2.25Z"/><path class="cls-13" d="M125.95,135.91c.11.23.13.47.05.72-.08.24-.23.42-.46.53-.13.07-.27.11-.41.11-.39,0-.67-.17-.83-.52l-.68-1.34h-4.41l-.68,1.34c-.11.23-.29.38-.53.46-.25.08-.49.06-.72-.05-.23-.11-.38-.29-.46-.53-.08-.25-.06-.49.05-.72l3.71-7.42c.16-.31.44-.46.83-.46s.66.15.82.46l3.71,7.42ZM122.69,133.55l-1.27-2.57-1.28,2.57h2.56Z"/><path class="cls-13" d="M143.83,128.08c.23.11.38.3.46.54.08.24.06.47-.05.7l-3.71,7.42c-.17.34-.44.52-.82.52s-.67-.17-.83-.52l-1.15-2.32-1.17,2.32c-.17.34-.44.52-.82.52s-.67-.17-.83-.52l-3.71-7.42c-.11-.23-.13-.46-.05-.7.08-.25.23-.43.46-.54s.47-.13.72-.04c.24.08.41.23.53.46l2.89,5.75.94-1.89.22-.43c.34-.68,1.31-.68,1.65,0l.21.43.95,1.89,2.87-5.75c.11-.23.29-.38.53-.46.25-.09.49-.07.71.04Z"/><path class="cls-13" d="M152.6,135.91c.11.23.13.47.05.72-.08.24-.23.42-.46.53-.13.07-.27.11-.41.11-.39,0-.67-.17-.83-.52l-.68-1.34h-4.41l-.68,1.34c-.11.23-.29.38-.53.46-.25.08-.49.06-.72-.05-.23-.11-.38-.29-.46-.53-.08-.25-.06-.49.05-.72l3.71-7.42c.16-.31.44-.46.83-.46s.66.15.82.46l3.71,7.42ZM149.34,133.55l-1.27-2.57-1.28,2.57h2.56Z"/><path class="cls-13" d="M153.83,128.92c0-.26.09-.48.27-.66.19-.18.41-.27.66-.27h3.97c.91,0,1.69.32,2.34.97.64.65.97,1.43.97,2.34,0,.6-.15,1.16-.45,1.67-.3.49-.7.89-1.19,1.18l1.4,1.56c.17.19.25.42.24.68-.02.26-.12.47-.3.64-.18.16-.38.24-.62.24-.27,0-.5-.1-.69-.3l-2.11-2.34h-2.64v1.72c0,.26-.09.47-.26.65-.19.19-.41.28-.66.28s-.48-.09-.66-.28c-.18-.18-.27-.39-.27-.65v-7.42ZM155.69,132.76h3.05c.4,0,.74-.14,1.03-.42.28-.29.42-.64.42-1.03s-.14-.75-.42-1.03c-.29-.28-.64-.42-1.03-.42h-3.05v2.91Z"/><path class="cls-13" d="M164.31,137.26c-.26,0-.48-.09-.66-.26-.18-.19-.27-.41-.27-.66v-7.42c0-.26.09-.48.27-.66.19-.18.41-.27.66-.27h6.36c.26,0,.48.09.66.27.18.19.27.41.27.66s-.09.48-.27.66c-.19.18-.41.26-.66.26h-5.43v1.85h4.9c.26,0,.47.09.65.27.19.19.28.41.28.66s-.09.48-.28.66c-.18.18-.39.26-.65.26h-4.9v1.85h5.43c.26,0,.48.09.66.27.18.19.27.41.27.66s-.09.48-.27.66c-.19.18-.41.26-.66.26h-6.36Z"/><path class="cls-13" d="M173.85,127.99c.26,0,.48.09.66.27.18.19.26.41.26.66v2.78h4.5v-2.78c0-.26.09-.48.26-.66.19-.18.41-.27.66-.27s.48.09.66.27c.18.19.27.41.27.66v7.42c0,.26-.09.48-.27.66-.19.18-.41.26-.66.26s-.48-.09-.66-.26c-.18-.19-.26-.41-.26-.66v-2.78h-4.5v2.78c0,.26-.09.48-.26.66-.19.18-.41.26-.66.26s-.48-.09-.66-.26c-.18-.19-.27-.41-.27-.66v-7.42c0-.26.09-.48.27-.66.19-.18.41-.27.66-.27Z"/><path class="cls-13" d="M187.09,137.26c-1.28,0-2.37-.45-3.27-1.36-.91-.9-1.36-1.99-1.36-3.27s.45-2.37,1.36-3.27c.9-.91,1.99-1.36,3.27-1.36s2.37.45,3.27,1.36c.91.9,1.36,1.99,1.36,3.27s-.45,2.37-1.36,3.27c-.9.91-1.99,1.36-3.27,1.36ZM187.09,129.84c-.77,0-1.42.27-1.96.82-.55.54-.82,1.19-.82,1.96s.27,1.42.82,1.96c.54.55,1.19.82,1.96.82s1.42-.27,1.96-.82c.55-.54.82-1.19.82-1.96s-.27-1.42-.82-1.96c-.54-.55-1.19-.82-1.96-.82Z"/><path class="cls-13" d="M192.92,128.92c0-.26.09-.48.26-.66.19-.18.41-.27.66-.27s.48.09.66.27c.18.19.27.41.27.66v4.24c0,.62.22,1.15.66,1.59.44.44.97.66,1.59.66s1.15-.22,1.59-.66c.44-.44.66-.97.66-1.59v-4.24c0-.26.09-.48.27-.66.19-.18.41-.27.66-.27s.48.09.66.27c.18.19.27.41.27.66v4.24c0,1.13-.4,2.1-1.21,2.9-.8.8-1.77,1.21-2.9,1.21s-2.1-.4-2.9-1.21c-.8-.8-1.21-1.77-1.21-2.9v-4.24Z"/><path class="cls-13" d="M206.32,135.41c.63,0,1.13-.09,1.52-.26.4-.17.6-.39.6-.66v-.08s-.02-.07-.04-.11c-.04-.09-.11-.17-.24-.25-.34-.23-.99-.39-1.93-.49-2.41-.26-3.62-1.18-3.62-2.78,0-.76.3-1.4.9-1.91.67-.58,1.61-.87,2.81-.87,1.45,0,2.58.36,3.39,1.09.19.17.3.38.32.64.02.26-.06.48-.24.66-.17.19-.38.3-.64.32-.26.02-.48-.06-.66-.24-.19-.17-.46-.3-.81-.41-.41-.13-.86-.2-1.36-.2-.57,0-1.02.08-1.35.25-.34.17-.5.39-.5.68v.08s.02.08.03.12c.04.1.12.19.23.26.3.23.87.38,1.7.46h.11s.12.03.12.03l.25.04c.2.03.4.06.58.09.49.1.92.23,1.28.4,1.02.47,1.54,1.21,1.54,2.23,0,.74-.3,1.36-.89,1.87-.71.61-1.74.91-3.09.91-1.57,0-2.79-.37-3.64-1.1-.19-.17-.3-.38-.33-.62-.02-.26.06-.48.23-.68.17-.19.38-.3.64-.33.25-.02.47.06.66.23.21.18.51.32.9.44.46.14.98.21,1.55.21Z"/><path class="cls-13" d="M212.55,137.26c-.26,0-.48-.09-.66-.26-.18-.19-.27-.41-.27-.66v-7.42c0-.26.09-.48.27-.66.19-.18.41-.27.66-.27h6.36c.26,0,.48.09.66.27.18.19.27.41.27.66s-.09.48-.27.66c-.19.18-.41.26-.66.26h-5.43v1.85h4.9c.26,0,.47.09.65.27.19.19.28.41.28.66s-.09.48-.28.66c-.18.18-.39.26-.65.26h-4.9v1.85h5.43c.26,0,.48.09.66.27.18.19.27.41.27.66s-.09.48-.27.66c-.19.18-.41.26-.66.26h-6.36Z"/></svg>