<?xml version="1.0" encoding="UTF-8"?>
<svg xmlns="http://www.w3.org/2000/svg" id="Capa_1" data-name="Capa 1" viewBox="0 0 290.07 149.4">
  <defs>
    <style>.cls-1{fill:#d3d7ef;}.cls-2{fill:#218f9c;}.cls-3{fill:#ffea93;}.cls-4{fill:#9bd5bb;}.cls-5{fill:#666664;}.cls-6{fill:#e01f1c;}.cls-7{fill:#48b900;}.cls-8{fill:#0060a7;}.cls-9{fill:#ffce00;}.cls-10{fill:#76b629;}.cls-11{fill:#676765;}.cls-12{fill:#6a6a69;}.cls-13{fill:#6a6a68;}.cls-14{fill:#d3d3d2;}.cls-15{fill:#fefefe;}.cls-16{fill:#fefefd;}.cls-17{fill:#f1f7f1;}.cls-18{fill:#fdfdfd;}.cls-19{fill:#0069b5;}.cls-20{fill:#ff3b46;}.cls-21{fill:#fff;}.cls-22{fill:#286175;}.cls-23{fill:#24a3c7;}.cls-24{fill:#75c4d3;}.cls-25{fill:#187c91;}.cls-26{fill:#7cc6d8;}.cls-27{fill:#9cd4e0;}.cls-28{fill:#29768f;}.cls-29{fill:#67aa90;}</style>
  </defs>
  <title>sim-2</title>
  <rect class="cls-1" x="8.72" y="75.57" width="268.56" height="1.74"></rect>
  <polygon class="cls-2" points="0 87.08 3.27 140.06 286.79 140.06 290.07 83.08 0 87.08"></polygon>
  <polygon class="cls-3" points="217.53 88.46 263.07 89.67 262.93 70.83 217.31 71.92 217.53 88.46"></polygon>
  <path class="cls-2" d="M224.68,83.34c1.22,0,2.13,0,3,0,1.3,0,1.49.31,1.53,1.7,0,1.11-.47,1.46-1.52,1.44-2.2,0-4.4,0-6.6,0-1.46,0-2.1-1.09-1.56-2.5.64-1.71,2.26-2.22,3.59-3.1a9.34,9.34,0,0,0,2-1.49,1.73,1.73,0,0,0,.31-2.08,1.54,1.54,0,0,0-1.9-.64,1.42,1.42,0,0,0-1.06,1.63c.06,1.15-.63,1.5-1.67,1.46s-1.47-.44-1.47-1.53a4.48,4.48,0,0,1,2.79-4.4,4.68,4.68,0,0,1,5,.7,4.5,4.5,0,0,1,1.52,4.72C228.24,81.15,226.72,82.3,224.68,83.34Z"></path>
  <path class="cls-2" d="M245.87,83.34c1.2,0,2.1,0,3,0,1.31,0,1.5.31,1.54,1.69,0,1.11-.46,1.47-1.51,1.45-2.21,0-4.41,0-6.61,0-1.47,0-2.1-1.08-1.57-2.5.64-1.7,2.26-2.21,3.59-3.09a9.39,9.39,0,0,0,2-1.5,1.71,1.71,0,0,0,.31-2.08,1.55,1.55,0,0,0-1.89-.65,1.41,1.41,0,0,0-1.06,1.63c.06,1.15-.63,1.51-1.67,1.47s-1.47-.42-1.47-1.53a4.46,4.46,0,0,1,2.78-4.4,4.68,4.68,0,0,1,5,.69,4.53,4.53,0,0,1,1.54,4.73C249.41,81.16,247.87,82.28,245.87,83.34Z"></path>
  <path class="cls-2" d="M230,79.91a8.24,8.24,0,0,1,.85-4.21c.9-2,2.54-2.41,4.49-2.3a3.82,3.82,0,0,1,3.55,2.46c1.2,2.93,1.37,5.89-.38,8.66a4.45,4.45,0,0,1-7.62-.38A7.24,7.24,0,0,1,230,79.91Zm3.1-.13a7,7,0,0,0,.24,2.31,1.62,1.62,0,0,0,1.49,1.26,1.46,1.46,0,0,0,1.47-1.14,6.53,6.53,0,0,0-.1-4.86,1.35,1.35,0,0,0-1.38-.88,1.38,1.38,0,0,0-1.28.82A4.35,4.35,0,0,0,233.08,79.78Z"></path>
  <path class="cls-2" d="M260.6,80.14c0,1.71.06,3.48,0,5.11,0,.9-.45,1.24-1.23,1.23s-1.67.12-1.9-.89a7.55,7.55,0,0,1-.06-1.26c0-.79,0-1.6,0-1.6h-1.89c-.9,0-2.09.08-3,0-1.48-.09-1.73-.6-1.53-1.88.29-1.91,1-4.32,1.56-6.45a1.23,1.23,0,0,1,1.61-1c.83.19,1.5.46,1.55,1a27.14,27.14,0,0,1-1,4.38c-.13.55-.24,1-.24,1h2.9s0-.4,0-.81c0-1.22,0-2.62,0-3.84,0-.61,0-1.1.25-1.37.57-.62,2.18-.3,2.44-.15a1.16,1.16,0,0,1,.48,1.14C260.59,76.55,260.6,78.35,260.6,80.14Z"></path>
  <polygon class="cls-4" points="13.76 138.21 14.96 149.4 273.21 149.4 273.21 136.85 13.76 138.21"></polygon>
  <rect class="cls-3" x="216.83" y="94.69" width="1.56" height="3.89" rx="0.78" transform="translate(141.14 -128.85) rotate(47.32)"></rect>
  <path class="cls-3" d="M54.61,108a4.64,4.64,0,0,0,1.89-.33c.49-.2.74-.48.74-.82v-.1a1.12,1.12,0,0,0-.05-.13.79.79,0,0,0-.3-.31,5.87,5.87,0,0,0-2.4-.61Q50,105.17,50,102.2a3,3,0,0,1,1.12-2.37,5.17,5.17,0,0,1,3.49-1.08,6.08,6.08,0,0,1,4.2,1.35,1.07,1.07,0,0,1,.4.79,1.05,1.05,0,0,1-.3.82,1.1,1.1,0,0,1-.79.39,1,1,0,0,1-.82-.29,2.67,2.67,0,0,0-1-.51,5.26,5.26,0,0,0-1.69-.25,3.76,3.76,0,0,0-1.68.31.93.93,0,0,0-.62.84v.1l0,.15a.85.85,0,0,0,.28.33,4.44,4.44,0,0,0,2.1.57l.13,0H55l.31.05c.26,0,.5.07.73.12a6.93,6.93,0,0,1,1.59.49,2.89,2.89,0,0,1,1.91,2.76,2.94,2.94,0,0,1-1.1,2.32,5.7,5.7,0,0,1-3.83,1.13,6.74,6.74,0,0,1-4.52-1.36,1.16,1.16,0,0,1-.41-.77,1.11,1.11,0,0,1,.27-.84,1.18,1.18,0,0,1,.79-.41,1.12,1.12,0,0,1,.83.28,3,3,0,0,0,1.11.54A6.39,6.39,0,0,0,54.61,108Z"></path>
  <path class="cls-3" d="M62.33,110.25a1.13,1.13,0,0,1-.82-.32,1.16,1.16,0,0,1-.33-.83V99.9a1.15,1.15,0,1,1,2.3,0v9.2a1.16,1.16,0,0,1-.33.83A1.13,1.13,0,0,1,62.33,110.25Z"></path>
  <path class="cls-3" d="M70.09,108a4.58,4.58,0,0,0,1.89-.33c.49-.2.74-.48.74-.82v-.1a1.12,1.12,0,0,0,0-.13.67.67,0,0,0-.3-.31,5.78,5.78,0,0,0-2.4-.61q-4.48-.48-4.48-3.45a3,3,0,0,1,1.12-2.37,5.14,5.14,0,0,1,3.48-1.08,6.1,6.1,0,0,1,4.21,1.35,1.1,1.1,0,0,1,.39.79,1,1,0,0,1-.29.82,1.12,1.12,0,0,1-.79.39,1,1,0,0,1-.82-.29,2.81,2.81,0,0,0-1-.51,5.26,5.26,0,0,0-1.69-.25,3.79,3.79,0,0,0-1.68.31,1,1,0,0,0-.62.84v.1l0,.15a1,1,0,0,0,.28.33,4.44,4.44,0,0,0,2.1.57l.14,0h.14l.32.05c.25,0,.49.07.72.12a6.93,6.93,0,0,1,1.59.49A2.88,2.88,0,0,1,75,106.8a2.94,2.94,0,0,1-1.1,2.32,5.69,5.69,0,0,1-3.83,1.13,6.74,6.74,0,0,1-4.52-1.36,1.16,1.16,0,0,1-.41-.77,1.12,1.12,0,0,1,.28-.84,1.16,1.16,0,0,1,.79-.41,1.1,1.1,0,0,1,.82.28,3,3,0,0,0,1.12.54A6.37,6.37,0,0,0,70.09,108Z"></path>
  <path class="cls-3" d="M76.83,101.05a1.15,1.15,0,1,1,0-2.3h7.89a1.15,1.15,0,1,1,0,2.3h-2.8v8a1.13,1.13,0,0,1-1.15,1.15,1.07,1.07,0,0,1-.8-.34,1.08,1.08,0,0,1-.35-.81v-8Z"></path>
  <path class="cls-3" d="M88.33,110.25a1.15,1.15,0,0,1-.82-.32,1.16,1.16,0,0,1-.33-.83V99.9a1.14,1.14,0,0,1,.33-.82,1.16,1.16,0,0,1,.82-.33h7.89a1.16,1.16,0,0,1,.83.33,1.18,1.18,0,0,1,0,1.64,1.16,1.16,0,0,1-.83.33H89.49v2.3h6.08a1.09,1.09,0,0,1,.8.33,1.14,1.14,0,0,1,0,1.64,1.09,1.09,0,0,1-.8.33H89.49V108h6.73a1.15,1.15,0,1,1,0,2.3Z"></path>
  <path class="cls-3" d="M110,110.25a1.13,1.13,0,0,1-.82-.32,1.16,1.16,0,0,1-.33-.83v-5.88L106,106.85a1.05,1.05,0,0,1-.9.43,1.06,1.06,0,0,1-.9-.43l-2.88-3.63v5.88a1.16,1.16,0,0,1-.33.83,1.21,1.21,0,0,1-1.64,0,1.16,1.16,0,0,1-.33-.83V99.9a1.06,1.06,0,0,1,.77-1.09,1,1,0,0,1,1.28.38l4,5.1,4-5.1a1.08,1.08,0,0,1,1.28-.38,1.06,1.06,0,0,1,.77,1.09v9.2a1.16,1.16,0,0,1-.33.83A1.13,1.13,0,0,1,110,110.25Z"></path>
  <path class="cls-3" d="M124,108.58a1.19,1.19,0,0,1,.07.89,1.09,1.09,0,0,1-.58.65,1,1,0,0,1-.51.13,1.05,1.05,0,0,1-1-.64l-.84-1.66H115.6l-.83,1.66a1.14,1.14,0,0,1-.66.58,1.1,1.1,0,0,1-.89-.07,1.09,1.09,0,0,1-.58-.65,1.19,1.19,0,0,1,.07-.89l4.6-9.21a1.08,1.08,0,0,1,1-.57,1.06,1.06,0,0,1,1,.57Zm-4-2.93-1.58-3.19-1.6,3.19Z"></path>
  <path class="cls-3" d="M131.25,99.9a1.13,1.13,0,0,1,1.15-1.15H136a5.75,5.75,0,0,1,0,11.5H132.4a1.14,1.14,0,0,1-1.15-1.15Zm2.3,8H136a3.45,3.45,0,0,0,0-6.9h-2.47Z"></path>
  <path class="cls-3" d="M144.57,110.25a1.11,1.11,0,0,1-1.16-1.15V99.9a1.14,1.14,0,0,1,.33-.82,1.16,1.16,0,0,1,.83-.33h7.88a1.16,1.16,0,0,1,.83.33,1.18,1.18,0,0,1,0,1.64,1.16,1.16,0,0,1-.83.33h-6.73v2.3h6.08a1.09,1.09,0,0,1,.8.33,1.14,1.14,0,0,1,0,1.64,1.09,1.09,0,0,1-.8.33h-6.08V108h6.73a1.15,1.15,0,1,1,0,2.3Z"></path>
  <path class="cls-3" d="M170.7,103.35a1.13,1.13,0,0,1,1.15,1.15,5.74,5.74,0,1,1-5.75-5.75,5.57,5.57,0,0,1,3.7,1.35,1.2,1.2,0,0,1,.41.79,1.14,1.14,0,0,1-.27.83,1.07,1.07,0,0,1-.79.4,1.09,1.09,0,0,1-.83-.26,3.34,3.34,0,0,0-2.22-.81,3.47,3.47,0,0,0-3.45,3.45,3.25,3.25,0,0,0,1,2.43,3.44,3.44,0,0,0,4.44.38,3.38,3.38,0,0,0,1.25-1.66h-2.27a1.13,1.13,0,0,1-.82-.34,1.1,1.1,0,0,1-.33-.81,1.14,1.14,0,0,1,.33-.82,1.16,1.16,0,0,1,.82-.33Z"></path>
  <path class="cls-3" d="M174.64,110.25a1.15,1.15,0,0,1-.82-.32,1.16,1.16,0,0,1-.33-.83V99.9a1.14,1.14,0,0,1,.33-.82,1.16,1.16,0,0,1,.82-.33h7.89a1.16,1.16,0,0,1,.83.33,1.21,1.21,0,0,1,0,1.64,1.16,1.16,0,0,1-.83.33h-6.74v2.3h6.09a1.09,1.09,0,0,1,.8.33,1.14,1.14,0,0,1,0,1.64,1.09,1.09,0,0,1-.8.33h-6.09V108h6.74a1.16,1.16,0,0,1,.83.33,1.15,1.15,0,0,1-.83,2Z"></path>
  <path class="cls-3" d="M189.63,108a4.66,4.66,0,0,0,1.9-.33c.49-.2.73-.48.73-.82v-.1a.93.93,0,0,0,0-.13.79.79,0,0,0-.3-.31,5.87,5.87,0,0,0-2.4-.61q-4.49-.48-4.49-3.45a3,3,0,0,1,1.12-2.37,5.14,5.14,0,0,1,3.48-1.08,6.1,6.1,0,0,1,4.21,1.35,1.15,1.15,0,0,1,.4.79,1.05,1.05,0,0,1-.3.82,1.1,1.1,0,0,1-.79.39,1,1,0,0,1-.82-.29,2.67,2.67,0,0,0-1-.51,5.33,5.33,0,0,0-1.7-.25,3.71,3.71,0,0,0-1.67.31,1,1,0,0,0-.63.84v.1s0,.1,0,.15a.78.78,0,0,0,.28.33,4.44,4.44,0,0,0,2.1.57l.13,0H190l.31.05c.25,0,.49.07.72.12a6.87,6.87,0,0,1,1.6.49,3,3,0,0,1,.8,5.08,5.67,5.67,0,0,1-3.83,1.13,6.76,6.76,0,0,1-4.52-1.36,1.2,1.2,0,0,1-.41-.77,1.12,1.12,0,0,1,.28-.84,1.16,1.16,0,0,1,.79-.41,1.09,1.09,0,0,1,.82.28,3.16,3.16,0,0,0,1.12.54A6.37,6.37,0,0,0,189.63,108Z"></path>
  <path class="cls-3" d="M196.37,101.05a1.16,1.16,0,0,1-.82-.33,1.18,1.18,0,0,1,0-1.64,1.16,1.16,0,0,1,.82-.33h7.89a1.15,1.15,0,1,1,0,2.3h-2.79v8a1.14,1.14,0,0,1-1.15,1.15,1.16,1.16,0,0,1-1.15-1.15v-8Z"></path>
  <path class="cls-3" d="M207.88,110.25a1.13,1.13,0,0,1-.82-.32,1.16,1.16,0,0,1-.33-.83V99.9a1.15,1.15,0,1,1,2.3,0v9.2a1.16,1.16,0,0,1-.33.83A1.13,1.13,0,0,1,207.88,110.25Z"></path>
  <path class="cls-3" d="M216.43,110.25a5.77,5.77,0,1,1,4.06-1.69A5.48,5.48,0,0,1,216.43,110.25Zm0-9.2A3.48,3.48,0,0,0,213,104.5a3.25,3.25,0,0,0,1,2.43,3.42,3.42,0,0,0,4.87,0,3.45,3.45,0,0,0-2.43-5.88Z"></path>
  <path class="cls-3" d="M223.82,99.9a1.08,1.08,0,0,1,.76-1.09,1.09,1.09,0,0,1,1.27.33l5.86,6.86V99.9a1.1,1.1,0,0,1,.33-.81,1.15,1.15,0,0,1,2,.81v9.2a1.07,1.07,0,0,1-.75,1.09,1.25,1.25,0,0,1-.4.06,1.07,1.07,0,0,1-.87-.41L226.12,103v6.09a1.15,1.15,0,0,1-2,.81,1.1,1.1,0,0,1-.33-.81Z"></path>
  <path class="cls-3" d="M104.34,130a1.16,1.16,0,0,1-.83-.33,1.13,1.13,0,0,1-.32-.82v-9.21a1.15,1.15,0,0,1,.32-.82,1.16,1.16,0,0,1,2,.82v9.21a1.14,1.14,0,0,1-.33.82A1.16,1.16,0,0,1,104.34,130Z"></path>
  <path class="cls-3" d="M107.79,119.62a1.15,1.15,0,0,1,2-.75l5.87,6.85v-6.1a1.09,1.09,0,0,1,.33-.8,1.14,1.14,0,0,1,1.64,0,1.09,1.09,0,0,1,.33.8v9.21a1,1,0,0,1-.76,1.08,1,1,0,0,1-.39.07,1.1,1.1,0,0,1-.87-.41l-5.87-6.84v6.1a1.06,1.06,0,0,1-.33.8,1.14,1.14,0,0,1-1.64,0,1.06,1.06,0,0,1-.33-.8Z"></path>
  <path class="cls-3" d="M120.44,120.77a1.15,1.15,0,0,1-.82-.32,1.16,1.16,0,0,1,.82-2h7.89a1.16,1.16,0,0,1,.83.33,1.22,1.22,0,0,1,0,1.65,1.15,1.15,0,0,1-.83.32h-2.79v8.06a1.06,1.06,0,0,1-.33.8,1.12,1.12,0,0,1-.82.35,1.08,1.08,0,0,1-.81-.35,1,1,0,0,1-.34-.8v-8.06Z"></path>
  <path class="cls-3" d="M132,130a1.13,1.13,0,0,1-1.15-1.15v-9.21a1.16,1.16,0,0,1,.33-.82,1.14,1.14,0,0,1,.82-.33h7.89a1.14,1.14,0,0,1,.82.33,1.2,1.2,0,0,1,0,1.65,1.13,1.13,0,0,1-.82.32H133.1v2.31h6.08a1.15,1.15,0,0,1,.81,2,1.1,1.1,0,0,1-.81.33H133.1v2.3h6.74a1.15,1.15,0,1,1,0,2.3Z"></path>
  <path class="cls-3" d="M152.33,123.08a1.11,1.11,0,0,1,1.15,1.15,5.73,5.73,0,1,1-5.75-5.76,5.57,5.57,0,0,1,3.7,1.35,1.16,1.16,0,0,1,.41.79,1.19,1.19,0,0,1-.26.84,1.12,1.12,0,0,1-.79.39,1,1,0,0,1-.84-.26,3.34,3.34,0,0,0-2.22-.81,3.46,3.46,0,0,0,0,6.91,3.45,3.45,0,0,0,3.25-2.3h-2.26a1.14,1.14,0,0,1-.83-.35,1.09,1.09,0,0,1-.32-.8,1.15,1.15,0,0,1,.32-.83,1.2,1.2,0,0,1,.83-.32Z"></path>
  <path class="cls-3" d="M155.13,119.62a1.19,1.19,0,0,1,.32-.82,1.16,1.16,0,0,1,.83-.33h4.93a4.11,4.11,0,0,1,3.55,6.18,4.17,4.17,0,0,1-1.48,1.47l1.74,1.94a1.17,1.17,0,0,1,.3.83,1.16,1.16,0,0,1-1.15,1.09,1.13,1.13,0,0,1-.86-.38l-2.61-2.91h-3.27v2.14a1.06,1.06,0,0,1-.33.8,1.15,1.15,0,0,1-1.65,0,1.09,1.09,0,0,1-.32-.8Zm2.3,4.77h3.78a1.74,1.74,0,0,0,1.28-.53,1.81,1.81,0,0,0-1.28-3.09h-3.78Z"></path>
  <path class="cls-3" d="M177.46,128.3a1.11,1.11,0,0,1,.07.89,1.08,1.08,0,0,1-.58.66,1,1,0,0,1-.51.13,1.06,1.06,0,0,1-1-.64l-.84-1.66H169.1l-.84,1.66a1.1,1.1,0,0,1-.66.57,1.15,1.15,0,0,1-.89-.06,1.1,1.1,0,0,1-.57-.66,1.15,1.15,0,0,1,.06-.89l4.61-9.2a1.2,1.2,0,0,1,2.05,0Zm-4-2.92-1.58-3.19-1.59,3.19Z"></path>
  <path class="cls-3" d="M179,119.62a1.09,1.09,0,0,1,.33-.8,1.14,1.14,0,0,1,1.64,0,1.09,1.09,0,0,1,.33.8v8.06h5.43a1.13,1.13,0,0,1,1.15,1.15,1.06,1.06,0,0,1-.33.8,1.12,1.12,0,0,1-.82.35h-6.58a1.12,1.12,0,0,1-.82-.35,1.06,1.06,0,0,1-.33-.8Z"></path>
  <path class="cls-5" d="M107.3,34.4c.15,4.19.1,8.38.12,12.57,0,.87,0,1.74,0,2.61a.69.69,0,0,1-.58.77,6.8,6.8,0,0,1-2.91,0c-.42-.09-.55-.38-.55-.8,0-1.75,0-3.5,0-5.26,0-2.26,0-4.53,0-6.8,0-2.47,0-4.93-.06-7.4A1.48,1.48,0,0,1,105,28.41c.93,0,1.86-.08,2.79,0a2.41,2.41,0,0,1,2.06,1.24c.82,1.44,1.59,2.91,2.38,4.37,1.76,3.26,3.54,6.51,5.09,9.88l.05.08c0-.81,0-1.63,0-2.46,0-1.88-.05-3.75-.07-5.63,0-2.24,0-4.47,0-6.71,0-.38.13-.65.49-.74a6.14,6.14,0,0,1,3-.05.65.65,0,0,1,.5.73c0,3.25.06,6.49.08,9.73,0,2.21,0,4.41,0,6.62,0,1,0,2.11,0,3.16a1.51,1.51,0,0,1-1.59,1.72c-.72.06-1.45,0-2.18,0a2.5,2.5,0,0,1-2.27-1.31c-.82-1.35-1.53-2.77-2.26-4.16-1.75-3.31-3.63-6.54-5.21-9.92-.19-.41-.36-.83-.54-1.24,0,0-.06-.07-.1-.09s0,0,0,0A2.18,2.18,0,0,0,107.3,34.4Z"></path>
  <path class="cls-5" d="M176.16,43.35v4.29a1.38,1.38,0,0,1-1.11,1.6,17.23,17.23,0,0,1-9.66.81,9.24,9.24,0,0,1-7.37-6.9,13.92,13.92,0,0,1,.24-8.61,9.81,9.81,0,0,1,7.93-6.66,14.21,14.21,0,0,1,7.75.58c2.05.77,2.19,1.12,2.18,3.1a6.9,6.9,0,0,1-.08,1q-.16.91-1,.48a16.41,16.41,0,0,0-2.4-1.13,9.77,9.77,0,0,0-5.13-.49,6.32,6.32,0,0,0-5.09,4.75,10,10,0,0,0,.15,6.14,6.08,6.08,0,0,0,5.94,4.3,6.48,6.48,0,0,0,2.82-.5.48.48,0,0,0,.34-.52c0-1.44,0-2.89,0-4.33,0-.3-.08-.4-.39-.39-1.13,0-2.27,0-3.4,0-.63,0-.79-.12-.91-.74a5.6,5.6,0,0,1,0-2,.66.66,0,0,1,.71-.64c2.46,0,4.91,0,7.36,0,.63,0,1,.56,1.05,1.36s0,1.65,0,2.47v2.05Z"></path>
  <path class="cls-5" d="M178.94,44.92c0-1.85-.07-3.69-.08-5.54,0-3.3,0-6.61,0-9.92,0-1.11.4-1.51,1.51-1.52,2.1,0,4.19,0,6.29,0a10.88,10.88,0,0,1,3.21.45c3,.94,4.28,3.22,4.06,6.2a5.44,5.44,0,0,1-3.75,5l-.35.15c1.71.9,2.46,2.46,3.14,4.08s1.35,3.09,2,4.66c.48,1.19.26,1.5-1,1.54-.81,0-1.61,0-2.42,0a1.18,1.18,0,0,1-1.19-.84c-.77-1.94-1.5-3.9-2.39-5.8a10.44,10.44,0,0,0-.55-1,2.91,2.91,0,0,0-2.63-1.4c-.44,0-1-.2-1.3.09s-.08.83-.07,1.26c0,1.36.07,2.73,0,4.09-.3-.17-.18-.46-.2-.7,0-.57,0-.6-.61-.61h-3A.91.91,0,0,1,178.94,44.92Z"></path>
  <path class="cls-5" d="M210.44,44.75c-2.56,0-5.12,0-7.68,0a.53.53,0,0,0-.6.46c-.39,1.29-.81,2.57-1.2,3.86a.92.92,0,0,1-.81.72,10.69,10.69,0,0,1-2.88,0c-.6-.09-.78-.35-.64-.94.35-1.4.88-2.74,1.34-4.1,1.79-5.33,3.61-10.65,5.38-16a1.44,1.44,0,0,1,1.46-1.15q1.73-.06,3.45,0a1.36,1.36,0,0,1,1.38,1.06c1.59,4.6,3.22,9.18,4.84,13.76.26.73.51,1.47.76,2.2a.73.73,0,0,1-.6.16h-3.57A1.73,1.73,0,0,1,210.44,44.75Z"></path>
  <path class="cls-5" d="M149.5,50.15h-5.17c-1,0-1.45-.42-1.46-1.44s0-2.32,0-3.49c0-2.23,0-4.47,0-6.7,0-2.92,0-5.84-.09-8.76a1.39,1.39,0,0,1,1.59-1.62c1.45,0,2.89,0,4.34,0l6,0c.61,0,.75.11.86.72a6.14,6.14,0,0,1,0,2.18.67.67,0,0,1-.76.62c-2.38,0-4.75,0-7.13.05-.34,0-.44.07-.43.43,0,1.49,0,3,0,4.48,0,.38.13.45.47.44,2,0,3.95,0,5.92,0a.69.69,0,0,1,.78.62,5.81,5.81,0,0,1,.05,1.95c-.11.77-.26.88-1,.89-1.86,0-3.73,0-5.59,0-.44,0-.58.09-.57.55,0,1.74,0,3.48,0,5.22,0,.31.06.42.4.42,2.41,0,4.82,0,7.23,0a.68.68,0,0,1,.79.6,5.73,5.73,0,0,1,0,2.26c-.1.55-.27.68-.82.68H149.5Z"></path>
  <path class="cls-6" d="M89.8,22.72a.64.64,0,0,0,.57-.23A3.8,3.8,0,0,1,92,21.32c1-.31,1.59-1.25,2.43-1.83.31-.21.52-.59,1-.57.16,0,.1-.15.12-.25.05-.27.23-.57.47-.52s.68.14.79.52c0,.12,0,.25.15.32a9.64,9.64,0,0,1,1.83,1.55,1,1,0,0,1,.31.4c.38.78.37.82-.39,1.22a4.7,4.7,0,0,0-1,.87,6.31,6.31,0,0,1-2,1.72.21.21,0,0,0-.11.07c-1,1.25-2.55,1.73-4,2.34-.86.36-1.6.91-2.45,1.27a.62.62,0,0,1-.44.11A.74.74,0,0,0,88,29a11.22,11.22,0,0,1-3.16,1.56,2.66,2.66,0,0,1-.49.1,2.15,2.15,0,0,1-.73-.27c-.32-.14-.55-.16-.63.26a.28.28,0,0,1-.17.21,6.1,6.1,0,0,0-1.5.48c-1.78.72-3.71,1-5.44,1.87-1.09,0-2,.76-3.16.5a1.22,1.22,0,0,0-.76.17,6,6,0,0,1-1.73.32q-.3,0-.27-.24a5.39,5.39,0,0,0-.23-1.65.81.81,0,0,1,.11-.49,1.16,1.16,0,0,0-.19-1.33.8.8,0,0,1,.22-1.16,1.93,1.93,0,0,1,1.07-.26,2.52,2.52,0,0,0,1.74-.33.49.49,0,0,1,.32-.06A4,4,0,0,0,75,28.13a2.72,2.72,0,0,1,1.42-.32c.42,0,.84,0,1.26,0a1.26,1.26,0,0,0,.71-.26,12.67,12.67,0,0,1,1.51-.64c.5-.22,1.1-.26,1.47-.75.06-.08.17-.07.26-.06a3.39,3.39,0,0,0,1.53-.31,2.06,2.06,0,0,0,.55-.33A5.46,5.46,0,0,1,86,24.4a4.66,4.66,0,0,0,1.78-.54,1.89,1.89,0,0,1,1.32-.29c.58,0,.58,0,.61-.52C89.68,22.93,89.68,22.8,89.8,22.72Z"></path>
  <path class="cls-7" d="M87.89,29c0-.43.32-.53.68-.54h.55c.53.15,1.13-.06,1.61.34.08.07.18,0,.24-.07.21-.32.49-.23.78-.15s.66.15,1,.25a.61.61,0,0,1,.47.9,3.39,3.39,0,0,0-.27,1.54.82.82,0,0,1-.29.87.25.25,0,0,0-.11.24,10.22,10.22,0,0,1-1,4.55,3.39,3.39,0,0,0-.23,1.55c0,.12,0,.3,0,.36-.59.58-.33,1.4-.6,2.08a13.08,13.08,0,0,0-.87,2.2c-.18,1-.85,1.79-.92,2.81a.36.36,0,0,1-.07.17,4.82,4.82,0,0,0-.89,1.8c-.06.34-.4.63-.53,1s-.65.85-.58,1.43c0,.18,0,.41-.27.34a10.21,10.21,0,0,0-2.92-.09A13.36,13.36,0,0,1,81,50.11a2.9,2.9,0,0,1,.58-.9.62.62,0,0,0,.25-.53.34.34,0,0,1,.06-.21A16.21,16.21,0,0,0,83.41,45a.31.31,0,0,0,0-.18A2.44,2.44,0,0,1,84.1,43a8,8,0,0,0,.64-1.47c.39-.92.26-2,1-2.81.26-.26.11-.66.12-1a.74.74,0,0,1,.27-.7c.16-.12.15-.29.15-.47,0-.49,0-1,0-1.49V35c.23-.42.16-1,.64-1.28.14-.09.07-.32.09-.48a1.43,1.43,0,0,1,.45-.68c.19-.22.28-.4-.06-.56a.26.26,0,0,1-.14-.27,5.85,5.85,0,0,1,.28-2.2A1.1,1.1,0,0,1,87.89,29Z"></path>
  <path class="cls-5" d="M129.9,45.2c0-.57,0-1.14,0-1.72,0-3.71-.06-7.42-.07-11.13,0-.35-.1-.44-.44-.43-1.64,0-3.27,0-4.9,0a.58.58,0,0,1-.62-.46,5.73,5.73,0,0,1,0-2.76c.1-.39.37-.48.74-.48l11.61-.05c1.1,0,2.21,0,3.31,0a.71.71,0,0,1,.81.65,6.68,6.68,0,0,1,0,2.36c-.09.54-.3.69-.86.69-1.59,0-3.17,0-4.76,0-.33,0-.41.08-.41.41,0,4.11.06,8.23.09,12.34,0,.19,0,.37,0,.56a.62.62,0,0,1-.48.15h-3.54A.58.58,0,0,1,129.9,45.2Z"></path>
  <path class="cls-8" d="M87.38,31.81c.62.34.62.34.14.91-.12.14-.34.22-.36.45A4.45,4.45,0,0,0,86.33,35h0c-.51.79-.8,1.71-1.38,2.46S83.65,39.11,83.1,40s-1.31,1.7-1.32,2.85c0,.23-.2.25-.34.32a3.37,3.37,0,0,0-1.71,2.24c-.07.25-.28.37-.42.54a5.13,5.13,0,0,0-.89,1.28,12.21,12.21,0,0,1-1.76,2.67c-.14.18-.27.2-.51.11a8.73,8.73,0,0,0-2.8-.7c-.09,0-.22,0-.26,0-.63-.65-1.52-.65-2.28-1a1.31,1.31,0,0,0-.26-.12,5.2,5.2,0,0,0,1-1,.8.8,0,0,1,.61-.35c.28,0,.45-.27.58-.48a22.91,22.91,0,0,1,2.69-3.2,6.31,6.31,0,0,1,1.54-1.51c.19-.1.24-.3.28-.54a2.41,2.41,0,0,1,.89-1.47.81.81,0,0,0,.32-.77.91.91,0,0,1,.23-.73c.47-.59.84-1.26,1.26-1.89a10.37,10.37,0,0,0,1-1.87A12.22,12.22,0,0,1,81.81,33a10.83,10.83,0,0,0,.71-1.64c.07-.16.27-.26.25-.47.22-.84.22-.84,1-.5l.51.23a11.18,11.18,0,0,0,2.53.89C87,31.56,87.27,31.58,87.38,31.81Z"></path>
  <path class="cls-5" d="M96.24,45.42c0-.4,0-.81,0-1.21q0-7.47-.1-14.94a.67.67,0,0,1,.58-.76,7.74,7.74,0,0,1,3.32,0,.69.69,0,0,1,.59.8q0,3.93,0,7.87c0,2.74,0,5.49.06,8.23a.67.67,0,0,1-.52.15H96.73A.76.76,0,0,1,96.24,45.42Z"></path>
  <path class="cls-9" d="M89.8,22.72a1.46,1.46,0,0,0,0,.59c.06.3-.09.5-.37.43a4.34,4.34,0,0,0-1.72.12c0-.24-.14-.31-.33-.19a3.31,3.31,0,0,1-2.49.2,3.43,3.43,0,0,0-1.39,0c-.35.08-.4-.06-.37-.35a9.72,9.72,0,0,0,.09-1.62c0-.31-.15-.62-.14-.9,0-.62-.25-1.32.3-1.86.18-.18.1-.33,0-.5a1.51,1.51,0,0,1-.3-.86c0-.25.06-.37.32-.38a1.1,1.1,0,0,1,.51,0,2,2,0,0,0,1.48-.07,2.41,2.41,0,0,1,1.58.14.6.6,0,0,0,.49,0A3,3,0,0,1,89,17.4l.23,0c.68,0,.72,0,.59.67a5.23,5.23,0,0,0,0,1.37,8,8,0,0,1-.13,1.89A3,3,0,0,0,89.8,22.72Z"></path>
  <path class="cls-10" d="M210.44,44.75l4.8,0c.51,1.34,1,2.68,1.41,4.06.17.65,0,.91-.65,1a16.4,16.4,0,0,1-3.21,0,.93.93,0,0,1-.87-.75C211.45,47.61,210.94,46.18,210.44,44.75Z"></path>
  <path class="cls-9" d="M96.24,45.42l4.44,0c0,1.44,0,2.88,0,4.32a.64.64,0,0,1-.56.69,8,8,0,0,1-3.31,0,.69.69,0,0,1-.63-.78C96.24,48.24,96.23,46.83,96.24,45.42Z"></path>
  <path class="cls-8" d="M129.9,45.2h4.45c0,1.44,0,2.88,0,4.32a.64.64,0,0,1-.61.69,8.82,8.82,0,0,1-3.28,0,.69.69,0,0,1-.62-.78C129.9,48,129.9,46.61,129.9,45.2Z"></path>
  <path class="cls-6" d="M178.94,44.92c1.33,0,2.66,0,4,0,.32,0,.44.09.43.42a3.7,3.7,0,0,0,0,1l0,2.89a.57.57,0,0,1-.48.59,7.71,7.71,0,0,1-3.51,0,.53.53,0,0,1-.48-.54C179,47.87,178.86,46.39,178.94,44.92Z"></path>
  <path class="cls-5" d="M162.35,53.82c0-.45,0-.85,0-1.25s.07-.56.43-.55.42.26.4.56a13.44,13.44,0,0,0,.15,2.83,12.75,12.75,0,0,1,0,1.52.34.34,0,0,1-.22.37c-.17.06-.35.07-.44-.12s-.21-.11-.33,0a2,2,0,0,1-1.56.27,1.84,1.84,0,0,1-1.35-1.89,1.9,1.9,0,0,1,1.42-1.89A3.66,3.66,0,0,1,162.35,53.82Z"></path>
  <path class="cls-5" d="M89.8,54.38c0-.58,0-1,0-1.46,0-.25.11-.47.42-.45s.42.22.4.51a13.82,13.82,0,0,0,.15,2.87,12.73,12.73,0,0,1,0,1.52.38.38,0,0,1-.27.39.29.29,0,0,1-.4-.14c-.1-.18-.19-.11-.33,0a1.94,1.94,0,0,1-2.4-.2,2.21,2.21,0,0,1-.1-2.64,1.37,1.37,0,0,1,1.34-.67C89,54.12,89.44,53.92,89.8,54.38Z"></path>
  <path class="cls-5" d="M82.89,54.33c0-.47,0-.88,0-1.3s.09-.53.4-.52.45.23.42.54a13.41,13.41,0,0,0,.15,2.83,10.2,10.2,0,0,1,0,1.57.33.33,0,0,1-.24.35.28.28,0,0,1-.4-.12c-.11-.22-.21-.13-.35,0a1.87,1.87,0,0,1-2.49-.32,2.23,2.23,0,0,1,.17-2.75,1.24,1.24,0,0,1,1-.45C82,54.15,82.48,54,82.89,54.33Z"></path>
  <path class="cls-5" d="M71.88,57.1c0,.27,0,.49.05.71a.36.36,0,0,1-.36.4c-.21,0-.29-.16-.3-.35a12.93,12.93,0,0,1,.4-4.55c.07-.24.23-.36.45-.29a5.89,5.89,0,0,1,1.94.71,1.32,1.32,0,0,1,.14,2.15.6.6,0,0,0-.19.75c.15.41.26.83.39,1.24s0,.47-.25.56-.39-.08-.45-.33c-.13-.47-.29-.94-.41-1.42-.06-.25-.17-.34-.42-.3h-.18L72,56.31s0,0,0,.06C71.92,56.63,71.9,56.89,71.88,57.1Z"></path>
  <path class="cls-5" d="M75.43,56.72c-.11-1.63,1-2.66,2.45-2.3a2.1,2.1,0,0,1,1.24,1.06c.24.39,0,.78-.48.89a7.32,7.32,0,0,0-2,.55c-.4.2-.42.28-.07.56a2.59,2.59,0,0,0,2.07.45c.3,0,.73-.27.8.22s-.41.37-.67.41a3.14,3.14,0,0,1-3-.94C75.56,57.3,75.3,57.05,75.43,56.72Z"></path>
  <path class="cls-5" d="M94.44,58.51a2.73,2.73,0,0,1-2.29-1c-.15-.2-.47-.24-.47-.58a2.68,2.68,0,0,1,.65-2.22,1.91,1.91,0,0,1,2.7.21l.16.17c.5.56.35,1-.39,1.2a7.47,7.47,0,0,0-1.74.47c-.15.08-.41.09-.42.3s.19.31.35.41a2.67,2.67,0,0,0,1.87.37l.37-.07c.24-.05.48-.07.53.26s-.2.37-.44.4A3.7,3.7,0,0,1,94.44,58.51Z"></path>
  <path class="cls-5" d="M196,54.24c-.19.46,0,.92.14,1.4a11.07,11.07,0,0,0,.19,1.6.28.28,0,0,1-.17.38c-.19.07-.37.05-.45-.12s-.3-.13-.46,0a1.94,1.94,0,0,1-2.86-.94,1.88,1.88,0,0,1,1.4-2.38c.4,0,.8-.29,1.22,0,.15.1.17-.12.24-.21a.39.39,0,0,1,.5-.12A.37.37,0,0,1,196,54.24Z"></path>
  <path class="cls-5" d="M173.86,58a2.78,2.78,0,0,1-2.37-1c-.15-.2-.47-.24-.46-.59a2.77,2.77,0,0,1,.66-2.22,1.93,1.93,0,0,1,2.69.23,2.5,2.5,0,0,1,.22.24c.41.49.26,1-.36,1.1a9.41,9.41,0,0,0-1.66.43c-.22.09-.57.12-.58.36s.3.42.54.54a3,3,0,0,0,2,.19c.27-.06.52-.08.58.25s-.26.36-.49.4A5.94,5.94,0,0,1,173.86,58Z"></path>
  <path class="cls-5" d="M111.76,58.26a2,2,0,0,1-1.83-1.77,1.88,1.88,0,0,1,1.72-1.86c.35,0,.72-.26,1.07,0,.09.07.11-.07.14-.13a.42.42,0,0,1,.58-.21c.29.1.26.33.21.54a1.48,1.48,0,0,0,.08,1c.25.64,0,1.35.29,2a.26.26,0,0,1-.2.32.35.35,0,0,1-.45-.14c-.1-.22-.2-.18-.38-.07A2,2,0,0,1,111.76,58.26Z"></path>
  <path class="cls-5" d="M138.21,57.63a2.47,2.47,0,0,1-.88.42,1.83,1.83,0,0,1-1.34-3.4,2.22,2.22,0,0,1,1.64-.17c.17.07.18,0,.23-.12a.42.42,0,0,1,.6-.18c.24.09.24.31.18.51a1.54,1.54,0,0,0,.09,1c.22.63,0,1.32.28,2a.25.25,0,0,1-.14.31.39.39,0,0,1-.44,0A1.69,1.69,0,0,1,138.21,57.63Z"></path>
  <path class="cls-5" d="M212,57.78a2.84,2.84,0,0,1-2.48-1c-.15-.19-.44-.24-.44-.59a2.79,2.79,0,0,1,.61-2.16,1.9,1.9,0,0,1,2.6,0l0,0c.27.28.65.54.5,1s-.6.43-1,.51a6.13,6.13,0,0,0-1.51.46c-.43.2-.45.27-.07.58a2.57,2.57,0,0,0,2.12.42c.11,0,.21-.05.32-.06s.4,0,.43.31-.12.32-.33.35A4.13,4.13,0,0,1,212,57.78Z"></path>
  <path class="cls-5" d="M151.67,56.12c.2-.57.31-1.28,1-1.55a2.23,2.23,0,0,1,1.68-.19c.2.08.2-.07.26-.16.13-.25.35-.23.56-.15a.34.34,0,0,1,.21.46,1.49,1.49,0,0,0,.08,1.08c.24.62,0,1.3.26,1.92a.25.25,0,0,1-.18.33c-.15,0-.34.08-.42-.08s-.29-.18-.5-.06A1.94,1.94,0,0,1,151.67,56.12Z"></path>
  <path class="cls-5" d="M102.92,56.49a1.82,1.82,0,0,1,1.34-1.74c.45-.07.91-.35,1.39-.07.15.09.17-.07.21-.15a.4.4,0,0,1,.56-.17.37.37,0,0,1,.22.5,1.36,1.36,0,0,0,.07,1c.24.63,0,1.32.28,2a.28.28,0,0,1-.16.35c-.16.06-.35.07-.43-.07-.17-.34-.34-.16-.54-.05A1.92,1.92,0,0,1,102.92,56.49Z"></path>
  <path class="cls-5" d="M123.73,58.06c-1.57,0-2.44-.58-2.79-1.81a2.9,2.9,0,0,1,1.28-3.34,2.1,2.1,0,0,1,2.32.14c.14.11.25.22.14.43s-.27.22-.47.15l-.13-.05a1.27,1.27,0,0,0-1.7.1,2.18,2.18,0,0,0-.79,2.28A1.59,1.59,0,0,0,123,57.23a1.63,1.63,0,0,0,1.68-.35.47.47,0,0,1,.74,0c.19.27,0,.5-.19.69A2.14,2.14,0,0,1,123.73,58.06Z"></path>
  <path class="cls-5" d="M100.34,52.76l.76.13c.2,0,.31.13.26.35a.29.29,0,0,1-.41.24,2.61,2.61,0,0,0-.92-.11c-.19,0-.39.07-.44.28a.4.4,0,0,0,.28.44c.36.16.73.27,1.09.42a1.8,1.8,0,0,1,1.17,1.87,2,2,0,0,1-2.4,1.67,2.38,2.38,0,0,1-1.33-.88c-.14-.17-.23-.37,0-.53s.37-.11.51.1a.9.9,0,0,0,.19.2,1.36,1.36,0,0,0,2.32-.43.86.86,0,0,0-.17-.95,2.42,2.42,0,0,0-1-.67c-.11,0-.24-.08-.35-.12-.78-.27-1-.6-1-1.16S99.48,52.77,100.34,52.76Z"></path>
  <path class="cls-5" d="M199.93,55.78a1.21,1.21,0,0,1,0-.19c0-.34,0-.71-.31-.91a1.13,1.13,0,0,0-1.11.09.41.41,0,0,0-.25.48,12.32,12.32,0,0,1,0,1.72c0,.29-.09.49-.42.46s-.39-.25-.37-.52.06-.65.06-1a1.63,1.63,0,0,0-.19-.9,2.53,2.53,0,0,1-.12-1.09.35.35,0,0,1,.32-.3.34.34,0,0,1,.39.19c.14.34.35.27.62.17a1.89,1.89,0,0,1,1-.12,1.21,1.21,0,0,1,1.16,1.23,4.55,4.55,0,0,0,.17,1.6.37.37,0,0,1-.22.5.44.44,0,0,1-.56-.22A2,2,0,0,1,199.93,55.78Z"></path>
  <path class="cls-5" d="M131.57,56.51c0,.29,0,.59,0,.88s-.08.47-.38.46-.41-.22-.39-.51,0-.74,0-1.11a1.79,1.79,0,0,0-.19-.77,2.13,2.13,0,0,1-.07-1.18.34.34,0,0,1,.64-.05c.18.33.36.29.63.18a2.38,2.38,0,0,1,.59-.12A1.3,1.3,0,0,1,134,55.75a3.22,3.22,0,0,0,.14,1.23c.09.26.09.55-.23.65s-.49-.12-.6-.37a2.27,2.27,0,0,1-.14-1c0-.17,0-.34,0-.51a.7.7,0,0,0-.51-.79,1.27,1.27,0,0,0-1.12.32s0,.17,0,.26v.93Z"></path>
  <path class="cls-5" d="M167.57,56.25v1c0,.27-.12.42-.39.4a.34.34,0,0,1-.37-.42c0-.4,0-.8,0-1.2a1.57,1.57,0,0,0-.19-.77,2.1,2.1,0,0,1-.07-1.17c.07-.34.51-.34.71,0s.25.22.47.15a2.53,2.53,0,0,1,.76-.17,1.27,1.27,0,0,1,1.5,1.4,4.22,4.22,0,0,0,.16,1.37.41.41,0,0,1-.23.58c-.27.09-.45-.08-.57-.29a2.47,2.47,0,0,1-.16-1.32c0-.95-.5-1.29-1.36-.88a.47.47,0,0,0-.31.54c0,.26,0,.52,0,.79Z"></path>
  <path class="cls-5" d="M185.76,56.13c0,.31,0,.62,0,.93s-.08.46-.39.45-.4-.18-.38-.46,0-.75,0-1.12a1.62,1.62,0,0,0-.2-.81,2.56,2.56,0,0,1-.09-1.15c0-.13.14-.24.29-.26a.39.39,0,0,1,.44.26c.11.26.25.24.46.14a2.09,2.09,0,0,1,.86-.16,1.27,1.27,0,0,1,1.42,1.45,3.41,3.41,0,0,0,.14,1.27c.08.25.08.53-.22.63s-.5-.12-.61-.37a3,3,0,0,1-.11-1.34c0-.38,0-.72-.43-.89a1.27,1.27,0,0,0-1.14.22c-.13.08-.11.21-.11.33,0,.3,0,.59,0,.88Z"></path>
  <path class="cls-5" d="M128.56,57.62a1.2,1.2,0,0,1-2-.57,5.45,5.45,0,0,1-.21-2.66c0-.29.23-.39.49-.37s.24.25.22.45a5.87,5.87,0,0,0,.17,2.21c.07.23.13.51.43.55a.77.77,0,0,0,.68-.34,2.2,2.2,0,0,0,.39-1.4c0-.27.06-.51.42-.46.21,0,.34.11.31.36a12.55,12.55,0,0,0-.09,2.6c0,.15-.06.25-.21.23s-.4,0-.45-.22S128.68,57.75,128.56,57.62Z"></path>
  <path class="cls-5" d="M182.11,55c0-.34,0-.69,0-1s.06-.65-.42-.7c-.16,0-.23-.2-.21-.37s.1-.32.24-.29c.55.11,1.07-.18,1.61-.12a1.14,1.14,0,0,1,.32.07c.16.06.16.21.13.35s-.18.23-.35.23c-.79,0-.69,0-.67.74s.08,1.64.08,2.46c0,.36.14.47.45.48l.42,0c.23,0,.3.2.28.41a.3.3,0,0,1-.38.3,15.54,15.54,0,0,1-2.15-.35c-.26-.07-.43-.2-.37-.49a.36.36,0,0,1,.52-.25c.51.2.55,0,.51-.46A8.68,8.68,0,0,1,182.11,55Z"></path>
  <path class="cls-5" d="M143.44,56.7c.34-.79.67-1.54,1-2.31.11-.32.29-.43.58-.33s.24.37.14.59l-.84,1.81A1.78,1.78,0,0,0,144,57.6a.31.31,0,0,1-.09.25c-.37.24-.45.65-.64,1-.1.17-.19.29-.4.2a.32.32,0,0,1-.21-.43,2,2,0,0,0-.21-2c-.22-.47-.4-1-.59-1.46-.09-.21-.07-.4.17-.5a.38.38,0,0,1,.55.25c.18.48.36,1,.55,1.43A.79.79,0,0,0,143.44,56.7Z"></path>
  <path class="cls-5" d="M116.31,58.05a1.94,1.94,0,0,1-1.52-.6c-.16-.17-.29-.35-.08-.56s.37-.06.54.1c.59.59,1,.57,1.58,0a.43.43,0,0,0,0-.65,2.38,2.38,0,0,0-1.18-.79,1.21,1.21,0,0,1-.64-.36.73.73,0,0,1,.4-1.15,3.57,3.57,0,0,1,1.56,0c.17,0,.23.15.18.31s-.1.31-.35.27a8.59,8.59,0,0,0-1-.07c-.09,0-.24,0-.26.13s.1.19.2.23.41.15.61.24a2.11,2.11,0,0,1,1.25,1.23.76.76,0,0,1-.21.92C117,57.64,116.77,58.1,116.31,58.05Z"></path>
  <path class="cls-5" d="M177.16,53.59l.78.09c.2,0,.28.11.25.3s-.1.33-.33.3a3.77,3.77,0,0,0-1.06-.08c-.09,0-.21,0-.24.11s.07.19.16.24.24.09.35.14a7,7,0,0,1,.68.3c.77.47,1.15,1.32.81,1.81a1.67,1.67,0,0,1-2.45.54,1.44,1.44,0,0,1-.42-.43.28.28,0,0,1,.09-.43.25.25,0,0,1,.4.05,1.43,1.43,0,0,0,.46.39,1,1,0,0,0,1.36-.5.47.47,0,0,0-.11-.44,2.16,2.16,0,0,0-1-.73,5.42,5.42,0,0,1-.56-.22.67.67,0,0,1-.42-.71.73.73,0,0,1,.55-.67A2.8,2.8,0,0,1,177.16,53.59Z"></path>
  <path class="cls-5" d="M215.34,53.38c.23,0,.47,0,.7,0s.34.08.29.33-.16.32-.39.28a3.52,3.52,0,0,0-1-.08c-.1,0-.2,0-.22.13s.06.18.14.21.37.15.56.23a2.21,2.21,0,0,1,1.33,1.21.82.82,0,0,1-.22,1,1.64,1.64,0,0,1-2.54.12c-.16-.18-.34-.36-.1-.59s.38-.05.55.11c.59.58.9.57,1.5,0a.47.47,0,0,0,.05-.75,2.32,2.32,0,0,0-1-.69c-.17-.07-.35-.13-.52-.21a.74.74,0,0,1,.27-1.38,4.7,4.7,0,0,1,.65,0Z"></path>
  <path class="cls-5" d="M190.12,55.17l-.26.13c-.17.08-.34.11-.46-.07a.31.31,0,0,1,.09-.45c.5-.26.46-.64.4-1.12a1.44,1.44,0,0,1,1.59-1.51c.14,0,.25.06.25.22s.05.33-.15.4a2.29,2.29,0,0,1-.36.07.83.83,0,0,0-.64,1.17c.08.25.25.12.38.12s.45-.1.51.22-.15.41-.4.45-.32.19-.31.46a6.86,6.86,0,0,1-.26,2.06c-.06.23-.12.46-.46.38s-.24-.3-.2-.52A8.19,8.19,0,0,0,190.12,55.17Z"></path>
  <path class="cls-5" d="M150.08,55.39c0-.69-.23-1.35-.25-2,0-.19,0-.37,0-.56s.09-.29.25-.29.2.14.22.29c.14.85.3,1.71.42,2.57a2.27,2.27,0,0,1-.45,1.88,1.46,1.46,0,0,1-1.74.31,1.22,1.22,0,0,1-.56-1.41c.05-.25.16-.46.46-.41s.36.3.26.53-.06.58.26.72a.71.71,0,0,0,.92-.34A2.58,2.58,0,0,0,150.08,55.39Z"></path>
  <path class="cls-5" d="M202.07,55.8c0-.43.07-.86.07-1.3,0-.69.15-.6-.62-.71-.2,0-.33-.07-.34-.28s.16-.32.37-.31a.65.65,0,0,1,.14,0c.33.07.41-.06.3-.37s-.07-.36-.13-.54a.27.27,0,0,1,.22-.38c.2-.06.36,0,.42.23a6.88,6.88,0,0,1,.2.9c0,.36.19.4.49.28s.37-.19.46.1-.05.5-.32.5c-.58,0-.54.35-.54.75,0,.71,0,1.43,0,2.14a.32.32,0,0,1-.35.34c-.23,0-.29-.14-.3-.33v-1Z"></path>
  <path class="cls-11" d="M206.76,53.26c0-.26,0-.52.06-.79a.31.31,0,0,1,.34-.3.34.34,0,0,1,.37.28,1,1,0,0,1,0,.23,20.39,20.39,0,0,0,.32,3.74,2.63,2.63,0,0,1,0,.56c0,.17-.07.36-.28.36s-.41-.1-.43-.35C207.08,55.75,206.76,54.52,206.76,53.26Z"></path>
  <path class="cls-5" d="M108.07,54c0-.28,0-.56,0-.84a.37.37,0,0,1,.73,0,24.53,24.53,0,0,0,.37,4c0,.11,0,.22,0,.33s0,.44-.28.45a.4.4,0,0,1-.44-.39A33.56,33.56,0,0,1,108.07,54Z"></path>
  <path class="cls-5" d="M157.52,54.42a3.91,3.91,0,0,1,1-.68c.2-.08.39-.09.47.12s.08.39-.18.5a2.76,2.76,0,0,0-.58.38,1.51,1.51,0,0,0-.65,1.17c0,.47-.16.94-.13,1.43,0,.2-.07.34-.29.34s-.37-.08-.37-.32a13.27,13.27,0,0,1,0-1.67,4,4,0,0,0,0-1.2c0-.24-.18-.54.23-.63s.37.23.43.46C157.44,54.34,157.47,54.36,157.52,54.42Z"></path>
  <path class="cls-11" d="M165.5,54.66c0,.27-.11.66-.19,1.06a2.23,2.23,0,0,0,0,1.09.37.37,0,0,1-.27.51.42.42,0,0,1-.52-.27,1.35,1.35,0,0,1-.06-.82,7.16,7.16,0,0,0,.18-1.79c0-.33,0-.68.4-.71s.44.35.49.66A2.07,2.07,0,0,1,165.5,54.66Z"></path>
  <path class="cls-5" d="M205.63,54.42a7.47,7.47,0,0,1-.19,1,2.27,2.27,0,0,0,0,1.1.4.4,0,0,1-.28.55c-.28.07-.43-.12-.53-.34a2.14,2.14,0,0,1,0-1.15,6,6,0,0,0,.13-1.47c0-.31,0-.63.4-.64s.43.33.46.62A2.55,2.55,0,0,1,205.63,54.42Z"></path>
  <path class="cls-12" d="M165.51,52.76c0,.29,0,.58-.36.59a.46.46,0,0,1-.44-.5c0-.31.26-.45.53-.48S165.48,52.61,165.51,52.76Z"></path>
  <path class="cls-13" d="M205.63,52.49c0,.28,0,.6-.35.61s-.41-.24-.42-.48.25-.44.51-.49S205.6,52.34,205.63,52.49Z"></path>
  <path class="cls-14" d="M107.3,34.4a3.12,3.12,0,0,1-.08-1,.5.5,0,0,1,.18.32C107.23,33.94,107.38,34.19,107.3,34.4Z"></path>
  <path class="cls-15" d="M183.31,34.48V31.74c0-.15-.07-.36.21-.37a15.52,15.52,0,0,1,3.34.08A2.6,2.6,0,0,1,189.29,34a2.88,2.88,0,0,1-2,3.29,13,13,0,0,1-3.74.26c-.26,0-.18-.2-.18-.34,0-.91,0-1.82,0-2.74Z"></path>
  <path class="cls-15" d="M206.32,32.09l3,8.91c.07.21,0,.3-.21.3l-5.5,0c-.23,0-.33,0-.24-.31,1-2.91,1.88-5.83,2.83-8.74A.73.73,0,0,1,206.32,32.09Z"></path>
  <path class="cls-16" d="M87.38,31.81c-.76-.32-1.57-.45-2.34-.7a1.3,1.3,0,0,1-.74-.51c.65-.23,1.32-.44,2-.68.42-.15.65-.6,1.11-.72.17-.05.34-.15.51-.22A8.53,8.53,0,0,0,87.38,31.81Z"></path>
  <path class="cls-17" d="M86.33,35a2.13,2.13,0,0,1,.83-1.87c0,.29.17.7-.36.77-.09,0-.07.12-.08.2A1.67,1.67,0,0,1,86.33,35Z"></path>
  <path class="cls-15" d="M162.56,55.75a.94.94,0,0,1-.63.91,1,1,0,0,1-1.13,0,1.43,1.43,0,0,1-.18-2.13.8.8,0,0,1,1.13,0,3,3,0,0,0,.65.64C162.62,55.28,162.49,55.57,162.56,55.75Z"></path>
  <path class="cls-15" d="M90,56.47c0,.27-.33.49-.68.67a1,1,0,0,1-1.09,0A1.47,1.47,0,0,1,88.08,55a.74.74,0,0,1,.77-.18A2.15,2.15,0,0,1,90,56.47Z"></path>
  <path class="cls-15" d="M83.09,56.23c.06.51-.29.74-.67.94a1,1,0,0,1-1.17-.07A1.47,1.47,0,0,1,81.16,55a.8.8,0,0,1,1-.08c.29.23.45.58.8.77C83.12,55.78,83.07,56,83.09,56.23Z"></path>
  <path class="cls-18" d="M72.79,55.66c-.73,0-.83-.14-.69-.85l0-.14c.1-.28,0-.71.35-.81a1.88,1.88,0,0,1,1.47.82.6.6,0,0,1-.29.72A1.48,1.48,0,0,1,72.79,55.66Z"></path>
  <path class="cls-18" d="M76.07,56.47A1.34,1.34,0,0,1,77,55.05c.54-.16,1,0,1.39.63a8.72,8.72,0,0,1-1.16.38Z"></path>
  <path class="cls-18" d="M92.34,56.4a1.37,1.37,0,0,1,.8-1.41,1.13,1.13,0,0,1,1.34.33c.15.17.24.3-.07.38A11.22,11.22,0,0,0,92.34,56.4Z"></path>
  <path class="cls-15" d="M194,57.14a1.34,1.34,0,0,1-1.17-1.25A1.25,1.25,0,0,1,194,54.76,1.37,1.37,0,0,1,195.34,56,1.31,1.31,0,0,1,194,57.14Z"></path>
  <path class="cls-18" d="M171.68,55.92a1.4,1.4,0,0,1,.84-1.43,1.17,1.17,0,0,1,1.31.34c.18.19.22.3-.1.39A10.8,10.8,0,0,0,171.68,55.92Z"></path>
  <path class="cls-15" d="M113,56.5a1.31,1.31,0,0,1-1.28,1.16,1.38,1.38,0,0,1-1.16-1.27,1.22,1.22,0,0,1,2.44.11Z"></path>
  <path class="cls-15" d="M138,56.37a1.31,1.31,0,0,1-1.32,1.13,1.38,1.38,0,0,1-1.14-1.29,1.34,1.34,0,0,1,1.14-1.12A1.27,1.27,0,0,1,138,56.37Z"></path>
  <path class="cls-18" d="M212,54.88c-.71.26-1.46.4-2.15.73-.22.1-.21-.07-.2-.22a1.48,1.48,0,0,1,1-1.19C211.19,54.07,211.62,54.29,212,54.88Z"></path>
  <path class="cls-15" d="M154.78,56.23a1.28,1.28,0,0,1-1.26,1.17,1.32,1.32,0,0,1-1.17-1.27,1.22,1.22,0,0,1,2.43.1Z"></path>
  <path class="cls-15" d="M106,56.53a1.26,1.26,0,0,1-1.26,1.16,1.32,1.32,0,0,1-1.18-1.27,1.34,1.34,0,0,1,1.1-1.14A1.37,1.37,0,0,1,106,56.53Z"></path>
  <rect class="cls-19" x="15.59" y="17.83" width="19.32" height="41"></rect>
  <rect class="cls-20" x="34.92" y="17.83" width="27.84" height="41"></rect>
  <path class="cls-21" d="M27,25.91v.64a.74.74,0,0,0,0-.64"></path>
  <path class="cls-21" d="M28.31,22.44s0-.09.08-.09a.21.21,0,0,1,.21.13c0,.08-.05.28.22.31a.37.37,0,0,1,0,.08h0a.23.23,0,0,1,0,.14h.05c.37,0,.57,0,.68-.12a.56.56,0,0,0,.09-.12.61.61,0,0,0,.06-.48h0v0l0-.05a1.06,1.06,0,0,0-.55-.39h0a.85.85,0,0,1,.59.4.35.35,0,0,0,.13-.24h0a.49.49,0,0,1,0-.23,0,0,0,0,0,0-.07s-.06,0-.07,0-.17,0-.12-.06,0-.06,0-.08a.07.07,0,0,0-.08,0c0,.1-.15,0-.11,0s0-.06,0-.08a.06.06,0,0,0-.08,0c-.05.1-.16,0-.12-.05a.06.06,0,0,0,0-.08.06.06,0,0,0-.08,0,1.28,1.28,0,0,1-.1.15,1.18,1.18,0,0,1,.6.3l.06.07h0a0,0,0,0,1,0,0h0s0-.05-.07-.06a1.19,1.19,0,0,0-.63-.3c-.12,0-.08.14-.07.22a.3.3,0,0,0-.36.23.28.28,0,0,0,0,.15h0s0,0-.05-.05a.38.38,0,0,1,0-.1c-.16,0-.31.09-.29.23a.23.23,0,0,0,.14.19m.57-.21c0-.05.05.15.22.1-.12.13-.28,0-.22-.1m0-.1c.07,0,.13-.16.22-.1a.61.61,0,0,1,.14.1.57.57,0,0,1,.14.11c0,.06-.05.19-.14.07s-.14-.25-.27-.18-.17.12-.2.05.07,0,.11-.05m-.45,0c0,.06-.12.06-.13.13s.06-.2.13-.13"></path>
  <path class="cls-21" d="M32.71,29c-.12-.13-.41-.07-.41-.07a.42.42,0,0,0-.28-.57.39.39,0,0,0-.32,0h0l0,0a.21.21,0,0,0-.07.15.23.23,0,0,0,.23.22.28.28,0,0,0,.13,0,.2.2,0,0,0,.09-.13.29.29,0,0,1,.09.1c.12.39-.33.53-.33.53A1.85,1.85,0,0,1,30.19,29l.18-.09a.31.31,0,0,1,.15,0v0a.2.2,0,0,0,.4,0,.16.16,0,0,0,0-.09h0v0c-.12-.17-.52-.06-.52-.06a.67.67,0,0,0,0-.54c-.07-.12-.06-.16-.06-.16s0-.13,0-.13-.17,0-.17,0c-.16,0-.19,0-.19,0s-.2,0-.2,0,0,.14,0,.14-.19.17-.19.17a.24.24,0,0,0,.19.32c.18,0,.18-.14.18-.14s-.17-.14-.17-.14.09-.08.09-.08a.3.3,0,0,1,.31.18.43.43,0,0,1-.05.49s-.07,0-.07,0a2,2,0,0,1-.29-.17h-.08a.67.67,0,0,0-.22,0,4.53,4.53,0,0,0,.34.3c-.2.15-.31,0-.31,0a.41.41,0,0,1-.06-.33h0l-.27.11c.09.16.24.39.24.39-.23.08-.28-.21-.29-.37l-.13.05a.21.21,0,0,1,0,.06.83.83,0,0,0,.17.36.29.29,0,0,0-.27.06.27.27,0,0,0-.09.25.11.11,0,0,0,.11.1.11.11,0,0,0,.12-.11.11.11,0,0,0-.11-.11c.05-.12.17,0,.17,0,.18.15-.1.32-.1.32-.2.12-.38-.12-.38-.12a1.39,1.39,0,0,0,.23-.75l-.21.07a.46.46,0,0,1-.13.5c-.07,0-.08-.22-.08-.22a1.18,1.18,0,0,0-.07-.2l-.19,0a2.67,2.67,0,0,1,.1.5s-.14.05-.14.05c-.17,0-.08-.07-.08-.07s.06-.12.06-.12-.22,0-.22,0c-.24.12-.17.25-.17.25s.27.17.27.17a.72.72,0,0,1-.41.05.16.16,0,0,0-.12-.14h0a.15.15,0,0,0-.15.05l0,.05-.14,0c-.11,0-.16-.29-.2-.53h-.12c0,.26.09.49.09.49a1.22,1.22,0,0,1-.26-.14.56.56,0,0,0-.46-.1.27.27,0,0,0,.05.54.29.29,0,0,0,.29-.27l.19.11a1.17,1.17,0,0,0,.57.18.21.21,0,0,0,.38.06,1.05,1.05,0,0,0,.75-.25c.06-.08.07,0,.07,0,.2.27.59.1.59.1s.09,0,.09,0a.15.15,0,0,0,.2.05c.16-.07.07-.17.07-.17s0-.05,0-.05c.18,0,.22-.07.22-.07s-.1-.15-.1-.15,0-.08,0-.08.09-.12.09-.12.13-.06.13-.06-.17-.05-.17-.05-.11-.08-.11-.08a2.23,2.23,0,0,0,.5-.09,2.56,2.56,0,0,0,1.1.43.36.36,0,0,1,0,.16h0a.1.1,0,0,0-.11.1.11.11,0,0,0,.11.1h0c.21-.05.23-.35.23-.35a1.29,1.29,0,0,0,1-.37c.06-.05.09,0,.1,0h0a.15.15,0,0,0,.13.06.17.17,0,0,0,.14-.07.19.19,0,0,0,0-.09h0a.18.18,0,0,0,0-.1"></path>
  <path class="cls-21" d="M25.49,29.69a.15.15,0,0,0,.07-.09.29.29,0,0,0-.11-.23H25a.26.26,0,0,0-.12.23.15.15,0,0,0,.07.09s-.15.07-.15.17,0,.07.12.17a.9.9,0,0,1,.12.19s0,.11.17.11.17-.11.17-.11a.81.81,0,0,1,.13-.19c.13-.1.11-.17.11-.17s-.15-.17-.15-.17"></path>
  <polygon class="cls-21" points="26.61 29.06 26.69 29.05 26.64 28.96 26.61 29.06"></polygon>
  <polygon class="cls-21" points="23.96 29.06 24.04 29.07 24.01 28.97 23.96 29.06"></polygon>
  <path class="cls-21" d="M23.65,28.85h0l0,.12h.06l0,0s0,0,0,0a0,0,0,0,0,0-.05l-.05,0"></path>
  <path class="cls-21" d="M24.79,28.94a.06.06,0,0,0-.06,0s0,.05,0,.1a.22.22,0,0,0,0,.1.06.06,0,0,0,.06,0,0,0,0,0,0,.06,0s0-.05,0-.1a.22.22,0,0,0,0-.1.07.07,0,0,0-.06,0"></path>
  <path class="cls-21" d="M25.78,28.94s0,0-.06,0a.13.13,0,0,0,0,.09.22.22,0,0,0,0,.1.09.09,0,0,0,.06,0,.06.06,0,0,0,.06,0s0-.05,0-.1a.25.25,0,0,0,0-.1.09.09,0,0,0-.07,0"></path>
  <polygon class="cls-21" points="23.07 28.94 23.15 28.95 23.12 28.85 23.07 28.94"></polygon>
  <path class="cls-21" d="M21.56,28.36l0,.12h.07s0,0,0,0,0,0,0,0a0,0,0,0,0,0,0l0,0"></path>
  <path class="cls-21" d="M21.87,28.5a.15.15,0,0,0-.05.09.12.12,0,0,0,0,.1.07.07,0,0,0,0,0,.08.08,0,0,0,.07,0,.19.19,0,0,0,0-.09.22.22,0,0,0,0-.1.08.08,0,0,0,0-.05.06.06,0,0,0-.07,0"></path>
  <path class="cls-21" d="M22.3,28.59h0l0,.11h.08l0,0a.07.07,0,0,0,0-.05s0,0-.05,0"></path>
  <path class="cls-21" d="M28.24,28.6s0,0-.06,0h0l0,.11.05,0s0,0,0,0v0l0,0"></path>
  <polygon class="cls-21" points="28.9 28.56 28.97 28.54 28.9 28.46 28.9 28.56"></polygon>
  <path class="cls-21" d="M29.09,28.14H29a10.84,10.84,0,0,1-3.79.62,10.84,10.84,0,0,1-3.79-.62h-.07a.2.2,0,0,0-.11,0l-.47.35h0a1,1,0,0,1,.29.07,10.77,10.77,0,0,0,4.14.73,10.77,10.77,0,0,0,4.14-.73,1,1,0,0,1,.3-.07h0l-.47-.35a.2.2,0,0,0-.11,0m-4.31.68h.1l-.11.06h0Zm-3.09-.34s0,0,0,0H21.6l-.07,0h0l0,.07a.08.08,0,0,0,0,0s0,0,0,0h0v0l-.17-.06v0h0s0,0,0,0l.06-.17a0,0,0,0,0,0,0l0,0h0v0l.13,0,.07,0a.05.05,0,0,1,0,0,.05.05,0,0,1,0,0,.08.08,0,0,1,0,0m.38.19a.18.18,0,0,1-.08.09.22.22,0,0,1-.14,0,.19.19,0,0,1-.09-.05.1.1,0,0,1,0-.08.21.21,0,0,1,0-.08.18.18,0,0,1,.05-.07l.08,0h.09a.18.18,0,0,1,.12.08.19.19,0,0,1,0,.13m.32.15a.16.16,0,0,0,0,.06l0,0v0l-.1,0a.22.22,0,0,1,0-.08.13.13,0,0,1,0,0l0,0h0l0,.07v0s0,0,0,0h0v0l-.17-.05v0h0s0,0,0,0l.05-.17v0h0v0l.13,0h0l.06,0,0,0a.05.05,0,0,1,0,0s0,0,0,0,0,0-.08,0a.22.22,0,0,1,0,.08m.54.2L22.64,29v0h0s0,0,0,0l0-.18a0,0,0,0,0,0,0h0v0l.17,0v0h0a0,0,0,0,0,0,0l0,.17v0h.05a.06.06,0,0,0,.06,0,.1.1,0,0,0,0,0h0Zm.35.07-.16,0v0h0v0h0v0l-.09,0v0l0,0a0,0,0,0,0,0,0h0v0L23,29v0s0,0,.06,0l.14-.22h0l0,.25s0,0,0,.05h0Zm.54.07h-.09a.31.31,0,0,1-.05-.09s0,0,0,0v0h0v.1h0v0l-.17,0v0h0a0,0,0,0,0,0,0l0-.18s0,0,0,0a0,0,0,0,0,0,0h0v0h.22l0,0s0,0,0,0v0a.07.07,0,0,1-.07.06l0,.08,0,.05h0Zm.36,0H24v0s0,0,0,0h0a0,0,0,0,0,0,0h0v0h-.1a0,0,0,0,0,0,0v0h0v0h-.11v0s0,0,.06-.05l.12-.23h0l.08.24s0,0,0,.05h0Zm.35-.26-.21.25h.13a0,0,0,0,0,0,0l0,0h0v.09l-.29,0v0l.2-.25H24.3l0,0h0v-.08l.27,0Zm.38.26a.15.15,0,0,1-.13,0l-.1,0a.13.13,0,0,1-.06-.07.19.19,0,0,1,0-.07s0-.06,0-.08a.13.13,0,0,1,.07-.06l.09,0a.18.18,0,0,1,.13.06.16.16,0,0,1,0,.11.15.15,0,0,1-.06.11m.48-.24h0a0,0,0,0,0,0,0v.26h0L25.1,29v.14s0,0,0,0h0v0H25v0h0V29A0,0,0,0,0,25,29v0h.11l.17.19V29a0,0,0,0,0-.05-.05v0h.12Zm.54.23a.21.21,0,0,1-.13.05.2.2,0,0,1-.11,0,.1.1,0,0,1-.06-.05.31.31,0,0,1,0-.08.11.11,0,0,1,0-.08.09.09,0,0,1,.06-.06.16.16,0,0,1,.09,0,.21.21,0,0,1,.14,0,.17.17,0,0,1,0,.12.15.15,0,0,1,0,.11m.27,0v0h0a0,0,0,0,0,0,0l0-.18s0,0,0,0h0v0l.17,0v0h0s0,0,0,0,0,0,0,0v.18s0,0,0,0,0,0,0,0h0l.06,0a.14.14,0,0,0,0-.06h0v.1Zm.49-.05v0h0v0h0v0h-.1a0,0,0,0,0,0,0h0v0h-.1v0s0,0,.05,0l.07-.25h0l.12.22,0,0h0v0Zm.56-.31,0,0h-.1v.1h.05a0,0,0,0,0,0,0h0l0,.11h0s0,0,0,0h-.05V29a0,0,0,0,0,0,0h0v0l-.17,0v0h0v0l0-.18a0,0,0,0,0,0,0h0v0l.27,0,0,.08Zm.38-.07,0,.1v.05a.09.09,0,0,1,0,.05s0,0,0,0l-.06,0a.09.09,0,0,1-.07,0l0,0,0,0s0,0,0,0l0-.12s0,0,0,0h0v0l.17,0v0h0a0,0,0,0,0,0,0l0,.12s0,0,0,0,0,0,0,0a0,0,0,0,0,0,0l0,0a.05.05,0,0,0,0,0v-.06l0-.1a.05.05,0,0,0-.06,0v0l.12,0v0h0l0,0a0,0,0,0,0,0,0m.14.21v0h0v0l0-.18,0,0h0v0l.27-.06,0,.07h0l0,0h-.05l-.06,0,0,.1h0s0,0,0,0,0,0,0,0h0l0,.1h0a0,0,0,0,1,0,0h-.07l0,.07s0,0,0,0H28s0,0,0,0v0h0l0,.1Zm.6-.15-.07-.06,0,0a0,0,0,0,0,0,0h0l0,.08s0,0,0,0,0,0,0,0h0v0l-.16.05v0h0s0,0,0,0l0-.18s0,0,0,0h0v0l.12,0h.13a.05.05,0,0,1,0,0l0,0a.07.07,0,0,1,0,.09l.07.05s.05,0,.06,0,0,0,0,0v0Zm.15,0v0l.09-.3h-.05l-.06,0a.08.08,0,0,0,0,.05h0l0-.08.26-.08v0l-.09.3.07,0,.05,0,0,0v-.05h0l0,.08Zm.49-.16v0h0s0,0,0,0h0l0,0-.09,0v0h0v0l-.1,0v0s0,0,0-.07v-.26h0l.19.19,0,0h0v0Z"></path>
  <path class="cls-21" d="M23.6,23.76l-.17.1h.35l-.18-.1"></path>
  <path class="cls-21" d="M25.88,23.85l-.14-.06h0l-.19-.06h-.72l-.19.06h0l-.15.06h1.42"></path>
  <path class="cls-21" d="M26.81,23.76h0l-.15.1H27l-.14-.1"></path>
  <path class="cls-21" d="M23.41,26.55v-.72a.85.85,0,0,0,0,.72"></path>
  <path class="cls-21" d="M25.16,24H23.3s0,0,0,.05l.08.09h1.72Z"></path>
  <path class="cls-21" d="M25.09,24.19H23.46l.08.15H25Z"></path>
  <path class="cls-21" d="M25,24.58l0-.15H23.58a.66.66,0,0,1,.05.15Z"></path>
  <path class="cls-21" d="M24.94,24.67H23.66a.77.77,0,0,1,0,.15h1.21Z"></path>
  <path class="cls-21" d="M23.65,25.29h.68l-.21-.14h-.44l0,.14"></path>
  <path class="cls-21" d="M23.69,24.91h0v.13H24l-.21-.14Z"></path>
  <path class="cls-21" d="M25.17,25.34,26,26.46V27h.15V25.53h.1V27l.15,0V25.53h.1V27l.15-.05V25.53h.1v1.32a.4.4,0,0,0,.14-.11h0v-1a1.5,1.5,0,0,1-.11-.22h0a.53.53,0,0,1-.06-.14h-.86l-.19.13-.37-.13-.14-.05,1.4-.43H25.48l0-.09h1.23l0-.15H25.4l0-.09h1.37a.88.88,0,0,1,.05-.15H25.33l0-.09h1.54a.71.71,0,0,1,.08-.15H25.25l0-.09H27l.1-.13h-1.9v1.38Zm.74.19H26v.9l-.09-.28Z"></path>
  <path class="cls-21" d="M25.51,27.18a.53.53,0,0,1,.15-.08v-.89l-.15-.11Z"></path>
  <path class="cls-21" d="M25.25,27.47a.35.35,0,0,0,.06-.09h0a.44.44,0,0,1,.08-.11V26l-.15-.11Z"></path>
  <path class="cls-21" d="M25,27.23a.53.53,0,0,1,.12.14h0a.05.05,0,0,1,0,0V25.87L25,26Z"></path>
  <path class="cls-21" d="M24.75,27.09a.52.52,0,0,1,.15.07V26.05l-.15.11Z"></path>
  <path class="cls-21" d="M25.76,27.07a.4.4,0,0,1,.15,0v-.65l-.15-.11Z"></path>
  <path class="cls-21" d="M24.51,27l.15,0v-.83l-.15.11Z"></path>
  <path class="cls-21" d="M23.66,26.83v-1.3h.1v1.36l.15.06V25.53H24V27l.15,0V25.53h.1V27h.15v-.61l-.09.07.85-1.14h0l-.31-.43H23.77l1.4.43-.51.18-.19-.13h-.85a1.47,1.47,0,0,1-.06.14.54.54,0,0,1,0,.11V26.7a.69.69,0,0,0,.15.13m.75-1.3h.1V26l-.1.28Z"></path>
  <path class="cls-21" d="M26,25.29h.69l0-.14h-.45Z"></path>
  <path class="cls-21" d="M26.67,24.91h-.1l-.21.14h.31a.32.32,0,0,1,0-.1v0"></path>
  <path class="cls-21" d="M22.78,22.2a1.33,1.33,0,0,0,.74.1.46.46,0,0,0,.21-.08l0,0h0a.48.48,0,0,0,.17-.41s0,0,0,0,0,0,0,.11a.59.59,0,0,1-.05.22v0a.11.11,0,0,0,0,.07.29.29,0,0,0,.28,0s0,0,0,0-.06.08-.19.08H24a.53.53,0,0,0,.46.18,0,0,0,0,1,0,0s-.05,0-.11,0a.68.68,0,0,1-.29-.06.85.85,0,0,0,.54.25s-.21,0-.27,0c.13.48.4.43.4.46a.15.15,0,0,0-.08.22,1.72,1.72,0,0,1,.57-.1,1.59,1.59,0,0,1,.58.11.11.11,0,0,0,0-.13c0-.12-.43-.21-.8-.11l-.05,0h0l.05,0a.93.93,0,0,1,.68,0h0c.15.06.29-.12.24-.21a.19.19,0,0,0,.21-.18.09.09,0,0,1-.06,0h0l-.08,0h0l0,0a.53.53,0,0,0,.3-.42.18.18,0,0,1-.15.07s-.06,0-.06,0h0a.15.15,0,0,0,.07,0,.5.5,0,0,0,.18-.23,1.16,1.16,0,0,1-.26-.45.23.23,0,0,0-.18-.15h-.08c.1-.08.22,0,.28,0,0-.18.08-.23.09-.23h0a.72.72,0,0,0,.33.83,1.07,1.07,0,0,0,1.08-.1h0a.57.57,0,0,1-.18,0,.22.22,0,0,1-.12,0h0a.48.48,0,0,0,.12,0,.57.57,0,0,0,.41-.7h0a1,1,0,0,1,0,.1.24.24,0,0,1-.08.09v0a.53.53,0,0,0-.13-.71,1,1,0,0,0-1,0,.91.91,0,0,0-.33-.2.87.87,0,0,1-.33.42.46.46,0,0,1-.14.07s0,0,0,0a.64.64,0,0,0,.37-.56h0a.74.74,0,0,0-.18-.48A1,1,0,0,0,25,20a.5.5,0,0,0-.14.27.32.32,0,0,1,.22-.2c.13,0,.36,0,.4.12a.41.41,0,0,0-.65.3h0a0,0,0,0,1,0,0h0s0,0,0-.16a1.11,1.11,0,0,1,.09-.32.81.81,0,0,0-1,.81.47.47,0,0,0,.14.28s0,0,0,0-.07,0-.11-.08a.76.76,0,0,1-.11-.22,1.32,1.32,0,0,0-.64-.08.84.84,0,0,0-.48.26.91.91,0,0,0-.11.16.66.66,0,0,0-.08.4.73.73,0,0,0,.36.59m4.66-1.38a.44.44,0,0,1,.25.25.36.36,0,0,1,0,.29h0a.56.56,0,0,0-.05-.27.26.26,0,0,0-.14-.15,1.46,1.46,0,0,1,.09.16.23.23,0,0,1,0,.12.5.5,0,0,1-.13.34h0a.48.48,0,0,0,0-.42.05.05,0,0,0,0,0,.33.33,0,0,0-.27-.19.44.44,0,0,1,.15.18.38.38,0,0,1,0,.44h0a.17.17,0,0,1,0-.07,1,1,0,0,0,0-.17c-.07-.29-.32-.4-.51-.22a.56.56,0,0,1,.64-.23M25.59,22.9s0-.1,0-.14.13-.14.18-.19,0,.15-.15.33m0-.27c-.06-.1.09-.22.13-.32s-.05.29-.13.32m.49-2.3c0,.15-.08.19-.09.19a0,0,0,0,1,0,0,.34.34,0,0,0-.05-.35.55.55,0,0,0-.17-.11.39.39,0,0,1,.32.29m-.42,1.46c.14.05-.07.31-.08.36s.14-.12.18-.09-.14.33-.2.34c-.3-.37.09-.49.1-.61m-.2.64a1,1,0,0,1,0,.58s0-.1,0-.14a2.08,2.08,0,0,0-.06-.57,3.91,3.91,0,0,0-.29-.7,2.06,2.06,0,0,1,.4.83m-1.27-.91a1.79,1.79,0,0,0,1,.61c.16,0,.24.52.11.76-.14,0-.16-.1-.19-.2s.15.11.15,0-.38-.12-.29-.26.22.23.27.13-.61-.26-.6-.43.51.23.59.22-.76-.39-1-.78c0,0,0-.05,0-.06h0M23,22.06c.18,0,.33-.13.28-.28s-.05-.08-.12-.09a.24.24,0,0,0-.21.13.23.23,0,0,1,.26-.22.27.27,0,0,1,.21.16c.05.23-.17.32-.42.3M23,21a.53.53,0,0,1,.54.11.55.55,0,0,1,.05.81c.08-.19.11-.48-.2-.55a.67.67,0,0,0-.58.21.53.53,0,0,1,.64-.31c-.06-.18-.31-.25-.59-.1a.91.91,0,0,0-.16.11A.52.52,0,0,1,23,21"></path>
  <path class="cls-21" d="M24.33,29.54a.56.56,0,0,0-.46.1,1.22,1.22,0,0,1-.26.14s.05-.23.09-.49h-.12c0,.24-.09.52-.19.53l-.15,0,0-.05a.15.15,0,0,0-.15-.05h0a.17.17,0,0,0-.12.14.72.72,0,0,1-.41-.05s.24-.08.27-.17.07-.13-.17-.25c0,0-.17-.1-.22,0s0,.05.06.12.09.08-.08.07c0,0-.11,0-.14-.05a2,2,0,0,1,.1-.5l-.19,0a1.18,1.18,0,0,0-.07.2s0,.18-.08.22a.46.46,0,0,1-.13-.5l-.21-.07a1.34,1.34,0,0,0,.24.75s-.19.24-.39.12c0,0-.28-.17-.1-.32,0,0,.12-.1.17,0a.11.11,0,0,0-.11.11.11.11,0,0,0,.12.11.11.11,0,0,0,.11-.1.27.27,0,0,0-.09-.25.28.28,0,0,0-.26-.06.86.86,0,0,0,.16-.36.12.12,0,0,1,0-.06l-.14-.05c0,.16-.06.45-.29.37l.25-.39-.28-.11h0A.41.41,0,0,1,21,29s-.11.11-.31,0a4.53,4.53,0,0,0,.34-.3.65.65,0,0,0-.21,0h-.09a2,2,0,0,1-.29.17s0,0-.07,0a.42.42,0,0,1-.05-.49.29.29,0,0,1,.31-.17s.06,0,.09.07-.2,0-.17.14,0,.14.18.14a.24.24,0,0,0,.19-.32s0-.17-.19-.17.09-.1,0-.14-.06-.05-.2,0,0,.06-.19,0a.17.17,0,0,0-.17,0s0,0,0,.13,0,0-.06.16a.6.6,0,0,0-.05.2.51.51,0,0,0-.17-.07c-.08-.08-.08-.47-.17-.65s0-.24,0-.45a1.15,1.15,0,0,0,.9-.76,1.49,1.49,0,0,0-.05-.73s0,0,0,0a1,1,0,0,1,.07.15,1.53,1.53,0,0,0,.63-.07h.05l.08,0,0,0a1.73,1.73,0,0,0,.73-.73.56.56,0,0,1-.3-.16,3,3,0,0,0,.43.08c.22,0,.38-.12.63-.09,0,0,0,.11.2.18a1,1,0,0,0,.05.36l0,.05s-.19.14-.14.25l0,.09h0s-.06,0-.11.1-.12.23,0,.25h0a.94.94,0,0,0,.14.72h0a1.14,1.14,0,0,0,1,.45h0c.08,0,.72,0,1,.42,0,0,.07.09.12.09a.15.15,0,0,0,.12-.09c.23-.41.88-.42.95-.42h0a1.15,1.15,0,0,0,1-.45h0a.73.73,0,0,0,.15-.38c.15-.08.14-.39.14-.44a.55.55,0,0,0,.31.25c0,.15,0,.39.14.42s.09-.07.08-.12c.14.39,0,.63.13.65s.14-.23.16-.23a.51.51,0,0,1,.06.19c0,.12,0,.24,0,.26s.1-.5.24-.44c0,.23,0,.36.1.4s0,.21-.06.21c-.27.06-.52-.14-.76-.08l0,0a1,1,0,0,0-.74-.07c-.13-.11-.17,0-.21,0-.23-.12-.35.09-.41.1s-.15-.11-.26.14c-.05.1-.3.15-.32.16a.12.12,0,0,1-.13-.06l0-.07,0,0a.17.17,0,0,0-.11,0,.13.13,0,0,0-.13.14.11.11,0,0,0,0,.08s0,0,.06,0a.09.09,0,0,1,.1.09h0c0,.11-.17.22-.17.22s-.23,0-.23,0a.3.3,0,0,0-.12-.07.14.14,0,0,0-.11.08.14.14,0,0,0-.11-.08.3.3,0,0,0-.12.07s-.13.12-.23,0-.18-.11-.17-.22h0a.09.09,0,0,1,.1-.09s.06,0,.06,0a.11.11,0,0,0,0-.08.13.13,0,0,0-.13-.14.13.13,0,0,0-.1,0l0,0,0,.07a.12.12,0,0,1-.13.06s-.27-.06-.32-.16c-.11-.25-.2-.13-.26-.14s-.18-.22-.41-.1c0,0-.08-.14-.21,0a1,1,0,0,0-.59,0s-.13-.06-.16-.07a1.45,1.45,0,0,1-.18-.1,2.22,2.22,0,0,0-.37,0,.39.39,0,0,1-.14-.05,1.26,1.26,0,0,1-.4-.31l-.06-.08a.5.5,0,0,1-.1-.18,1.39,1.39,0,0,1,.05-.53,1.37,1.37,0,0,0,0-.16,1.16,1.16,0,0,1-.55,0,1.23,1.23,0,0,1,0,.53.31.31,0,0,1,.14.21c0,.09,0,.18,0,.25a1.88,1.88,0,0,0,.36.27s.53.38.6.4.11,0,.17,0l0,0a.49.49,0,0,0,.11.08l-.48.27s-.22.11-.11.11.15,0,.17,0l-.17.07c.23.08.47.15.71.21a1.84,1.84,0,0,1,.55-.37s.27,0,.36-.18.15.11.39,0c0,0,.06,0,.13.07s-.1,0-.07.13-.2,0-.27.1a2.08,2.08,0,0,0-.83.34l.22,0a.69.69,0,0,1,.45-.14.4.4,0,0,1,.34.28l.44,0h0s.24-.11.15-.23,0-.06-.13,0-.06,0-.08,0a.26.26,0,0,0,0-.07s0-.06,0,0a.38.38,0,0,0,.14,0,.13.13,0,0,0,.13-.13.14.14,0,0,0-.13-.15,0,0,0,0,0,0,0,.05.05,0,0,1,0,0,.05.05,0,0,1-.06.05c-.08,0-.06-.18.06-.19a.32.32,0,0,1,.19.11,1,1,0,0,0,.37.34s0,.1.08.13,0,.09.12.08l.05.1h.62l0-.1c.12,0,.1-.08.12-.08s.07-.13.08-.13a1,1,0,0,0,.37-.34.32.32,0,0,1,.19-.11c.12,0,.14.17.06.19s0,0,0-.05,0,0,0,0h0a.14.14,0,0,0-.13.15.13.13,0,0,0,.13.13.38.38,0,0,0,.14,0c.08,0,0,0,0,0a.26.26,0,0,0,0,.07c0,.08-.07,0-.07,0s-.14,0-.14,0,.11.21.15.23h0l.44,0a.4.4,0,0,1,.34-.28.69.69,0,0,1,.45.14l.22,0a2.08,2.08,0,0,0-.83-.34c-.07-.1-.27-.09-.27-.1s-.09-.12-.07-.13.11-.08.13-.07c.24.13.36,0,.39,0s.36.18.36.18a1.84,1.84,0,0,1,.55.37l.65-.19h0a0,0,0,0,1,0,0v0h0l0-.05h0c-.06-.09-.14-.18-.16-.21h0s.16-.23.26-.07,0,.07-.11.07a1.44,1.44,0,0,1,.14.3h0l.1,0h0c-.07-.12-.16-.19-.13-.22s.11,0,.16,0a1.23,1.23,0,0,0,0-.2.32.32,0,0,0,.16,0c.17,0,.23-.24.19-.32s.12-.09.13-.07.32.23.29,0c0,.12.08.26.23.25s0-.2.07-.2.08.25.24.2a.11.11,0,0,0,.09-.12c0-.19-.58-1.21-.63-1.66h0s-.06-.11,0-.18h0a.24.24,0,0,1-.19-.25c0-.17.07-.26.09-.26s0,0,0,0-.07.29,0,.38l.1,0a.17.17,0,0,1,.08-.09s0,0,0,0a.28.28,0,0,0,0,.28.18.18,0,0,0,.11,0c.16-.05.24-.35.28-.44s-.18.62,0,.75.14-.11.18-.2c.07.18-.24.55,0,.64s.18-.3.18-.26c0,.5-.23.74-.05.82s.19-.34.19-.29c0,.53-.28.68-.16.77s.23-.27.23-.19c0,.47-.26.6-.15.75s.37-.31.38-.22-.27.66-.11.7.19-.16.2-.2a9.44,9.44,0,0,0,.41-3.14,7.9,7.9,0,0,0-.28-1.9c-.1-.35-.31-1.07-.8-1.17a.35.35,0,0,0-.4.34c0,.16.12.24.07.39a1.4,1.4,0,0,0-.15.33c0,.11.07.16,0,.28s-.23.1-.44.05a.71.71,0,0,1-.41,0h0c.22,0,.42-.08.46-.17a.41.41,0,0,0-.09-.43,1.17,1.17,0,0,1-.62.11c-.36,0-.45,0-.5.25a.18.18,0,0,1,0-.1c0-.11.13-.18.28-.2a.24.24,0,0,0,0-.14.54.54,0,0,0-.18,0c-.17,0-.4.12-.46.28a.25.25,0,0,0,0,.09.15.15,0,0,0,0,.07s0,0,0,.06.19.17.47.18h0a.2.2,0,0,1-.14,0,.6.6,0,0,1-.38-.13l0,0a.55.55,0,0,1-.33.14.4.4,0,0,1-.32-.14c-.18-.22,0-.6,0-.75,0-.38-.56-.21-.76-.11a2.06,2.06,0,0,0-.59.5,1.85,1.85,0,0,0-.23.34,1.59,1.59,0,0,0,.44.12h.06a.6.6,0,0,0,.36-.1.17.17,0,0,1,.12,0,.2.2,0,0,1,.14.06s.37.28.48.35a.13.13,0,0,1,.06.09.13.13,0,0,1-.05.11,2.29,2.29,0,0,0-.31.49s0,.07,0,.12-.07.36.13.43c0,0,.23.05.21-.3,0,0,0,.23.21.22s.14-.08.13-.23h0a1.72,1.72,0,0,1,0-.5v0a.35.35,0,0,1,0,.09,1.82,1.82,0,0,0,.65,1.48,1.32,1.32,0,0,1-.51-.49.44.44,0,0,0-.21.53.49.49,0,0,0,.18.23,0,0,0,0,1,0,0s0,0-.11,0h0l0,0a.47.47,0,0,1-.05-.1,2.5,2.5,0,0,1-.24-.22h0c0-.11,0-.44-.36-.44h-.1a1.06,1.06,0,0,1-.06-.5,1.88,1.88,0,0,1,.41-.81.05.05,0,0,0,0-.05l0,0h0c-.12-.08-.46-.34-.49-.37h0a.11.11,0,0,0-.08,0,.14.14,0,0,0-.07,0,.67.67,0,0,1-.41.13h-.07a1.14,1.14,0,0,1-.48-.14,1.56,1.56,0,0,0-1.29,0,1.2,1.2,0,0,1-.49.14H24a.66.66,0,0,1-.4-.13h0a.14.14,0,0,0-.07,0,.16.16,0,0,0-.09,0h0s-.37.29-.49.37h0a0,0,0,0,0,0,0A.08.08,0,0,0,23,24a1.75,1.75,0,0,1,.42.81.93.93,0,0,1,0,.18,1.32,1.32,0,0,0-.08-.22.5.5,0,0,0,0-.13h0a.53.53,0,0,0-.2-.16,1,1,0,0,1-.18-.08.68.68,0,0,1-.25-.23.73.73,0,0,0-.11-.38s.16.08.18.31a1.3,1.3,0,0,0,.29-.65c.13-.16.47-.1.6-.08a.36.36,0,0,1,.11,0s.05.08.1.1a.54.54,0,0,0,.18,0,.56.56,0,0,1,.05.08h.05a1.78,1.78,0,0,0,.46-.13h0a.45.45,0,0,0-.29-.12c-.12,0-.19-.13-.31-.15a.55.55,0,0,0-.18,0,3.29,3.29,0,0,1-.71-.08c-.24,0-.24.14-.33.27a1.34,1.34,0,0,1-.11.14c-.07.06-.14.06-.22.12h0a1,1,0,0,0-.11-.29h0v0a.85.85,0,0,0-.57-.41l-.1-.06c-.05,0,0-.07,0-.08s.22,0,.32-.07.15-.29,0-.3a1.62,1.62,0,0,1-.36-.1c-.06,0-.09-.12-.18-.15a.41.41,0,0,0-.19,0c-.06,0-.09,0-.13,0a.34.34,0,0,1,.26-.12c-.1,0-.07-.18-.16-.22a.45.45,0,0,0-.17,0s0-.21-.13-.26-.1,0-.1.06.12.09.14.26l-.06,0c0-.07-.05-.18-.13-.22s-.1,0-.1.06.11.08.14.22l-.08.07c-.15,0-.19-.15-.23-.15s-.11,0-.08.09a.43.43,0,0,0,.23.14l-.05.05c-.18,0-.22-.15-.26-.16s-.11,0-.08.09.23.14.27.15,0,.09,0,.12c-.14,0-.39.06-.34.22s.21-.1.36,0a.49.49,0,0,0,.3.18.56.56,0,0,1,.09.19,1.41,1.41,0,0,0,.21.35c.09.12.18.25.27.36a.19.19,0,0,1,0,.11,4.51,4.51,0,0,1-.53.45c-.13.11-1.33,1-1.48,1.36a.78.78,0,0,0,0,.31.24.24,0,0,1-.24,0c-.08-.09.08-.18,0-.3a.11.11,0,0,0-.13,0c-.09,0-.11.2-.07.3s.06.07,0,.09-.07,0-.07-.09a.1.1,0,0,0,0,.1c0,.09.13.09.16.11s-.06,0-.1,0,0,.13,0,.13.15-.05.2-.06,0,.07-.09.09c.12.13.23-.1.36-.08s.42.35.35.61a.14.14,0,0,1,0,.06c-.09.1-.22.17-.32.27s.19.87.16,1.26c0,.15.13.12.22.37a.29.29,0,0,0-.24.09v0h0a.16.16,0,0,0,0,.09.2.2,0,0,0,.4,0v0a.36.36,0,0,1,.16,0l.17.09a1.85,1.85,0,0,1-1.61.21s-.45-.14-.32-.53a.22.22,0,0,1,.08-.1.2.2,0,0,0,.09.13.28.28,0,0,0,.13,0,.23.23,0,0,0,.23-.22.21.21,0,0,0-.07-.15l0,0h0a.39.39,0,0,0-.32,0,.42.42,0,0,0-.28.57s-.29-.06-.4.07a.15.15,0,0,0,0,.1h0a.19.19,0,0,0,0,.09.17.17,0,0,0,.14.07.15.15,0,0,0,.13-.06h0s0,0,.1,0a1.32,1.32,0,0,0,1,.37s0,.3.22.35h0a.11.11,0,0,0,.11-.1.1.1,0,0,0-.11-.1h0a.36.36,0,0,1,0-.16,2.56,2.56,0,0,0,1.1-.43,2.23,2.23,0,0,0,.5.09s0,.07-.11.08-.17,0-.17.05,0,.06.13.06,0,.06.09.12.07,0,0,.08-.13.07-.1.15,0,.1.22.07c0,0,.06,0,0,.05s-.09.1.07.17a.15.15,0,0,0,.2-.05s0-.05.09,0,.39.17.59-.1c0,0,0-.05.07,0a1.05,1.05,0,0,0,.75.25.21.21,0,0,0,.38-.06,1.17,1.17,0,0,0,.57-.18l.19-.11a.29.29,0,0,0,.29.27.28.28,0,0,0,.29-.27.27.27,0,0,0-.24-.27M22.5,27.48h-.19a.07.07,0,0,0,0,.06h0l.05,0s-.06.06-.09.06-.11-.07-.13-.11h0a.48.48,0,0,0-.22,0c0-.14.41-.05.42,0a.42.42,0,0,1,.13,0h0m6,.33h0v0a.91.91,0,0,1-.24-.11.17.17,0,0,0-.15,0h0c-.06,0-.09.09-.13.12s0,0,0,0h0v0h0v0h0l0,0h.05l.12,0h0a.35.35,0,0,1,.17.06.45.45,0,0,0,.23.07.21.21,0,0,0-.05.08m1.63-4.71c0-.11.19-.25.19-.31s-.08-.15-.09-.25a.23.23,0,0,1,.26-.26.48.48,0,0,1,.23.17l.07.08a2.65,2.65,0,0,1,.41.88,8.54,8.54,0,0,1,.07,3.8,3.29,3.29,0,0,1-.11.44c.29-2.53.13-3.16.08-3.15s-.09.31-.23.22.33-.64.14-.95c-.05-.05-.08.07-.16.05s.11-.55,0-.6-.19-.06-.19-.24.05-.15,0-.22,0,0-.1,0,0-.2-.05-.27-.09.06-.14,0,0-.12,0-.15-.22.1-.19.23.1.12.09.2-.09.15-.11.18c-.12.28.09.33.06.43s-.1.07-.16.05-.1-.28-.07-.38m-.38.54.13,0s.07-.05.11-.05,0,0,0,0a.65.65,0,0,1-.22.11.29.29,0,0,1-.32-.1c.1,0,.19,0,.33,0m-2.42-.95h0a.63.63,0,0,0-.48,0,.92.92,0,0,0-.21.17.71.71,0,0,1,.51-.31c.2,0,.22.09.21.11m.71.88a.38.38,0,0,1-.21.2.48.48,0,0,1-.39-.13,1.4,1.4,0,0,0,.32.06.44.44,0,0,0,.28-.14s0,0,0,0m.3,2.85a.56.56,0,0,0,.48-.06h0s0,.13-.2.17a.65.65,0,0,1-.54-.26,1.5,1.5,0,0,0,.23.15m-.86-.58h0v0h0v0h0V26h0v.08a.28.28,0,0,1,0,.19v0h-.18s0-.07,0-.08l0,0h.06a0,0,0,0,0,0,0h0v0h0v0a1.24,1.24,0,0,1,0-.31s0,0,0,0h0m-.39-.44h0a.18.18,0,0,1,.1,0h.11a.33.33,0,0,1,.07.14h0a.93.93,0,0,0,.07.15s0,.11-.06.1h0a.26.26,0,0,1-.16-.3H27.1s0,.05-.07.05a.17.17,0,0,1,.08-.13m-3.72.32a1.21,1.21,0,0,0,.23-.79,1.4,1.4,0,0,0-.35-.88.11.11,0,0,1,0-.1.08.08,0,0,1,.05-.07l.29-.18,0,0h0l.06,0a.6.6,0,0,0,.38.13h.11a1,1,0,0,0,.28-.1l.16-.06h0a1.51,1.51,0,0,1,1.18,0h0l.16.07a1,1,0,0,0,.28.1h.11a.6.6,0,0,0,.38-.13s0,0,.06,0h.06l.29.18a.1.1,0,0,1,0,.07.11.11,0,0,1,0,.1,1.39,1.39,0,0,0-.35.87,1.3,1.3,0,0,0,.23.8,1,1,0,0,1,0,1,1,1,0,0,1-.91.4c-.06,0-.57,0-.75.32v0l-.11.18,0,0,0,0-.11-.18v0c-.18-.31-.69-.32-.75-.32a1,1,0,0,1-.91-.4.94.94,0,0,1,0-1m-.16-.55a.32.32,0,0,1,.07.21v.5s0,0,0,0v0l0,0h0l0,0h0l0,0h0l0,0H23v0s.05-.07.07-.12a.18.18,0,0,1,0-.1s.07,0,.09,0-.07-.15,0-.23,0-.36,0-.39m0-.37c-.05,0-.06-.21-.33-.16a.38.38,0,0,1-.35,0c.39-.21.71,0,.68.17m-2.27-2.15c-.06-.13.16-.31.22-.33s.22,0,.36.05h.23c.15,0,.11.12.08.14s-.19-.06-.3-.08a1.81,1.81,0,0,1-.23,0c-.07,0-.12-.05-.18,0a.15.15,0,0,0-.08.15c0,.05-.07.08-.1,0m.14,0c.17.06.19-.15.23-.1s-.1.23-.23.1m.32.45a2,2,0,0,1,.69.11h0a.62.62,0,0,1,.24.33,2,2,0,0,0-.48-.22c-.18-.06-.39-.09-.47-.23m-1.32,5.54h0L20,28.56s0,.09.06.12,0,0,0,0h-.07c-.05,0-.06-.11-.07-.15a.15.15,0,0,0-.09-.14c.11-.07.28.1.3.11h0l.08.06,0,0s0,0-.09,0"></path>
  <path class="cls-21" d="M38.63,56.64a1.92,1.92,0,0,1-.78.18c-.63,0-.92-.42-.92-1.06a.9.9,0,0,1,1-1,1.18,1.18,0,0,1,.69.18l-.18.29a1,1,0,0,0-.51-.12c-.37,0-.55.27-.55.67s.18.73.54.73a.92.92,0,0,0,.36-.07v-.37H38l0-.29h.69Z"></path>
  <path class="cls-21" d="M40.33,56.06a.72.72,0,1,1-1.43,0,.68.68,0,0,1,.71-.75.69.69,0,0,1,.72.75m-.42,0c0-.35-.11-.47-.3-.47s-.29.12-.29.47.09.48.29.48.3-.13.3-.48"></path>
  <path class="cls-21" d="M41,55.48a.53.53,0,0,1,.4-.17c.36,0,.62.24.62.75a.68.68,0,0,1-.67.76.53.53,0,0,1-.44-.2l-.07.17h-.22v-2H41v.51Zm0,.91a.36.36,0,0,0,.27.15c.18,0,.31-.13.31-.48s-.11-.47-.3-.47a.42.42,0,0,0-.28.12Z"></path>
  <path class="cls-21" d="M42.46,56.79V55.62l-.17,0v-.25h.57v1.45Zm0-2h.41v.35h-.41Z"></path>
  <path class="cls-21" d="M43.58,56.17a.34.34,0,0,0,.39.36,1.17,1.17,0,0,0,.45-.13l.07.28a1.32,1.32,0,0,1-.57.14.69.69,0,0,1-.75-.76.66.66,0,0,1,.71-.75.62.62,0,0,1,.65.69v.17Zm.28-.58c-.2,0-.28.18-.28.35h.56c0-.19-.06-.35-.28-.35"></path>
  <path class="cls-21" d="M45.7,55.66a.55.55,0,0,0-.19,0,.49.49,0,0,0-.28.09v1.06h-.4V55.34h.28c0,.06,0,.13,0,.19h0a.41.41,0,0,1,.36-.22l.18,0c0,.11,0,.22,0,.33"></path>
  <path class="cls-21" d="M46.89,56.79v-.86c0-.22-.09-.33-.28-.33a.54.54,0,0,0-.26.09v1.1h-.41V55.34h.28l.06.16a.65.65,0,0,1,.48-.19c.39,0,.54.21.54.58v.9Z"></path>
  <path class="cls-21" d="M49,56.06a.72.72,0,1,1-1.43,0,.72.72,0,1,1,1.43,0m-.42,0c0-.35-.11-.47-.3-.47s-.29.12-.29.47.1.48.29.48.3-.13.3-.48"></path>
  <path class="cls-21" d="M51,55.45a1.1,1.1,0,0,1,0-.27v-.44h.41v2H51l0-.16a.49.49,0,0,1-.4.19c-.35,0-.62-.24-.62-.76a.66.66,0,0,1,.65-.75.49.49,0,0,1,.38.14m0,.22a.48.48,0,0,0-.27-.07c-.19,0-.32.12-.32.46s.12.48.31.48a.39.39,0,0,0,.28-.13Z"></path>
  <path class="cls-21" d="M52.06,56.17c0,.23.13.36.39.36a1.07,1.07,0,0,0,.44-.13l.08.28a1.36,1.36,0,0,1-.57.14.69.69,0,0,1-.75-.76.66.66,0,0,1,.71-.75A.61.61,0,0,1,53,56v.17Zm.28-.58c-.2,0-.28.18-.28.35h.55c0-.19-.06-.35-.27-.35"></path>
  <path class="cls-21" d="M54.85,56.82c-.59,0-.9-.38-.9-1s.31-1,.9-1a1.33,1.33,0,0,1,.71.17l-.15.31a.92.92,0,0,0-.52-.14c-.34,0-.52.25-.52.69s.18.71.52.71a1,1,0,0,0,.55-.18l.13.31a1.32,1.32,0,0,1-.72.21"></path>
  <path class="cls-21" d="M55.85,56.79v-2h.41v.54a1.09,1.09,0,0,1,0,.22.52.52,0,0,1,.43-.19c.44,0,.56.21.56.58v.9H56.8v-.86a.2.2,0,0,0,0-.09c0-.17-.1-.24-.25-.24a.54.54,0,0,0-.27.09v1.1Z"></path>
  <path class="cls-21" d="M57.67,56.79V55.62l-.18,0v-.25h.58v1.45Zm0-2h.41v.35h-.41Z"></path>
  <path class="cls-21" d="M58.44,56.41V54.74h.4v1.64c0,.13.08.14.24.14v.28l-.22,0c-.31,0-.42-.16-.42-.41"></path>
  <path class="cls-21" d="M59.7,56.17a.34.34,0,0,0,.39.36,1.17,1.17,0,0,0,.45-.13l.07.28a1.32,1.32,0,0,1-.57.14.69.69,0,0,1-.75-.76.66.66,0,0,1,.71-.75.61.61,0,0,1,.64.69v.17Zm.28-.58c-.2,0-.28.18-.28.35h.56c0-.19-.07-.35-.28-.35"></path>
  <path class="cls-21" d="M39.39,24.53l0-2.15h0c0,.27-.09.47-.13.62l-.38,1.53h-.76L37.69,23c0-.15-.08-.35-.13-.62h0l0,2.15H37l.1-2.54H38s.29,1.28.45,2.1h0c.18-.82.52-2.1.52-2.1h.87l.1,2.54Z"></path>
  <path class="cls-21" d="M40.57,24.53V23L40.35,23v-.31h.74v1.85Zm0-2.6h.52v.45h-.52Z"></path>
  <path class="cls-21" d="M42.75,24.53v-1.1c0-.27-.11-.41-.35-.41a.6.6,0,0,0-.33.12v1.39h-.52V22.68h.35l.08.22a.81.81,0,0,1,.61-.25c.49,0,.68.27.68.74v1.14Z"></path>
  <path class="cls-21" d="M43.85,24.53V23L43.63,23v-.31h.73v1.85Zm0-2.6h.51v.45h-.51Z"></path>
  <path class="cls-21" d="M45.27,23.17c0,.29.84.2.84.8,0,.34-.26.6-.76.6a1.3,1.3,0,0,1-.58-.14l.11-.34a.92.92,0,0,0,.45.13c.17,0,.29-.09.29-.21,0-.33-.83-.22-.83-.85,0-.27.22-.51.74-.51a1.42,1.42,0,0,1,.54.09L46,23.1a1.11,1.11,0,0,0-.46-.1C45.36,23,45.27,23.07,45.27,23.17Z"></path>
  <path class="cls-21" d="M47.23,24.57c-.35,0-.57-.16-.57-.62V23h-.29v-.35h.29v-.32l.51-.15v.47h.51V23h-.51v.91c0,.13.06.21.2.21a.7.7,0,0,0,.3-.07l.07.36A1,1,0,0,1,47.23,24.57Z"></path>
  <path class="cls-21" d="M48.42,23.74c0,.29.17.45.49.45a1.38,1.38,0,0,0,.57-.15l.1.35a1.69,1.69,0,0,1-.73.18.88.88,0,0,1-1-1,.84.84,0,0,1,.91-1,.78.78,0,0,1,.81.87v.22Zm.36-.73c-.26,0-.36.22-.36.44h.7C49.12,23.21,49.05,23,48.78,23Z"></path>
  <path class="cls-21" d="M51.1,23.1a.83.83,0,0,0-.24,0,.57.57,0,0,0-.35.12v1.34H50V22.68h.36l.06.25h0a.52.52,0,0,1,.46-.28.88.88,0,0,1,.22,0Z"></path>
  <path class="cls-21" d="M51.57,24.53V23L51.34,23v-.31h.74v1.85Zm0-2.6h.52v.45h-.52Z"></path>
  <path class="cls-21" d="M54.28,23.6a.85.85,0,0,1-.91,1c-.58,0-.9-.33-.9-1a.86.86,0,0,1,.9-1A.88.88,0,0,1,54.28,23.6Zm-.53,0c0-.44-.14-.6-.38-.6s-.37.16-.37.6.12.61.37.61S53.75,24,53.75,23.6Z"></path>
  <path class="cls-21" d="M56.77,22.83a1.18,1.18,0,0,1,0-.34v-.56h.51v2.6h-.42l-.06-.2a.64.64,0,0,1-.51.24c-.43,0-.79-.3-.79-1a.85.85,0,0,1,.83-1A.6.6,0,0,1,56.77,22.83Zm0,.28a.66.66,0,0,0-.35-.09c-.25,0-.4.15-.4.58s.15.61.39.61a.52.52,0,0,0,.36-.16Z"></path>
  <path class="cls-21" d="M58.14,23.74c0,.29.18.45.5.45a1.38,1.38,0,0,0,.57-.15l.09.35a1.64,1.64,0,0,1-.72.18.88.88,0,0,1-.95-1,.84.84,0,0,1,.9-1,.78.78,0,0,1,.81.87v.22Zm.37-.73c-.26,0-.37.22-.37.44h.71C58.85,23.21,58.77,23,58.51,23Z"></path>
  <path class="cls-21" d="M37.09,28.08V25.54h1.63V26H37.6v.63h.86l0,.44H37.6v.65h1.12v.41Z"></path>
  <path class="cls-21" d="M40.2,26.38a1.16,1.16,0,0,1-.05-.34v-.56h.52v2.6h-.42l-.06-.21a.61.61,0,0,1-.51.25c-.44,0-.79-.31-.79-1a.85.85,0,0,1,.83-1A.6.6,0,0,1,40.2,26.38Zm-.05.27a.74.74,0,0,0-.35-.09c-.24,0-.39.16-.39.59s.14.61.39.61a.48.48,0,0,0,.35-.16Z"></path>
  <path class="cls-21" d="M42.47,28.08l-.07-.23a.8.8,0,0,1-.61.27c-.48,0-.7-.26-.7-.77V26.23h.52v1.12c0,.29.1.39.33.39a.63.63,0,0,0,.35-.11v-1.4h.52v1.85Z"></path>
  <path class="cls-21" d="M44.78,28a1.49,1.49,0,0,1-.67.17.85.85,0,0,1-.92-1,.86.86,0,0,1,.92-1,1.24,1.24,0,0,1,.66.15l-.13.33a1,1,0,0,0-.49-.11c-.26,0-.43.17-.43.59s.16.58.44.58a1.1,1.1,0,0,0,.52-.14Z"></path>
  <path class="cls-21" d="M46.31,28.08l-.08-.22a.68.68,0,0,1-.56.26.59.59,0,0,1-.64-.6c0-.34.26-.54.72-.54h.41v-.1c0-.23-.14-.31-.34-.31a1.42,1.42,0,0,0-.58.13l-.13-.35a2,2,0,0,1,.76-.15c.55,0,.79.24.79.71v1.17Zm-.15-.81h-.32c-.21,0-.31.1-.31.24s.09.27.29.27a.58.58,0,0,0,.34-.12Z"></path>
  <path class="cls-21" d="M48.64,28a1.48,1.48,0,0,1-.66.17.85.85,0,0,1-.92-1,.86.86,0,0,1,.91-1,1.24,1.24,0,0,1,.66.15l-.13.33a1,1,0,0,0-.48-.11c-.27,0-.44.17-.44.59s.16.58.44.58a1.1,1.1,0,0,0,.52-.14Z"></path>
  <path class="cls-21" d="M49.14,28.08V26.59l-.23-.05v-.31h.74v1.85Zm0-2.6h.52v.45h-.52Z"></path>
  <path class="cls-21" d="M51.85,27.15a.85.85,0,0,1-.91,1c-.58,0-.9-.34-.9-1a.86.86,0,0,1,.9-.95A.88.88,0,0,1,51.85,27.15ZM50.47,26l0-.29,1-.26.07.36Zm.85,1.2c0-.44-.14-.6-.38-.6s-.37.16-.37.6.12.6.37.6S51.32,27.59,51.32,27.15Z"></path>
  <path class="cls-21" d="M53.43,28.08V27c0-.28-.11-.41-.35-.41a.72.72,0,0,0-.34.11v1.4h-.51V26.23h.35l.08.21a.83.83,0,0,1,.61-.24c.49,0,.68.27.68.74v1.14Z"></path>
  <polygon class="cls-22" points="233.18 41.43 252.82 40.26 273.73 37.91 253.1 42.98 233.18 41.43"></polygon>
  <path class="cls-23" d="M233.18,41.43s7.72,11.71,7.94,11.42,12-9.87,12-9.87Z"></path>
  <polygon class="cls-24" points="267.07 51.13 273.73 37.91 253.1 42.98 267.07 51.13"></polygon>
  <polygon class="cls-25" points="241.04 52.85 253.1 42.98 267.07 51.13 241.04 52.85"></polygon>
  <polygon class="cls-26" points="244.76 42.33 252.17 29.37 251.65 42.87 244.76 42.33"></polygon>
  <polyline class="cls-27" points="254.32 42.66 262.34 40.71 252.2 29.33"></polyline>
  <polygon class="cls-28" points="251.65 42.87 253.1 42.98 254.32 42.69 252.2 29.33 251.65 42.87"></polygon>
  <polygon class="cls-29" points="218.49 55.21 274.47 49.61 273.73 60.11 218.49 55.21"></polygon>
</svg>
